<mxfile host="app.diagrams.net" modified="2021-05-30T09:00:49.388Z" agent="5.0 (Windows NT 10.0; Win64; x64) AppleWebKit/537.36 (KHTML, like Gecko) Chrome/91.0.4472.77 Safari/537.36" etag="xb8tNP61BZGm4IDSMlTA" version="14.6.13" type="github">
  <diagram id="R2XBFOxl5KzRFHHnMf30" name="Page-1">
    <mxGraphModel dx="2500" dy="896" grid="1" gridSize="1" guides="1" tooltips="1" connect="1" arrows="1" fold="1" page="1" pageScale="1" pageWidth="827" pageHeight="1169" background="#ffffff" math="0" shadow="0">
      <root>
        <mxCell id="0" />
        <mxCell id="1" parent="0" />
        <mxCell id="Af-LLxnNtBrIs2X7w0Ru-115" value="" style="rounded=0;whiteSpace=wrap;html=1;" vertex="1" parent="1">
          <mxGeometry x="-505" y="10" width="264" height="209" as="geometry" />
        </mxCell>
        <mxCell id="Af-LLxnNtBrIs2X7w0Ru-80" value="" style="rounded=0;whiteSpace=wrap;html=1;" vertex="1" parent="1">
          <mxGeometry x="-697" y="10" width="158" height="207" as="geometry" />
        </mxCell>
        <mxCell id="Af-LLxnNtBrIs2X7w0Ru-81" value="" style="whiteSpace=wrap;html=1;shape=mxgraph.basic.isocube;isoAngle=15;flipV=0;flipH=0;rotation=0;fillColor=#dae8fc;strokeColor=#6c8ebf;" vertex="1" parent="1">
          <mxGeometry x="-690" y="118" width="146" height="77" as="geometry" />
        </mxCell>
        <mxCell id="Af-LLxnNtBrIs2X7w0Ru-82" value="" style="whiteSpace=wrap;html=1;shape=mxgraph.basic.isocube;isoAngle=15;flipV=0;flipH=0;rotation=0;fillColor=#dae8fc;strokeColor=#6c8ebf;" vertex="1" parent="1">
          <mxGeometry x="-676.25" y="107" width="118.5" height="62" as="geometry" />
        </mxCell>
        <mxCell id="Af-LLxnNtBrIs2X7w0Ru-83" style="edgeStyle=orthogonalEdgeStyle;rounded=0;orthogonalLoop=1;jettySize=auto;html=1;" edge="1" parent="1" source="Af-LLxnNtBrIs2X7w0Ru-84" target="Af-LLxnNtBrIs2X7w0Ru-91">
          <mxGeometry relative="1" as="geometry">
            <Array as="points">
              <mxPoint x="-534" y="114" />
              <mxPoint x="-534" y="133" />
            </Array>
          </mxGeometry>
        </mxCell>
        <mxCell id="Af-LLxnNtBrIs2X7w0Ru-84" value="" style="whiteSpace=wrap;html=1;shape=mxgraph.basic.isocube;isoAngle=15;flipV=0;flipH=0;rotation=0;fillColor=#dae8fc;strokeColor=#6c8ebf;" vertex="1" parent="1">
          <mxGeometry x="-668" y="87" width="104" height="55" as="geometry" />
        </mxCell>
        <mxCell id="Af-LLxnNtBrIs2X7w0Ru-85" style="edgeStyle=orthogonalEdgeStyle;rounded=0;orthogonalLoop=1;jettySize=auto;html=1;entryX=0;entryY=0;entryDx=0;entryDy=25.293207029339996;entryPerimeter=0;" edge="1" parent="1" source="Af-LLxnNtBrIs2X7w0Ru-86" target="Af-LLxnNtBrIs2X7w0Ru-93">
          <mxGeometry relative="1" as="geometry">
            <Array as="points">
              <mxPoint x="-534" y="89" />
              <mxPoint x="-534" y="111" />
            </Array>
          </mxGeometry>
        </mxCell>
        <mxCell id="Af-LLxnNtBrIs2X7w0Ru-86" value="" style="whiteSpace=wrap;html=1;shape=mxgraph.basic.isocube;isoAngle=15;flipV=0;flipH=0;rotation=0;fillColor=#dae8fc;strokeColor=#6c8ebf;" vertex="1" parent="1">
          <mxGeometry x="-659.12" y="66" width="86.25" height="46" as="geometry" />
        </mxCell>
        <mxCell id="Af-LLxnNtBrIs2X7w0Ru-87" style="edgeStyle=orthogonalEdgeStyle;rounded=0;orthogonalLoop=1;jettySize=auto;html=1;entryX=0;entryY=0.5;entryDx=0;entryDy=0;entryPerimeter=0;" edge="1" parent="1" source="Af-LLxnNtBrIs2X7w0Ru-88" target="Af-LLxnNtBrIs2X7w0Ru-95">
          <mxGeometry relative="1" as="geometry" />
        </mxCell>
        <mxCell id="Af-LLxnNtBrIs2X7w0Ru-88" value="" style="whiteSpace=wrap;html=1;shape=mxgraph.basic.isocube;isoAngle=15;flipV=0;flipH=0;rotation=0;fillColor=#dae8fc;strokeColor=#6c8ebf;" vertex="1" parent="1">
          <mxGeometry x="-649" y="46" width="67.75" height="38" as="geometry" />
        </mxCell>
        <mxCell id="Af-LLxnNtBrIs2X7w0Ru-89" style="edgeStyle=orthogonalEdgeStyle;rounded=0;orthogonalLoop=1;jettySize=auto;html=1;entryX=0;entryY=0.5;entryDx=0;entryDy=0;entryPerimeter=0;" edge="1" parent="1" target="Af-LLxnNtBrIs2X7w0Ru-81">
          <mxGeometry relative="1" as="geometry">
            <mxPoint x="-746" y="116.5" as="sourcePoint" />
          </mxGeometry>
        </mxCell>
        <mxCell id="Af-LLxnNtBrIs2X7w0Ru-104" style="edgeStyle=orthogonalEdgeStyle;rounded=0;orthogonalLoop=1;jettySize=auto;html=1;entryX=0;entryY=0.5;entryDx=0;entryDy=0;entryPerimeter=0;" edge="1" parent="1" source="Af-LLxnNtBrIs2X7w0Ru-91" target="Af-LLxnNtBrIs2X7w0Ru-101">
          <mxGeometry relative="1" as="geometry" />
        </mxCell>
        <mxCell id="Af-LLxnNtBrIs2X7w0Ru-91" value="" style="whiteSpace=wrap;html=1;shape=mxgraph.basic.isocube;isoAngle=15;flipV=0;flipH=0;rotation=0;fillColor=#dae8fc;strokeColor=#6c8ebf;" vertex="1" parent="1">
          <mxGeometry x="-468.75" y="114" width="67.75" height="38" as="geometry" />
        </mxCell>
        <mxCell id="Af-LLxnNtBrIs2X7w0Ru-105" style="edgeStyle=orthogonalEdgeStyle;rounded=0;orthogonalLoop=1;jettySize=auto;html=1;entryX=0;entryY=0;entryDx=0;entryDy=30.031809055667935;entryPerimeter=0;" edge="1" parent="1" source="Af-LLxnNtBrIs2X7w0Ru-93" target="Af-LLxnNtBrIs2X7w0Ru-102">
          <mxGeometry relative="1" as="geometry" />
        </mxCell>
        <mxCell id="Af-LLxnNtBrIs2X7w0Ru-93" value="" style="whiteSpace=wrap;html=1;shape=mxgraph.basic.isocube;isoAngle=15;flipV=0;flipH=0;rotation=0;fillColor=#dae8fc;strokeColor=#6c8ebf;" vertex="1" parent="1">
          <mxGeometry x="-478" y="86" width="86.25" height="46" as="geometry" />
        </mxCell>
        <mxCell id="Af-LLxnNtBrIs2X7w0Ru-106" style="edgeStyle=orthogonalEdgeStyle;rounded=0;orthogonalLoop=1;jettySize=auto;html=1;entryX=0;entryY=0.5;entryDx=0;entryDy=0;entryPerimeter=0;" edge="1" parent="1" source="Af-LLxnNtBrIs2X7w0Ru-95" target="Af-LLxnNtBrIs2X7w0Ru-103">
          <mxGeometry relative="1" as="geometry" />
        </mxCell>
        <mxCell id="Af-LLxnNtBrIs2X7w0Ru-95" value="" style="whiteSpace=wrap;html=1;shape=mxgraph.basic.isocube;isoAngle=15;flipV=0;flipH=0;rotation=0;fillColor=#dae8fc;strokeColor=#6c8ebf;" vertex="1" parent="1">
          <mxGeometry x="-486" y="56" width="104" height="55" as="geometry" />
        </mxCell>
        <mxCell id="Af-LLxnNtBrIs2X7w0Ru-111" style="edgeStyle=orthogonalEdgeStyle;rounded=0;orthogonalLoop=1;jettySize=auto;html=1;entryX=0;entryY=0.5;entryDx=0;entryDy=0;entryPerimeter=0;" edge="1" parent="1" source="Af-LLxnNtBrIs2X7w0Ru-101" target="Af-LLxnNtBrIs2X7w0Ru-107">
          <mxGeometry relative="1" as="geometry" />
        </mxCell>
        <mxCell id="Af-LLxnNtBrIs2X7w0Ru-101" value="" style="whiteSpace=wrap;html=1;shape=mxgraph.basic.isocube;isoAngle=15;flipV=0;flipH=0;rotation=0;fillColor=#dae8fc;strokeColor=#6c8ebf;" vertex="1" parent="1">
          <mxGeometry x="-353.87" y="106" width="104" height="55" as="geometry" />
        </mxCell>
        <mxCell id="Af-LLxnNtBrIs2X7w0Ru-109" style="edgeStyle=orthogonalEdgeStyle;rounded=0;orthogonalLoop=1;jettySize=auto;html=1;entryX=0;entryY=0.5;entryDx=0;entryDy=0;entryPerimeter=0;" edge="1" parent="1" source="Af-LLxnNtBrIs2X7w0Ru-102" target="Af-LLxnNtBrIs2X7w0Ru-107">
          <mxGeometry relative="1" as="geometry">
            <Array as="points">
              <mxPoint x="-229" y="108" />
            </Array>
          </mxGeometry>
        </mxCell>
        <mxCell id="Af-LLxnNtBrIs2X7w0Ru-102" value="" style="whiteSpace=wrap;html=1;shape=mxgraph.basic.isocube;isoAngle=15;flipV=0;flipH=0;rotation=0;fillColor=#dae8fc;strokeColor=#6c8ebf;" vertex="1" parent="1">
          <mxGeometry x="-353.87" y="79" width="104" height="55" as="geometry" />
        </mxCell>
        <mxCell id="Af-LLxnNtBrIs2X7w0Ru-108" style="edgeStyle=orthogonalEdgeStyle;rounded=0;orthogonalLoop=1;jettySize=auto;html=1;entryX=0;entryY=0.5;entryDx=0;entryDy=0;entryPerimeter=0;" edge="1" parent="1" source="Af-LLxnNtBrIs2X7w0Ru-103" target="Af-LLxnNtBrIs2X7w0Ru-107">
          <mxGeometry relative="1" as="geometry" />
        </mxCell>
        <mxCell id="Af-LLxnNtBrIs2X7w0Ru-103" value="" style="whiteSpace=wrap;html=1;shape=mxgraph.basic.isocube;isoAngle=15;flipV=0;flipH=0;rotation=0;fillColor=#dae8fc;strokeColor=#6c8ebf;" vertex="1" parent="1">
          <mxGeometry x="-354" y="57" width="104" height="55" as="geometry" />
        </mxCell>
        <mxCell id="Af-LLxnNtBrIs2X7w0Ru-114" style="edgeStyle=orthogonalEdgeStyle;rounded=0;orthogonalLoop=1;jettySize=auto;html=1;entryX=0;entryY=0.5;entryDx=0;entryDy=0;entryPerimeter=0;" edge="1" parent="1" source="Af-LLxnNtBrIs2X7w0Ru-107" target="Af-LLxnNtBrIs2X7w0Ru-112">
          <mxGeometry relative="1" as="geometry" />
        </mxCell>
        <mxCell id="Af-LLxnNtBrIs2X7w0Ru-124" style="edgeStyle=orthogonalEdgeStyle;rounded=0;orthogonalLoop=1;jettySize=auto;html=1;entryX=0.5;entryY=0;entryDx=0;entryDy=0;entryPerimeter=0;" edge="1" parent="1" source="Af-LLxnNtBrIs2X7w0Ru-107" target="Af-LLxnNtBrIs2X7w0Ru-119">
          <mxGeometry relative="1" as="geometry" />
        </mxCell>
        <mxCell id="Af-LLxnNtBrIs2X7w0Ru-107" value="" style="whiteSpace=wrap;html=1;shape=mxgraph.basic.isocube;isoAngle=15;flipV=0;flipH=0;rotation=0;fillColor=#dae8fc;strokeColor=#6c8ebf;" vertex="1" parent="1">
          <mxGeometry x="-183" y="81" width="104" height="55" as="geometry" />
        </mxCell>
        <mxCell id="Af-LLxnNtBrIs2X7w0Ru-128" style="edgeStyle=orthogonalEdgeStyle;rounded=0;orthogonalLoop=1;jettySize=auto;html=1;" edge="1" parent="1" source="Af-LLxnNtBrIs2X7w0Ru-112" target="Af-LLxnNtBrIs2X7w0Ru-126">
          <mxGeometry relative="1" as="geometry" />
        </mxCell>
        <mxCell id="Af-LLxnNtBrIs2X7w0Ru-112" value="" style="whiteSpace=wrap;html=1;shape=mxgraph.basic.isocube;isoAngle=15;flipV=0;flipH=0;rotation=0;fillColor=#dae8fc;strokeColor=#6c8ebf;" vertex="1" parent="1">
          <mxGeometry x="-36" y="81" width="104" height="55" as="geometry" />
        </mxCell>
        <mxCell id="Af-LLxnNtBrIs2X7w0Ru-123" style="edgeStyle=orthogonalEdgeStyle;rounded=0;orthogonalLoop=1;jettySize=auto;html=1;entryX=0;entryY=0.5;entryDx=0;entryDy=0;entryPerimeter=0;" edge="1" parent="1" source="Af-LLxnNtBrIs2X7w0Ru-117" target="Af-LLxnNtBrIs2X7w0Ru-120">
          <mxGeometry relative="1" as="geometry">
            <Array as="points">
              <mxPoint x="-58.5" y="272" />
              <mxPoint x="-58.5" y="256" />
            </Array>
          </mxGeometry>
        </mxCell>
        <mxCell id="Af-LLxnNtBrIs2X7w0Ru-117" value="" style="whiteSpace=wrap;html=1;shape=mxgraph.basic.isocube;isoAngle=15;flipV=0;flipH=0;rotation=0;fillColor=#dae8fc;strokeColor=#6c8ebf;" vertex="1" parent="1">
          <mxGeometry x="-184" y="245" width="104" height="55" as="geometry" />
        </mxCell>
        <mxCell id="Af-LLxnNtBrIs2X7w0Ru-122" style="edgeStyle=orthogonalEdgeStyle;rounded=0;orthogonalLoop=1;jettySize=auto;html=1;entryX=0;entryY=0.5;entryDx=0;entryDy=0;entryPerimeter=0;" edge="1" parent="1" source="Af-LLxnNtBrIs2X7w0Ru-118" target="Af-LLxnNtBrIs2X7w0Ru-120">
          <mxGeometry relative="1" as="geometry" />
        </mxCell>
        <mxCell id="Af-LLxnNtBrIs2X7w0Ru-118" value="" style="whiteSpace=wrap;html=1;shape=mxgraph.basic.isocube;isoAngle=15;flipV=0;flipH=0;rotation=0;fillColor=#dae8fc;strokeColor=#6c8ebf;" vertex="1" parent="1">
          <mxGeometry x="-183" y="228" width="104" height="55" as="geometry" />
        </mxCell>
        <mxCell id="Af-LLxnNtBrIs2X7w0Ru-121" style="edgeStyle=orthogonalEdgeStyle;rounded=0;orthogonalLoop=1;jettySize=auto;html=1;" edge="1" parent="1" source="Af-LLxnNtBrIs2X7w0Ru-119" target="Af-LLxnNtBrIs2X7w0Ru-120">
          <mxGeometry relative="1" as="geometry" />
        </mxCell>
        <mxCell id="Af-LLxnNtBrIs2X7w0Ru-119" value="" style="whiteSpace=wrap;html=1;shape=mxgraph.basic.isocube;isoAngle=15;flipV=0;flipH=0;rotation=0;fillColor=#dae8fc;strokeColor=#6c8ebf;" vertex="1" parent="1">
          <mxGeometry x="-183" y="208" width="104" height="55" as="geometry" />
        </mxCell>
        <mxCell id="Af-LLxnNtBrIs2X7w0Ru-129" style="edgeStyle=orthogonalEdgeStyle;rounded=0;orthogonalLoop=1;jettySize=auto;html=1;entryX=0;entryY=0.5;entryDx=0;entryDy=0;" edge="1" parent="1" source="Af-LLxnNtBrIs2X7w0Ru-120" target="Af-LLxnNtBrIs2X7w0Ru-127">
          <mxGeometry relative="1" as="geometry" />
        </mxCell>
        <mxCell id="Af-LLxnNtBrIs2X7w0Ru-120" value="" style="whiteSpace=wrap;html=1;shape=mxgraph.basic.isocube;isoAngle=15;flipV=0;flipH=0;rotation=0;fillColor=#dae8fc;strokeColor=#6c8ebf;" vertex="1" parent="1">
          <mxGeometry x="-38.5" y="228" width="104" height="55" as="geometry" />
        </mxCell>
        <mxCell id="Af-LLxnNtBrIs2X7w0Ru-126" value="" style="shape=image;verticalLabelPosition=bottom;labelBackgroundColor=#ffffff;verticalAlign=top;aspect=fixed;imageAspect=0;image=data:image/png,iVBORw0KGgoAAAANSUhEUgAAALgAAAC9CAYAAAAA/rd0AAAgAElEQVR4AWS8V3PkaXrl1x9AN0uGlp4KxVKkIjZ0rwhpQ1dLikM7Mz3Ttrp8oRxQAAre20Q6AJmJ9N577713cFXdPcPVx/kp3jerZ8TVxROZyMpCAMjzf/7nOec872cOfQyTJsT5cQDVjp+zTRen6yb2l4ysvzTw7qGOV1+eM/drLS+/OGf+Wx1Lj/UsP9Ox9OxS1sqcge13Fo7WHCh33GgPPegUboxqH35LjIQnSy6YIx9Kk/XGSLqjxF0JgrYUDkOCK00EsyKFWZHApIhxpYhweRpEeeDhaNvJ0baP070wysM4qsMYp7shDre8HKw72F+1cbBm43DdzvGGg5MNO6pdBxeHTi4PXRiOvVydBDAc+zk/8HCyZWfrvYH3C1rW3mhYnVPx7pGCuS+PePz5Ps9+fcLrBxoWn+hYfq5n8dklqy8u2XxtYP+dhZNVB2dbbpQ7XlR7P5UHzb6Hi30vmh0Xp2sWdt/p2HyjlbUzfyG/3pm/ZOPVJSvPL1h8rOXdIw1rcwaOVh1cngSw6SJ4rWG8Nj8Ba4CILULClSblLZD2lom7i0RcBaKeAslAmWykSj5SJRcuyyrGatTSTRrZNrVMg0qqSjlZppiokE20ZeVTfYqZIdXCmEZlSrs+pdMc02kN6XcnjPq3jAeibj7VNaPBlGF/8qnG8uvJ6Ibp+JbryQ3XkynT8YTJaMR41Gc07DIadJn0R4y7QwbNPt1al1apTaPQppZrUUo1yMdqZCJVUuEyCX+RZKBAJiJ+XvFzVyhEc6SDSZK+GHFPnIgzSdAaw2cO4zOFCZgjhK0xItY4YXOMgDGC/yqM/yqI78qH3+TmM+t5BIMigHbfx9mmh2MBmPd6dhYMrD7Xs/DgkpdfaHn+uZrnv1Lx8ks1b75RMf9QzcJjDYtPL1h9aWR30cHxmoezbT+aAz+60wAmdRivMUbYniTqSBKxxwiagwRMQQKWKF5TAttlDL0yzPl+kPP9ABcHAXRHQXTHAS4O/TMQ7QbQ7IXRHobRHoXQHAZQHfhQHXhRHXhQ7rtR7Ds52bVxtG1BsWNDvefi8tCL8TSERRnDooxydRpEve/iYN3ExvI5Wwt6Nl7pWHqq4dW3Cp5/ecKrByoWn+tYfWti/Z2ZtYUr1l/r2F644uC9ldMNF+o9P5eHQS6Pgpwf+NHueznf93J1GEC370O95eR4xcTeOx3b8xdszp+z9lrD0gsF849Pef1AwcuvT3n5jUI2iINlG5dHfhy6CH5rlKAjRMgWJGKPEnMlSbizxF15oo4cEWeOmCdPMlAkG61QjNXJRypkQyUJ8oJ8rUIhVqYQLVGIFsnHyiQjLVLRFpl4FwHycn5EvTymVRvRavRpN7p0WgP6namsQXfCrMb0uyN6HXEBjOh3h4z6E8bDGyZDAXJR038H7kG/zaDfYtwbSIAP2wMGzQG9ep9OpU+z2P09yONVsrESmWiRXKxEMVmlnK5JgOejedKBFElfgoQ3SdSbJOKOE3LGCdpjhOxxwvYEEUeSmCMzK2eKiCNG0BYkaPPwmUHp5+LAi3LLJbvTwZKZ3Xd6tt7oWXmmkwAXHfzFr9S8+JWSl18qef2NkjffnfH2kZKFJ1revzCw+dbG/rKH4zUfyh0/lychTOoYXmOcgDmOzxjBpQtg03qwnXtx6MI4dFHM51F0iiDKHQ/KLTeqbQ/aPR+XB35Z2h0vmi0vmk0v2h2fvBAFoLSHPrTHs1Ifezk7dHO8a+dg28zRlo2zbRfn+35Miig2TRK7JoFZGebiyMPxlpnt1Qu23xnZeHXF0tML3nyn4tUDJQvigp0X/25nd8PB7oad7WUju8smDlatnGw6Ue16uTgQfzc/2j0Pqi0nmi0n+h0flztetFsuztatHK2Y2F82sLWoY+WNirfPj5h7eMizr4949uURL74+kQ1if9mK7siP6zJC0Bol4ggRtouKEHUmiDnTxJxZos4sMVeOhOjowRL5aJVSvEEhWpUA/wnks44uAF8iHxHvq5AMN0mFW2RiHQqpPpXckEZ5RKs2nIG70abT6NFtjOi1xvTbI1m91pBuqy+rJ4DaGTDuTZkMbpkMbpgOr5kOp0xHIyajPmPZvdsM+01GnT6jzoBRZ8i4M2LUHjNsjenVB7TLPer5NpVMg2KmQiFdppiuUM4IgFcpJspkQ3mS/jRJX5pkIE0ilCIeTBHzp4h4U4TdScKuFFFXhoSnQMpXJhXIk/CLCyFMxOnhs/MjD+odJ6frdg6XrewuGNl8c8n6Sx3LTy6Zf3DJ66/OefWlltdfa1n4TsPSk3PePVEx//iM+cdqFp/qWJkzsfnGzt6Sm9NNH7qTCNbzFAGzqDguXQizyoPu1Ile4cKoDmDWRjBqIujOAij3XJxtO1FuOVFvuxHAFqVad3L23o5iycrZih3lpltejIIKqfa9KA98KA68HO95ONh2sLNhZW/dxrEEog/DSQSLMoFVFcOoCKI9cHK0aWR75ZzNtwZWX+h59/icN99pePNQw9Kcgc0lGwdbbk72PZweejnatnO0aeNow8rxpo3TLQfKLQeqLQeKdSsnKyZO35vRrjnRig6/4US5YUexYeNkwyrvGGuLWhZeHvPy8REvHpzy4ptTXj44Y+m5joP39t8D3BIlIsEdIuyIEHHGibnSxFxZ4u48SQFu/6xbF6NVBC0RHfwnmiKe//++jtZIhZqkwy1ysQ7FZJ9qbkizNKRTG9Cpd+kKgNc78uteY0RfUJbWkJ6gFxL4PfqtAcPOkEnvmunglqkA+OCa6+GUm/GYm/GQm3Gf6ajLZNhm1OlJgE96I6b9Mdf9KZPehGFrJLt5u9ylUWxRLdYo5yuUcxVK2QrFVJlcrEjSnyXuFQDPkgrlSMcypGNZkpEM8UCaqDdNxJMm6smS8pXIhepkoyVSkRRxf4S4x8Nnmj2XBNXpqp2DRfOsc7/QsPxEy8LDc95+cyEBLh4F9954ZWR3wczGGx1LzzWyg88/umDxiYGVFxa2FxwoNn0YlXE8xtltNWhN4rgMoVd4UB/YUR86uTj1oVeFuFKHMaiCXJx60By6UO06UW27UItuvuHkdMnC4dsr9l/rOZg3crzikHW06uRo3cXRppvDTQ/7Gx52111srTrYEb/LugPFtlvSHv1RGL2gE3tuFJsW9lZ0bC5qWJkTv9M58wLc32kQv8fqKyPbS3aOBM8+9KE5DaI99aE+cnO2Z+dky8LxhpnjNbOkIQdLBvYWdBws6DlbtqJatcuLUrXpRL3jQrMn/p+D3TUDK/NKFubOePtUw9vHGuafaFl9eYX4XfTHAZyfOnjUESbsDBF2hom44sTcaRLenAR2NlgmH6pQjFQoxQSwS7/r3gLYAvC/B70Ae5V8tE46XCcTaZCNtigkO1SyPRrFAa1Kn3atS7veol1r06726dYFsEUNJLjFBSBq0B4y6o6Y9Ke/A7cA+M3omtvJlPvrCXfXI24nA67HPUbdHuPuYAbuwYTrwYRpX3TyIb1Gj061TbPcpFapUylVKebKFNJFcokCqXCWmC9F1Jsi4cuSDufIJmaVESAPZYj7M8S8GeLeHJlAhUKkQT5eJBtLkg6GSXm9fKbe8UgwCYDvvzOyNic+8DPefKPk1Vcq5r7QyCFz4YGO1edG9t7ZOF13sv/ezPobMYhdsvD4UgJ89aWF/WUxZIZw6tPEPBX5oYju4zbE0J8J3uxCse+W9EKvDMoubruMYNMHudL4uDz1oD1wo952oVh1sP/OzM5rI9uvDOzOmzhac3IoXl9xyjpYdXGw6mFvzcPuqpudFRd7aw4ONuwzOrHtRiUpg/13vHjrreDE4s6j5e1DtaQnbx9qePfkgrUXV+y8tXC04pB06fIwgFFchMogl6deNIdOznat8kI5XjNKCiIGyv13Bs6WbZytOuSFqZEXl1dy6/MjL6fbFnaWz1l7e86KuDs+n9XGGzMnay70JwGcuqjklVF3lKg3SsQTI+pJEPekSfkL5IJlCuEqxUiNYqRKMVom5c/LygSLEsyCsogSwM6GquRCNXKRGulomXSkQiZaJRdvUEy1qWQ71AodGuUWjXJTPjbL3RnIG3069R7tWodWtS0fRQcXAJ8KoA4mTPpjWdej8SeAT7mbTrgZj5gOB0x6AtxDrgcjWeK56Or9ZptOrUm72qBVbdCstyTAC7kSuVSBTDxLKpIh5ktKkAsgC8ALgOfiebKxHOlwlmQgI7t8JlCUf49KvEkpWSKfSJILhclKgG8JgHs4XbGx+0bP8mMVr746Ze6LE55/fsazXyp5/rmK119pWHp8wdYbAwfLZvaWTWwuGFiZ07P0bNa9d965UO4EMWsShBwFclHxQZRJ+XL4LHGuNEHUxx4Uhx40p36uNGEchjg+a5KAK4bLEsZ8GUR/5kez7+N0w83+koPdd+LiE0OsG+WBl7M9Dyc7Lk62XZxuuTnd9nCy7eF0y8vJppfTXQ+KfQ8K0T0F/VqzcbBoZOetjs1X56y/0spafCYGZZUclgXtEjPH6lM9G8/07L4ycrJoRbvpwqj0Y1YHsKhDsoyfwK7ac3K6aeFw1cThillekIo1B2frTlRbbjl8Xh750B17Ue5YOXh/webbc1bndKw8n9XWJ4DrToO4ruJE3CkSwRTJkHhMEvcniQsO6hNdqjTr3uEKxXCJQqhIyp+TABf8W3DxcqIpAZ4LV8kGRdXJhWtkYwWy0aJUKbLRKvlYnWKySSXTopprUcs3P1WLZrFDu9KlVWnTLDVpFBvysVvvIQZGAdRpXwC4z7jXY9IfcDMcczuacDMUwB8ybPckwH8Ct3j8CeCDVot+s0m/2aLfatNp92nU2lRKdYr5iuzkxXSZbDxPOiK6d4ZMJEcumpeVjeTIio4eypEP5ylFSlQTNRqpBrVMiUo6STEaIe/18Jlq042o4yULm3PnvPtOMQP3r054+otTnvxcIev55wpef33G0hM1ay81bC3o2Jw3sPJSz/sXgrcLAAbQncRxXWVJ+EqUUnUqYlgI5gnYkpguImgUAZTHfrSKgPzaY0kR8WTkABH0xHCZIpi0Yc6PQyi2/RyteTla9XO6HkJ9EOZSE+RC5Uej8KI+8aA5EtTGi+bAKwGl2fOhPQmgPQuiOfGh2nNzsmplb97A5qsL1ue0rL+8kHLd8gs1AuTLz89Zfa5j/bmB1ceXrH53zubjCw7mDKgWreiPnJiVPhznETz6BG5DCuuFuCMFUR+4Od2Z8XPR9Y9W7ZysCf49oygXB250R25UOxYO31+w9VrL6rML3j8VdcnWaxPHay50ihBuU5KYP0s6Jm7FeWa34jQxn6AoWdI+0cUFyAW4C+SDQmXIkwkWPsmEdcqJFqVYU3buTKAmAZ6P1Cgk8+TiAuQlstEyuWiVguj2qdYM5Fnx2KCSqUugN0stGkUB+hrVXFU+tittBi0B3B7TfpdxT/DsNuNu9xPox4y7YwatAZ1ah3Gn/991cKGqCNrSld/jejDgejhi0J/Sbg0kyOvVFg1R5RaVfO0TZZkBOxcuyMFTDJ+5UI5COE85WqKeqNDONOjmWrTzZRrZNNVYhILXJQDuQ7nhYX/ByMpTFW++OWbui2Pmfi06+ClPfylAfsqTX5zy7PNT5r5U8PrbM6k8CPVk6bmB5ZcmtpZdnO2HMYnB0l4gE6pQSdZppGsUo0XC7hQWQwit0otS4Uar9EmAe80pos4cqaDgUykCtjhOQxSTJsLlSRjNYRDNQQjtURS9MopFH8aiC2E8D2LUBjBqxB0jjFkdxaQKc6UIYtLEMJ8n0J+F0B54ONsUA7SJnXk9m290bLwRqo+R1Vd61l6L10R3t7Dz2iy798p3Wt4/0LD68Jzt5wYUazYuD3zYNDG8VxkC5hweYwabALnCj2rfIYfP/fcOdhat7CyYOVi2crbhlNq47tCLatvE4bKGjZdqlh+fs/TonPePdWy/saFY93GliOExCTCLrlUglyiRi5fIRAokAjni3swnHl4gFyrJO2MpWqYoZUGhptQoJesUU3UKccG3K2REFw/XJQcvpcoUEmXygrfLDl6jGG9QTraoCLqSblFONWRVM00p41WzTSrZOuVsjWq+QbPcoVPvMxDDY6/DsNth1O1I0Ao6Mu6OGHWE+jKg2+wxGQ25noxmNR5xPRrIuh0PuZ+M+XA94cP1NTfjO8aDKYPeiH5/SH8wpNcb0Gy0KReqM9oSzZEJCVzlyYaL5MNFCuES4m9QS1To5pqMyl365RqtXJZaIk7O7+Ez7XYY5bqPnXkjS09UvPn6mFdfnvD6K4Wsl18qeP4rBU9+qeDRL854/AslTz9X8+orHfPfGVl4amLpjZmtTRdKZRiLKUPYKwahGpVog16uTT1VJR5IYbcEONc6UKpsaNVujOeCqycJGrOfpLA0EXuSgEUMqDHs+iiWizDm84gswdXdhggufUTyVcFZ3YYEPmOaoCWPz5jFpUvi0Wfw6DJYVRFJD7T7Ts6EErJmZXfZzNY7C1vvbGzN29h95+Bw2cnxspPDdza2X13x/skF89+qefmVipdfq1mfM3G84kF3GJGSo1ufwq0Xg3MU45nQwe2crFvZW3Ky9soo6cfm69lAfLHnRyf0/C0TB0vie6kkuBe/EwA3sPvWiXozjEmRkj93xJGb0ZFwiVysSj5elbQi7p+BXHBuMUxWkg1q6Rb1VIt6ukk106CUqZLPlMmmymSS4hYv+LYAfFO+X3Dzn4ZQ8VzQmWqyTSXZls9F968KsCdblESlWpTSTcrZFtV8m0apR7M6pN3q0e10GQiKIqiKpCvicci4L4ygMaPRhLsP19x9nHJ7P+H2dszd7Zj72zHf30/54X7Kj3dTfry94cfp93yc3nN3c8vN3Q3T+ymjmzGdQY9KpU42XSAZzZIK50mLLh6tkI/WKESqFMJlSrEynXyTaWPIUHD7YoFaJk0mFOSz8/0o6u0g+0tWVl6cs/BQycIDFQsP1Mw/EKaOmrkvlTz79ayef6HixVfnzD8wsPjExNKcmZV3VnbFMKeKYDVniHhL5MM1qrEmvXybZkZM8Xk8zihXBi/nWjfnao/k5PaLOB59Gr8pJuXEgCVBwJLEb0nhMSfwmJJ4zCk8ljReSxKvMYrnagZyMbj6TCnCtjxxV4WYs0rIWsRvzOHRJbGpI1wpvOhPPJwfzvj40bqd3fdWdpZEt3Wwt+jgYMnB4aKd/Xkzm3NiDtHy9hsxYJ/x7NdnLHwnqI0AqEPKlEL7vjj0yovn4tCDetfBybq4YKy8fyGMo3PW5vQcLFnRbHtk91dtmzlc1rL5SisvoMWHWpYf6dh5Y0W54efqNCYvzpAtQ9yTJS1uw8KsSVRlZSJF0sE8uXCRcqJGPdOaOZbpBtV0jUqmKiW2Qq5MMScUiRqlbJNyuk1Z0JBknVK8TjE2kxZnAG9RSXRkleMdyvHWJ6A3JX0pJOoUxF0h3aCSa0mAC2NoBvDO7wD+O549HHM9njAV7ub1LT/8cM+PP9zx/ccbPt5P+Xg3keD+8cM1v/lww28/3PBvd7f85uYj39/c8eH2lvv7G+4+XnN9P2E47lNvNCjkS6TjOSkVpkJ5MlLbr0qACzWpHK/SKbSYNkdMmh0GtaoEeTEe47Pzwxiq3YDUYtekq6dl+cmF1MCFDr74aCajvX6g5vUDLfOPLnn31MD750ZW50ysvbWwtWLnaM/LuTqCTQDOXZQcUAC8m23RzAhbtkTIm8JqDqK/8HKh9mIQg5s2ivMyiVsfw3MVw29OELSmCdkzhJxZIu4cMW+BuL9I1JsjaIvjMwuAh3DqhFOaIGzPk/TUSLirROxlAuas5MrOiwhWbQCLJsCV0of2yC017P0V0cnt7Cza2VmwsTtvYeeNie1XetafX0qAz3+rYu7LM558fsrzz5VyyF4QXVeA9+U52/M6jlasUpNX73pRbLrYeHvF8guhKGl4/+yCnXkTijXXTM8X8uL7S7aFivL8nEXhAj/WsvXaiGLdjeEkhOMyhrjAhbkjDI58tEAlVaOendnugmIUkxXJk+v5Fk2hgAjOnKlSzZYp58uUixWq5Tq1cotasUMt36GaETSkSikhZMSfpMQGpViLcrxLOd6jFOtTirWlMyrd0WiNnNDYEzUJcNHB29UhvdY13c6AXrfHsDeQ6sjdcML9aML9WKgo17IT39/f82+/+ch/+80Hfvv9LT/eX/OD7NhTfnt3zW/vb/i3+xt+e3fDj9d3fH9zy8e7az58uOHD9zfcf5gymQ5otxuUiyVyyRyZiOjgOXKR2UAtLlYhlVaTVbqlFtetITeC97fbDOsNmvkCn2kOIyh3A+yv2FkXxsdLHetzRllCMlt5/lPuRMfyCz1rb0xsvbOy/c7GzpKN/VUHRztuOTheqsPYrhIEnXmyAUFRWrRSDepJcbWViHozOMwR9OdeLoTpo/Jj0kSxXyTwGJL4jMIUShOyZRG36qgnT0LkE8IV8vGatJzTgRwxdwq/JYrHKDIJMfnepLdK3F0hbCsQtGTwm8T3FFQmiP1CxAZ8nB+5ONm0sfvexNaimY15M2uvr1h7qWPtxQVrz7WsPp+BeOGhhpdfK3n6awWP5aAt5pBjnv7ykOe/PuLtt2esv9Rz9N6JZieIeifA3rJFgvy9+B7Pztl4pedwyYJy04ly08rpqoHt+XOWnwv1Rsm7J2q23hpQbDgwnARwXETwm0W0YWZN5yI5qukqzXyTRq4uHT7h9FWzNer5hjRJ2gXxQdap56tUCwLcVRq1hhzYGmUBcMGvRZevUElVKMVnHbwYa1CMtilGOxQjPYqRPoVIm4K49Qtwi4yLoEgJwcFbNMt9hu0bJoOPMosyHg4R8uDdeMrH8TUfx1M+TKaSU9/f3vDh/o7/9sM9/8/3d/zbh1t+c3fNj7dTfvOpfryZ8OP1mB+mEz5Mb/gwnfLhZsLH+wnff5zy8cOEm2mfXkdcrAWKmRzFeJFCvEAxXqKUqFJJ1qimqjQyNXrlFtNWn9vegNten2tBoWpNPlPtB1DseDlYs7O1aGJrwczeOwe7C3a2561svDHNQPDGwMa8iZ1lGwfrAijilu9BfejnQhFCpw5jPI9gN8QJ2MTEX6EcadFI1KnFKlLSEo6c0xhGr/FyrnBzofBhELz9PIHPlMFvzhKwZAnasoSdGWIeEbYpUIhXJMds5MQH3aCUEJZslqgrSdSVIuktkgk0SPvrxF1lmdkI25L4TVHcV6Iz+rlSelDt2zlYNbKxoGPtrY6VV3rZcZeeaVl+qmLlmYrV51rZYd891vLqWxXPvpgB/OE/H/PtP+zz9d/v8s0/7PLk50eIjr4zb0e5EUK7G0ax5eJgxcrmG4P8Hqsvztl5a+D4vRXFmnA8hdp0zvyTM94+VvDumYrtdwZptImcjAC4zxhH/OxxT5JcOEs1VfkE8IYEeOmTnV0Rg1+ujgB4SwC8UKVWrFCrVGmK7lVvUy8LrbtJOVWTABcXi6A3YiAtRBvkhbMZapMLdskFe+RCrZkxJDT0TwAvCumt0KVbHzPtf+Bu+htupnfcTK/5cH3D94KKTG/4YXLNx4kA60QaPve301mXvhNd+vp3wBYAF+D+fjLiw2jA/XDA3fiau/GE++mYj7djfrgf88PdmPtpn2G3QbNapFYoUs9WqaUrEtQiTCbwIC5+8TfoV5tMWl1uuj0J8FthMLX6fKba86HY8UhrW4BcGCmn614ZnDpYcbC7JAYyI5vvrtheNrO/7uR424v2OMiVWgx/cWz6JDZ9ApsuJnVtvzlNwiOkrBb1WJ1atEIhUCTqTOMyhDGovZyfuNGeeLlQBDFqYvisWXyWLH5rBr8tTdCRIubOkAnmKScq8pfplruMhAMmJKRUhVzkJ4lMmB4t2YEE0EUuIepIEbTE8BhD2C58MiJwumVie1HH+1dalua0LL64YFHQhWdqlgTAn4shUOjUF9IEEsGrp18qePKLM777p2O+/vt9vvjbHb78u10e/OMhc1+IC8LE4ZJQSYTa40Ox7WRv0cTq3DnLT9WsvThnd/6KwyUzh4tGVl9qefnwlNePTll8oWJnyYhq1y3VH/t5BK8hTsiSIu5KkQ1mKcXLVNN1SVUKiQp5oYQkK+RTs2pkazRyoqP/BPAazXpTdvBasUVZDJ/JmqQogu6UE4KHi4BWnWywQcbfJONvkfG3ZZPIhkQysTJLKsbrlAXXL/XpN6fcDL/n/ubfuL/5yIebO364vec3N/f85vqWH6dTvhfKyGTI3XTI7c2QH67H/OZmMisBeAH0uyk/3Ezk+25HPa4HPW7HN9yOptyNx3ycjvjhZsRvxDA6HTDtteg1qnQqgoY0aeUbtHIC1G26pS69iqg2/XqTUavFpNVm2u5x3R5KyvKZWkQ+d4URMSv1ng/Nvl++drrplAGjnWUTW0siv2HhcNPN6V4AozaK25zCZ8sScOTwmtM49TGZiPNczXhxxlenFqlRFfkIf4GYI433KopZE0B35uP8NMC5IoReHZ0NkeYUXksKvy1JUCQQXWmp85biFRrZJt1Sm2GjTbfSpJ4TnFK4dzMHrxhrSpDnQk2SnuInNSaG+yqIVevl/NjO0foV628vWHyhYeGphoXnWt690LL0QsPKSy0bry/YequT6cHF5xe8eqji6VcKnv7yDNHBv/nZAV/+3R5f/d0+3/7DofQH5r8VA6jQuJ1oDmaD7P6yidUXIg6rZOmRuGgu2H6jZ+eNmF+UPPtWhK5OWHqpkXTpbMeN7iSARRXGfRknYBLJuDRpX5ac0LuFohIukgkXSUdKZGJlMvEyqXiJcqJMNVWWHHxGUerUq02q5SblXPOTbDjr2mKwFFWI1GVuQ+jkKV+NtK9O2tckE6gjAC7t/VidUrJJNdehWR5IgIsOfjv5kfvrj3y8uecHAe6bO357IwD+qStPBtxNe9xd9/k4HfK9oCHXY9m1Jbjvr/n+VkQGXV8AACAASURBVFj6Q2nni4DW9eiW6+E1d4MxH0cjfpyM+O2NoC8DbgddRq0Gg1qDQaUluXan2KJf7jKs9Rk2+gwaHXoNYRo1GDSajOptxo0eo3qfz0Q8VaTuZlHVWQT0QqT0Dj0odp0crlvZWTFLcAsL/GTHh+oojM2QJOTKygEw5i3KwVDkTSwaP1ZNEK8hQdReoOAvUvQXyLpzJBxpgmYhscWxXsQxauPoNXEM5wlcpjhuSwyvNY7fliDomNEP4dSJD7iSEFlnQVWysoqJDJlwiqRfxCmz0soWgZuEALcjI7u3SDC6DWGsWj8Xx06ONsysv9XJri1Sg/PPZgBfeXXO5rxeZuCFSytShoK+vH2i5fm3Zzz55TEP//lIgvqbnx3x7c9OePCPxzz6l1Oe/0rJ/AMxeOo52rjicM3IzoKO989UvP32lLffnEqQrz7TsvJExesHpzwRXsMjBYuvLthZNstIgWg0huMgdm0c/1WeqC1Lwpkh6crKuKy4m8W8ORLBIqlIhVSsQlJkp2MVeYcTKko1X5NuYLlQlypKLlklE62Q+dSV80ITD/8e3Gl/dQZwf11271xYJBPFxSD08Da1rAhDDWhXRxLg4+6d5OA3ozvuJrd8mAh6IsB9zQ+TCd9Ph3y8HvBB1G2f76/F1yM+XI+4vx5yfzPiwyep8PZmxPX1gMlkyHhwx6R/zU1vwn1/zA/DEb8dj/lhNOKu35ND46jeYlBp0is2JMiHtR6T1ohpZyxTi9IZbdXp1er0yg16paZUVj7THQQRWu3FXoDL/SCXh360R05pXpxsiyScmZ0VEzurFg4E7z4Ic36WwmkWSa4McV+euDcvp3+rRqT3nBhOXFjVQbxXKVLONFlXhpQjTdyeJmIV4MviNeVxXOWw6LOY9Rlc5hhuSxSfLU7AIaz+GcATngxpX55csCg5aSYSJheNkQnHiPtE2i5MyB4h7BB3jbS80PzmON6rCB5DWKottvMgulOx7GBjc+GKpRc6Fp/pefNEdHE1q68v2Fm84ljEYdftHKyI9wkJVM+bx1qe/vJEAvy7fzriu3865dE/K3n0Lwoe/rMYPE948WsFC4+UbL5TsrV4zsZrLYtPznj99TGvvzpm4cEZi4/OWPj2hBdfH/H4mxPmHilZfHXJ9pKJwzUbii0n5/s+mV33GfJELVni9gxRe5qwLYUIrIm5RKhJqUiVZKxGQuZRqlQSdTmjCDOmXGxIcAsdPBkpEvcXiMsEYoVMYGbdC/t+1r0rpHwiL1QjFxJDZ1Pq4LV0h0auT0ukDatjuvWJBPioc8uof8+4L9KEE26HU74fCXBPZQf/UdKLIT/cD/nhw4iPNyPuBV0R4atJn+mkz/V0wPXNkOvbkazp9Zhh755R+5pJa8xNa8iHzoAf+gO+Hwy46wogtxnWGvTLdTr5uqQqojtft8dc9yaMu30G7Sa9Vo1utUqnWKOdr1FPV/lMZKvVItMsoqk7Isvt4WzHgeJTne7YOd62cbRj52TfjeYsxNVliqAjS0Yk3Dx5GeX0XcUxKr2oDxwo90VaMIjlIk1Q2M+2FHHx4XjExSC2UnIE7Bl8QtsWGrcpKXMoHluUgCNOxCWGrE8xSV+WhD8zq4DIA0eJ+WNEvBFCrghBR4SAPSrlQwlso6AlEZwGYSKFcOiDWC+CGISDuudg771ZOpiLTy95P3fB+ptLtt+JZQaLjAwLi/14zc7+soWtBSNCOn37QMQXZgrK458f8eTnxzz7XMGLX4nXFbz86pT5h2esvlbzfk7FwlMFrx4cSzDPfS2WKM549Z2Sl9+eMSeeP1Iy/1QrQ1fb80Jft3K65kKzG8CgSGA7z+PTZQkaMvivMlLr9wnqJsL84m4VFssBZTl8N5JNGukG9UyNWrZCNVeWsdN8SgC8RMRXJOQpEvNXSASrZEKzbIrMqoRm3V10eWEKCb27mu9KStKpCVBfM2jdMGhd029O6DfG9Bpjhs0Jo+aYYWPIuDnkuiM67Zj74ZgP4zHfX0/5zd0NHycj7kcDboc9roddruVjn+uxcDiHTCdD6XaO21OG9SGDSp9xZcBNbch9c8R9q8+0LuhIhXa+RD1VoZYoU0tVaRWaDGo9xi3hnopor0g8NmmXPw3dGXEnKosh08XZjksqAKcik7LulqtnR+tOTrZcKH4KLh14UJ340GkjWAVHdOXIeXKkHBlC5iSOizAXxyIAZeVwy87pvp8LpXg9hl9o1Q5BZ0rEA2Wivjwhl9C6k4RtCcLWOB5bBL8jRlhssIiu7c/KDEsmkCMhsr8ixO5PEPHFCXliBJwRAp/AHbDHCFjFcoVwNsPYdUGslwFZNp240AJcqWc6+PG6lY15PUvPRR5c0BKT1LNPRbxWxHPXHbKTHyyb2Fu8Yntez/vnKhYenvLyq2MpEb749TGvv1bJbPy7hxoWHqp591glefziMxVvHit4+eCEF9+c8PybU148UDL3nZqXD7WS9ojBdlnIknM6tl5fsTdvkU6qcivAxVGcK2UWhzqNW5PGdZHGpU/iMqVwi9nEnSIeyJKLFCnHyzRTLZoC4OkKtUyRarZIJVuiIAFeIeyvEPCUCflLxIIV0uGatO6lHCid0gq5VJV8tkapIKKrPVr1Eb32NaPuHePuLcP2FJER71Zniwqd8pB2cUBTXAyFDr1Kbwb29ojr3pi70VSqK9+PR3wQKsmgz22/x01fDJVCOxcZlMEscdgfMGoOGVR79IpdBoUe4+KQ68qI62qPYalOO5enmsxSFPZ8qEAhUqCSrNDKt+hX+wzltlAPkZVpFVtSWamlxTBdmQFcse3iRHSudTeHK252F53sLTs4XBFyoBflfgDNcYhLZUzSCbetRMxVkLQjbI7jvgxxdeZBuWtlf93IzqqJ/U0nioMgxrMQzguxR5ch7CoR81WI+kQ2JUfYmSbiSBB1RAh5/ES8QRL+MNlQlHwkRiESJxeOkQqFiAcDRP0+wl4PIY+boGtWIaeHkMNLwObBa3LhNjhw6GxYL2dl09mw6exYL+xcqSyoDwwcrKrZnD/l4L2G041LlNsG1Lsm1LtGFJs6jla1HLxXc7CsYn9Zyeb8Catzhyw+3Wfh0T7vHh+y8kIpQ1vCsVx5IS6CC5ZFjv6FlsXnIuut4vVD0bEVvPhOyevHWhae6yTtef9SJ7u3APjGnJ6tV1fsLVg5WXWj3gtzeZLEokhgV8axaeLYLuLY9XEcpgReW5KwW0RFC2TDZSrxBjVBUYQBlCpRThUpJktyDSwRqhDx1wh5KgS8eSKBIqnwpyRhvE4pUZeBuGKuTqkoBtMOTbEA0RzT7wiA3zLqiA4+kRlxsYXTKol1sw6ldItiUoS1GnIzp1Xu0q31ZdBq0hPJwmu+n0z5fiw6+4hbEZvtifDVpxr0mQxEGrFPv9GnVxGcuUw3X2SQLzMqVRiVSvQKGZqZKOV4mHwoRi4YJReKUIrFqaezdIpF+tUyvXJJupftQpF2vkgjm6OSTAuAC3fPycmGSwL84L2H7XmXXFzYWxLA96E5FEsJCSy6LB5rhbBXKBUlST28+ghmpQftvo3jDRM77w1siDWtFTN7G3aZ8DMqwjguU/itBUKuMmF3mbCrQMQptlTCpIN6MvFjcskTiqlTKhkFtewZtayCSvqUQuqQXHKfTHyXVHSHVHibVHj3d5UM7hL37RJ1bxF2bhCwreM1r+G1rOG3rhFwrBF0buC3beC8WsGkWeDy5CUGxTxG9RJm7Xss5+L1ZfRnC1wcv+b86BUXoo5fozp4hWJ3jqPNZxxuPON46yVn+wucbu+xu3jJ+muTTFUKcK++umT1tUEOqaJTv32i5s1TLYsvdXIVbn1B5OivWHttkB187cWlBLlwUg+XHSi2xE5rFMNxBNNpBJMyikk9W+2z6eO4TEmpXIm/X9xXJh+syXy4cPTELbkg9hsjRTmMxvxlot4ZwP3uDBF/QQ6oeQFuEawS6cFcg2qxRa3SpiEWHxpiRW3MoDtl2Ln+XfcWixAiRisc1EKiQTpS+5Qtr1PKtGSuvFnu0REgb4/kWtv34xvJ0e8HY256Q6advkwSijThsNNh0GnLuGy31qFTCdEuGegU1XSLanpFDb2SinZRQSN3TCV1RCF2RD56KKuUOKaWVtDKq+iUNHRLGtoFFZ2ihk7pnHZJQyuv5DONWNrd9cx2Ind8ct1MgHx/2cXhqhvlrh+DMorDkMZvzxMVQ0mkTiZYJe7I4dZHMSjcqPYsHG2a2F29YlOA/L1Rgvxk04X2IIBRFcMhQlDmPD5rjoAtR9gVIxfbotv63+j3/4JB/y8Y9v9S1mjwlwxFyddm/9bv/zn93p99KvH8U3X/nH7nz+l1/kxWt/1ndFp/+vtq/yndzp/x0+vt5p/QrP8Rzbp4/BNa9T/99PyPadb+mEb1j6lX/+hTzZ7XKv+Ravk/Ui3NHmvVP6KY/Sv0Z8/ZmhfbQXrez12y/skQE6bY2psr3r/Ssfxaz9qCke33NraWLKy/NbL++koCW3bwlwZ2BcCXxKkAXs52xLAflPb9lSLMlWoGcstFHJsuifNK5HJyBB0FUt4KuUCVvOjMIkEYKpHw54l4coTdBcLC3XWXCXjSxAIF0iKolKxRSguHsi4jqbVik3qlRaPWoS0WHcQtX+xktsSAOaRV6VErtKhmhdlUJxurSYBnhZ6eEFq7WJzo0SyLFTgRl50iFJe7/jV3vQk3YklC7HK2+gyaM0mvLcyoao1GuUSrEmPQ/VtGg/8F8bn/+/oLRgOBi79g0PtU3T9n0Ptz+dqo/5f8uxr8T5/+/18wHvwZn+kVAXlkgYim6k6iXBxHUO/7JeDV+27Ev9t1UalNx+TqUFGaDWJIiTkLuHRRdMculHtWTrYtHGyY2V0TS7uiLJyIHUuxZa+IYNYmsF+KoyKSuI0pgk4PhdRL+r2/pFb+J6r5x9TyczSKr2iVXtMuv6ZZekWjNEet9IJq4QXV/Atq+dljNfeCcuYFxdRz8vGn5GKPyUYekwk/IRV6QjL4kETwAanQQ7LRR+TiT8hGH5MMfkfM+zUBx1f4rF/gNv8Kh/Fz7IZfYNX9K5bLf8V8/i8Ytf+MQf2PXJz9DM3J/43y8G85O/ivaI7/K9ar/4Nq+Y8wX/ySzYUjuVv5fk7P6qsr1t8Ypeu7uWCeucPLZnZEJl0EspZmQ66w+X8Ct9hY2p+3cLhk53hV3Ek9CD/i/FAsbwcxnEVkgzBrYgiQW3UJbFcpnCJeK6iirzJbbghV5QZV1JOTOZ6gPUfIUSTiLhH1izWvItl4hXy6RiFbo5itUs4Ji79OrVSXOexWXXTxHu1mj3a9R7PSleAuZWoy9JWPVyTAc3Ghsc9W32r5Po2iuBDGdGtT+s0bRp07qYrMAlBiGBVcWxhGXbnN06xUqRZLVPJpGmULw/5/ptf6P2mWv6aWe0Y184xy+vdVTD0jn3hGLv6MbFR8jo9mn2n0MYXYYwrRR7JKiW9plv8vRoP/kcnof+Az62UEy3kU63kS20UG60UKoyaMXunnSuXFdhnEa4nIdf2EP0UmkiEfFxZ6iZA9h+0iwvmRE+WeDcWunZMdu1zSPdi0s79pl2ebaE8D6JUC4DGpf9su4zj0CfwOB/n0E/rd/5lcYpV0yEQu5KEU9VGNB6glglSTQcpJP4Wkl3zcSz7mJR/1kYt4yQTdJL1Ook47IauVoNlCwCTKTsBsx2e04DWa8JtNhO0WIg4bYZsNn9GE40KHUXnO5ZEa1a6Ck41DDlb22FveYefdNhtvNlmZW2Xx6TKvH79j7sE8T796w5Mv3jD37St2Vr6ilP9jTBf/yPrbHd6JBQbBxV8IemKQXXp7ycy+2CYSefQtOwdbAuDCzdTJHMum6NwC3G/NHC5YZaLxYMnO3rJYtxNNw4P2yI9eEcaoimLWivhwFIs4jcAQw3IVJyzitd6S3EkUGzxpQUs8+RnAHVlCzrw8RyURzJEWyw7CBc1UyGdnVcpXqBaq1Es1mtWmtPiFzd+sd2hW29RLwjCqUxDOabzySb2pf9LJ+zQLI1rFWXXKY7qVCX0B8vo1g+qQYXXAsDaQKsmoIY6P6NNrtGlVxUVVplJI0SgbGA7+mnbt15QSKjJ+GwmXmYjdRMhmJmSzELBa8ZqteIwW3AYjLr1BlltvwGMw4NHr8eh1hKwnFJO/YND9C9q1/8JnYl3MZxWSXR6fpYjXnMMlzivRh7Hrg7jFASv2KFGXOHwlRtIfJxNMyk1mtynFlTqI+lBIg3a5b6k89HAm1soOfLIuVEGuRJ77MoZdF8ehE11cDE0JfA4HufQTep3/RDp6TNwrFkVz5ANFyqGSdEArsapUC4qSXwqXbXbITVrou64MIWsC31UU92UE13kEt7C7dQm8BpGvTuDRCxUnRtCSIChiuMYErssoFlUQ/YkPsXR9sm5hb1HPxmth04tTA5S8FZvvXxzw+Jc7fPvzTb7+l02+/MdNfv2zTb751zWWXj4hn/lTrrQ/Y+X1FvMigSmWP57rWXl5xcaCib0Vq1SiTvc8nO65ON61sbsiTh8wsv3GOKMlby0cL9g4fmeXefTdBQtb82ZE4lGs5KkPfBLgFjFsXopYRAyrIYrZGMFsihByCPm1QFoOnRmy4TipYISEP0jcJypEMhAmEwmRi0fIp2MUcjEK+VmVi3Ea5QTtaopOPUOr8VPlaNWy1MtpKvkkpUycYipBMRWnkk7RzOXplsr0K1V6ZWGjl39f5QrdUoluqUi3VKBXqdCvioTfkGFLrLP16TXF8kSTVq1As3LFcPg3tKqPyEfsxBwx/FcBnOdiycSPRS3CckGulEF5ho9eLKyfetGfejAo/j915sah05KN/oJu66/Ixxb5TLhjcV+JmLdMxF0m5CzgswmunMRtiuG1xAlY4wRtMUK26KezOmL4LAksl1EuToXKMgO3RpwepQhxcRbh4iw6U12uYjgsCdzWtLyQ/Ka0TA46DSl8dhfZ1FMJ8Gz0hKQ3QloA3F/4HcCr8RpVmRwT1vzsFKdssChPyxKhJK8hgkMbwKb2YVMFcKqDEugefVzmOnzGKEFzXAI8INxSXVSaUFdC8jzyotlzotiwsL90xeabC1Ze/CQJHvLsV3s8+vkOX//LugT41/8inu/x3S+3WX71VAJcr/kZyy+3ePtIdHAjK3NXMnG5sySOmHCh2vehOfGjPvGiPHLKuK5IIB4vOzhecnC65ESx5ORk0TED+Fszm68MMvdzJDbzD0RQTESKU3iMacSKn9uawG6LYnNECLpSxLxZMhEPpbSKam6XanaHSmZTVjmzgahKdoNKfoNqaYtqZYtadYtabYtWY4dea49hZ59h94Bed59eZ59u54Bu+4BOc59WbY9GZZdGeVatyj692iGj1imjtoJR45R+7Zhe9YiurEM6lYPfVbeqolvx0q92JMAncjNfLCyPGPUatOomRsO/oV0TdMNO1B7FdenBdOZEd+Tg4sCFdt+NWpy4sDcr9b5Tns6gOXahPXVxLkrhxnqhJR35Oe3G3xDz7PNZWuQcojXSoRoJX1WCPOAQIM/KfInPksEnMiJGsZgQlQ5hwBTDqYvJ4x60x+JYBBvqQ5dMFerVMYznYv8yg/kyi9OexOtOE/TkiHjyRJ156WR6TBl8DjfZ9DN63b8iFzsl5YtK1zIf+PcAryWFTS/2DYUTV5TvEWEqAV77uTjcx83VsQvLqQebwo9DLa7+IO5LcYxXlKApJksoPg6RDT/2cLFnR71j52xLuJdmCXDRwZeenvHm22PZvZ9+vsfjX+zyxT+v8dW/bvHtL/f57vNjHn+5z/s3z8ln/xSd5u95N7fBG3HkxEsz669FlNjO4ZqLs10f58dBLlUhLlUBLpQipOZHsxNCvRlAte5DtepB+d6NYtnF0aKd3bdmNl4Z2Fq2cLTlQnso8uwJvEaRsswTduUJejN4fUncwhNwpYn7g1QLj+RwPh79B8ajP/jvSrz2qcb/gfHv6g+YjP+A6UTUH8qaTP6Af1fj2XvG4z/gpxL/ZzL+Q6aiJn8on89em71XPP/9z/AfGA3/hGHn7+lWEpKiTLpTbkc33E9vuZ0Ivm9hPPwbOvUnFGIOIvYIjnOxy2pFvWvhTESN160cr5o5WrdwsmnhdNuKYs/OmaDHJy40Z140Kh8W3bkEeKvx1wSdu3yWDYuzNSqkAyUS3jxROXkLKa8kdWtxFp44LkzkO0LCaLCI231UHuQjnMvzAyFtWTnbcsqjzMwqscoljonI4tKnCYnYq8hQ+PIkfDl5CpGwnT3GBH6rjWz8Ed32X5EMnRF1iyMSZrdbcSSCWHVr55u0cg35vBIrUAikiFpiuLVBbIoA5lMfphMXV4d29Hs2dLsO9AduTKd+7GqhwYs/VgirOoBRIY5c88ljJI5X7JyuCVPHxt6yiNBesvhKzZvnCl48POHJ10c8+uKQh58f8uBf93n0+RHPvhBW+wmvH+6xs/ycUv5PMV/+A1vzu6y+uGJ33srBOzsnq+IAIzfaPS+Xx+J26pMLF1cqH4YzMdQHpXwqDg5Srlo4e29B8V6YPWJvVMf7OY08seBozY5mP4BZkyJgqZD0t8iLk6mSbamE5OJlmS0pxn20ar9g0PvPtGqPaZQ3qZe2qRQ3KBXeU8wvUi4tUy0vU68u02os020t0++sMOquMx1scTPc5Wa0w2S4zWiwyaCzTq+1Tqe+Rru2Tru2Qae2Rae+Tb+xy6i1z7hzwLhzyLCxT7e6Tau0Qb2wRk3WOs3SOp3aKwbd/8Kw97/TKVvplhtMGsKCn/BhMOVu0KHftjIe/a+060/IxRz4zSEMpxbU21eoNi0o1z7FjdfFERsWjtfEEXr22TmYQsA4EfQlhFEllmAuyET+lWbtr/FaNvlMLAdnw1VSgTJxX2HmNvprxP01Ev4qCX+ZhE9QgryMr87OGEzITm5R+7k8cskuKE56EsEtszKO80LQkAxidzFkE2ZORkZlI86UtNS9JrGRE8ZnNpONfUe3/Z/+X67eqsvS88rSzZ9w7qsLLMt2n4szelTbMpe7XRYrmSEiI4MZd8BmZmZmZobgSJBc3fWn5hnz3SlXdV98I9OypIwIrf1+611rzmeiljehlKyhkuqime8Jpt55h7qCK1z3znHWpPy2jVaygqyngJAhC582A78ujaAhiYAhBp82Dq86BS+nP/zrxiwCpgw8ugQcqqg4CURB70WEzp0+VOVWQECMJBtObK1asL5owvKcEYszBiy8MGDhmQmLXMm/JK5uymM8WDHCIF3HePB3iPnuQr2nhWw9BD3HfJIkLCcp2BUZwSv06GmZyyJoySFkyyFo44WbRZ6DU52E9SQMsyQI434Qun0KtWiEdkG5GxCSAaeaPSilv2foFOi+eY+z9jucda6FjFa4cppZ3Jzfw/ubX+N0YMW408K408eg3Ua3VUG3VUC/W8KwX8ZkWML5uIjLsyJuLsp4f1XDv9208e/vevj3D3387+97+Ou7Dt5dNsX47nxYxWmvikm3htNuC6e9Fq76Hbwd9fBuzD68h2uafNtNjBo1DGpV9GoV9Os1DBsVnHX9eHt5H9+/+xWuBn5cDSb4MLnG/7p4j3+/+oD/dX2O91fTE/zqjNORBHLhEnzGCGzyAKzSCMzUCB2GBQpPJwlBJ+HvYzBLKW9gq1mams2tRaR8bnSrD3B5+nNkQjLcahSGaBbHqHOVmx2K5UGrdA4+bFvaHD1xxVsYgRe7Vpb2sJ4Q/yQ8dLHzopYQ+De3LoeQpYI41YHelvAYZgNN5EIN5MgnDNGFQ41IHnFPHtlQAN3aLG6uPkE1p0chXkIpSZIR7Vp9nHcmuCGTo0trErFldeQC/BBl4Van4VKl4dWlRYsStqYQsmQQMuXg19MHmYBbE4NdyR+GB8odB042SJN14WCJsCJiG2gfI1vRIbTZmytmUeArb0xYnjWJNfvyCwvWX3Id78bBkg/Ha34x97aqdjAZ/j3igXvQHOgg2whDf5AUp7eF+DbBWKR3MyMKnD+nMB1M9gICNmpOyF9MwyKNQL8fgGaHhCw/lDsBgePQ7IfFG8apyiNsaSIfmKCVucKo8g5nzXe46NzgvHMpbGbjZho353fx7vp3GHcDGAqz8AeMOu8w7F5g2J1gTKXh8AxnI05MxricjHB9Osbb81N8f3mFf6OGmk6Y9+/xw/UNbk4vhIli3KYvdCTcVIPamXDsnzb4Rr3AWetCCL1G1TP0qSEvjcR0rVUcTx39pSFGjRSuz57gw9tf4bzrxXlnIART70eX+H5yhQ+nQ7w/D4kW5WrCMW8c+TDrKg67KiycUAYK/fZJPA4I+YR6Nyj0O8Zj1h0PsIIAJwXMeSRZ4LWHuDj9GVIBKW6VMm2UOTdNUx/SRzU7RLNEpO1kWtwlogembQxbmV6Rzxi1VB+5UBNxdxl+EwlO/A+ZQ8haRpQ2NFft41NFwl396IIvIeHNIe7JiicX8aNXn8Xb609Qy+lQiBdQStTRyDXRr3Zx3p3gesD+m3poalfKwnrm1mfFN0ZIJ8m4MXcRKYqrvCWhiSHDxKOLC1SDVuLC0ZoR23NarL/SYvWlAasvLFh5bsfWjFWYrHcXrNhdtmJ7xYrNJQvWqCUhH2bGjNVXFiGHPVjw42QtCMUW+3UP7Np9TEbTAldLdCChSndAetZU02JTpOFQZSC4KIaMOAjC1jxCNl4aiYnIwqMlajkMFRkzG27INryQbwUh3wlBsxeFUZIAsR5+fQ0pVw+V6Bm6+SuMqzc4a17jnOvyGh3wKVyf38Hbq99h1Pah3+BChvzBDzgfvp2SqwjwEfSqc1yMTnExGuNiNMElJyCnl/hwfiPMJN9f3Ai9/UWfCOOhOGg65AIWyGAZoPORy9Iv0UXVF1OvRnpqlCZeTrSiAoVM6lZPXBqvTh/h/c0vcdpxY9Lq4bI7wU3/DDd9moW7eDsOfc6OXgAAIABJREFU4If3v8Dl+A165bggD4dsaTi1cVgVceiOIlDtERnoh3KbTxCavSnKmrDWaYHn4TflkPC40Kk+xPnkZ4h5jnErHa8jk2giSzMCddTpHuqFgXjE6V6gm3skvjFy8XrFU/Fw9lqO9/5W5CQ/hW3Fj/SnMsK2EkLWoij4sI2a7DLibtrHCkj6CsgEiyglQhi0XuPd9Sdo5nUoJ/KCxdfMN9GvdXHWHeGyR73zAM1cHelAHi5jVkwm7BpKYKuIeRpiCUWRVinON0UDcVcRPgMLzQ/pphWbs2osPpZj7oEcrx+o8eahAfOPqAK0CEoudSO7y3bsrtmxs8LVug3rc1asv7Jg/YUF2zMuwWU8Xg1AthGCatcFm2bvPxW4HtINFmUYOqFKJPYtDaeKb5I0fPqM4JQH2YtzvGVMi9bOpiSR1y/ktYerNF24pyv8zQDkm0EhwtLvEyuRR8BQQ8bbRy0+QbdwjlH1EpPGJfrVCwyaSVyd38HN1W/Rb3rQFYztG5z23uNiNCVUXY0vP1KqznE2mGDSG2PSmWDSPcVF/xzXwyuh0DunFY6ndq2PTokAp7bwwNJ88uNTJww0SZoBycEV8RTJ6KbEOT31CDTyvNN10K/G8GOBn3U9OG31cdmZ4Lp3iqveBJfdFq77Xvzw/me4GM6hW4yJe17USYxfSihTtfQkkEy27YdiKyAe9S61OynYSfTVF+E3FUSBR11ONEv3cTb6FAHrPm7lUg3kUk3kUy1Qr1DKdlErdKZPjgBEfsHUjEzppo10H/UkJbKD6UQk2hETFrJKeJpHHSxsfpoy8OjTAioZMJcQtpdEgVPtR4B5IVpFNR3BqPNajAk7JQPqqRIamRbahTYGtZ4QD522RuiW2wJGGXFnBLrNqi3BbeRWj/a2ARr5AdqlHuqZjtClx5zkdpNz7sb+ogELT2V4eecIz745wfNvFXh5V4vZ+yYsPaFC0IyN18QmO7C35sL+ugt7xGfMO8QJv/7cjM0XDuzOuiFZ8OJoheAgG0yqbUyG/wXx4D1ojg2Q70SEH9NwwhAAanOIWM7Bq2MrwkJPwUMZsSYBl5ofgBh0h/S5uiFZc+Bg1YED/vkr7unXMj/FS5ys+KHeJlqC7VcNWV8P9SQ1KOcY1y7Qq12g30zg8vw2ri9/jW7diVZxgG6FehMi2a5wObrA5YCFfIrTzhij5lAUMF37dETR8zpqnQnXPZV6vTJBn2SSt1CJk3JA2kFVoD2I98iHKsgHS8j4C0h58+LJBktinFzmfYv3texAQDP7tTiuTh+LFuWy78NFl2KoM7wdUNt9Kgr8tOHE929/hvP+a7Tz0Y8FnhecSosqBc0RJ1N8e/KAmT7cF7DAHcq86MFZ4OwggjYrqrnbGA9+CpdhB7fqxR7EU+qjUR6gWemjWemiWaa4foqoJYOZ0lZOPwrhJgqhFkrRDsrxLsjx4F/Pheri4hhzFRC0sLhTcGmn1FQqCqOOMpJMMAhRuz2Fl9cyUYw6c3h38wk6JSMa6TKamTba+Q66pS76VTLoiI4g0o002hRM6jRs1GnYmkgF+YMkIIfa6CGa2bbgkAfMaZikQVGI6680mLkvxdNvjvDoy2M8+orLGiVe3tHi9T0t5h/qsETw/ZwVu6tuHG2RHEDWohd7cw5svbBg45kN268c2Jtz4WCB7h0zjPJNjIf/BYnQfeikZigl1NBTk0M31NQZReCPh3B8ZRJ2eQx2WRR2aVSwww2HUw47LXSH4vFAsukWb5D1OSNWXxiw9twkPmSSJQ94YrEfjzspMWZ7cC4MCr0a2SUJXJ3fxs3Vr9GpOwQJq1UiBJ+nMT2bp7jojYScdkR4ZamLZo5tBU/nNuq5nlAn0uDdyffRzvXAtoMDhWJkah5JeWmK5p+fR4J8d3fm45NF0pND2l8ShAOmdpRTJCLwrdsVYz/24N+/+wxXowCu+hO8HVyIAr/uTXDebqBfteD9zU9x2ptFMxcRZvEwfbvaJMyyOFT7pBn7xfiUqSN82Crq2cLJp6x2XuZFqofJiGLmW4z6n8Cu2catHrUJjTEGzbFYxw5aZFD00RGglSkXr5Li9KMBGgpyAW4JG8iH6DIh4mGq6+YyiBgHOtj5xf14godtFcSdNSQ9BPbURKSJIPMnGqhlYhi250SL0srrUUuWxXaSRd4kNjdLwHkd6XARYReH+XGY1AlwoRRyNpCL8D/MECN6E+sDNDNNZH1FuLVxqPYYsWLG0jMVXt1lUUvx+GspHn0tw+Nv5Xh+V41Xt9WYuavGm0da0W/vr3qEdkS9H4ViM4yjBQ92X9qw8dSG7Rd27L12Yn/eiaPV/1Tg4QfQyy3QHKfFUsapL8LN2be+ILBtTmUKNmkM1uMwLEchmCVhGImE3gtDSTP3nh+ygyBkkiCO93zYXbVhdVaLxWdaLD7VY/WFGTvzTjH1McvTQpPCrTN3Fr3qObokV7WTuLpgi/IbdJtOUeBtkmirp8Kcfd4d4aJDTXUffVJZs22RupGPsKWj4buBQryFcoKtBwubhDEeYqSGTUfCMWcOYWsaQXMSYUsCUXsSMWcaCXdWBBukfSWhxyewiWaYSnogpmHDehI3Hwv8ejwtcJ7gV90JzlsDjOsVdKpm8RY/7b9GMx8Tw4igJQ27Mia4krx4E8HBwibGhA9bxSmIidOqHFzaNBzqGFwGPQrpaYHbNDu4RXXYpHOGU1ryKbzpTTDsDNFv9dGpdtEkM5AXUeFSb6EQaiMfbCEfZoG3UI63RHYKizYfqSDln3JIImQG2kpiVEi0GglU/IES3MNeWcSapOMYtubw7uoT1NNalKOM7WijKmIouD2lsbmEiDsLryUOuz4CizYm2OIRGiliHUF7mjQGOK330EzXxQjRoSTuwo2tN2YsPNFg9r4aL++q8fy2Cs9uq/D0jhIv7mtEgbPIXz/UYOWVGdRpkw9jPE5Dt5eAbNmP/Vc2bP5Y4LOEIjmnJ7hia3qCRx5Cr7BCQ4GUrgCHvgAHueJ0SSmSsEhjMB9xFMjiJrE2BP02dScxaCRxqOkekiWglsUgPwpif8OO1TnNNAXiBS+6NmwtuHC0GYJemoLHUkEy2BEunUbpFB3Sp7pJXF3ewdvr36LfdqNVIqRyAgLySR847w5x2enhlPjhYgd1tqQMJfBVwUlYgig8WvyCVSFrEG1IsIZcsIaMr4yEq4CINYOAMQGvPga/IYqQJY6oI4WkJw8WN1tPxtXkIs2/FTgvmcNGEjfn/3GC801y0RnjrDnAqNZGr1JEt24Vy76z4Ru0S0mB7gtSoSqLwkChGk/vVR94B5IsesUjXeNFMw6LlIkgBK+mBOCUBV7MfIdR/6diEHCLSILz7vn0NUb0ACn7HTpCBuhRVFXuoZHvopbpCv12OdZDSTwd8YnnxaOebaGWaaJEDUG48hGtNkWRFaN9lBMDIQriCVFO0lvYEC1PVRT4G7zlmDChQTFUEHoRnhyFMEeKRcS8OQTs09Pbro/BoU/AY86B2UJEvLFXHNf6mBCKnqoh68nBrozgeNMtEigWnzFcyoA39FU+MuL1Qz1mH+nw+rEWc/d1eH1Ph/lHBsFAoRJQIJrlORgPU1CsBXEw68A2W5SPJ/i0RbHAqNwRBR4PP4BWbobqOAmrNi+0I8RAcC/AhAfzcQSmowjMhxGYJCEYdkPQb0Vh2Kd7aIp+ZttlUBGSH4Rk0471eQ1WX5uxNufA5oIbe6t+nOxGYJBn4DZXEPW1kGNeT26ETv0Mw14S11d38e7t7zDu+UQ6ArN6CPk5IzioO8YNT3AC5As8neuC8Rh1FRGyE75UQNhVQMyVR9KVR8o93QJzE5xylRB3cFSZht+QgEdL2m4UITNP8QyS/Ht9ZfHv4xs6xxZWnOBEO/fFmPDm/Om0RRkGcE7XUXOIUY2hZC3BD+y3nHj/7me4PF1Ev5YRtREiS14ahX4/BPWmH3LRmgREIgdTOeRboWmLopjmI/1Y4G6jEaXsHYwGn8KhP8AtpnJdkTvX4VyT3IwfyUcTgdvtVDtolluoFZuo5FooZzooZvnD7aJRoAaih36zi16jhXapgVqampW6OOEJwywk+yhne6jRelbi00FVrJirqGbCGLY/TlFyJhFQxVMjGygj7SuIkWLEmRHQHq85K4KtfOYKfMY8guYcUp4SqtEmOoywyBDaWUDUFYFV7Ydsz43dFRsWX+kx/9yIpRcWrM3YprD7WTPWX+qw+sKI5edWrL0gNjoA+QYjSTjDTsF8EoN6OyBQx6TBsh/fee3EDjUnq3YYFQcYD/8eseA9qE60UB5G4dRW4dVV4dGU4GKekCINtyoDGrs5zlLvR8RiSb8TFEkQPnUaPm0SLgL1jzn+IvLNhJ3XemzMWcXJfcAEu70YjPIMHNoCfOYSoq6qeCPW0gPBfDztJfH+msuUP+BqHMSk3Qcv57SxXXYv8LZ/ge97Q1w0u2jnKa4jhz0Hj43wJaKb0/BbuEdIi5M6assibi+Kh/qeKMebFDbpU/BqEwjqswgbCoiY8gjzsLEXEXPyjlVHJtxGPjFAMUM40xDjZgZvL57hh/ef4XoSEpOxEefqlWkMS7/SwbDlwYf3P8e7y0VM2mkxtYnairCcJATXXb3rEy2nct8HPprDgFgucscQMBUQNBFwyqlVHAGLFbXCfYyHn8Jp3MctUo5OW+diaH/WIqCRwvmx8PyRBdcqM/yniVqhiSovnVy3F4ZijChehbUhBs2BKPI2PwgZtiEkVTUFajhHTTI1KPm+uMyywEnuZ3pBLffjFOUTdAomlONFFNgTBumGLwieSciWhd+Sg9fM5QgnNBWEzEVErHmkXUWUAhWxui+TV+jJImBlgYehPgzjeMuD7QU7NuZs2HzjwO4ivZAuHJKDsmLD1hsGTzmxMevF7nwIsq04TCeMdEmIlTCpVFwG0XO5OUvkgx1bc67/o8AToXvQSXVCOejQlODVV+DXV+BlWpwmBy9XyUyFk6eh3ufrNgDtZgjm/QgcspS4gPJVrJf4IWMS27wZmzN6bL6xY2fJK4RbakkSZn5gmOJmIi66Ai7QqkmGDIxx3s/i/fWD/6PAx80BTps06J4JmQOLu19qopKoIOHPI+DMwMNhgCktVHkBcwZBPqYMgkZugTm1yYoCDptZyPnpZpgzfV0aAW0aQR3/3iw43487y0jxbhaj5miCRuFCLH4mrf+rwDtDgWAj52XKYOngtO3D9+9/jrcX8xg1E2IXErLmYOIhs0vcnQeKHQ+U+wFojyKwKpLw8h7GnYu9iqitLA48nyGFsM2GeuEeJsNP4WaBM9Tox3SAEfNdGHEh/vDp6K1ZpBOExc2ni3qhj1ppJLINe2RTM9OwNcGwSYYgR0RkfDeRoUk20EYm1kU+2UOZo6OPRV7PM3ulgUYhinH3Nd7ffIJeySgumTQhk2fCeXnQmhE/fEYS+j7atxKuKhKOClLOIrKuAnKeAnLuPJKOaY/o1IRgkkehOYqDemy6Z4Q9bMMH6ZZPmIgZOaLe8+JgzYPtRS+2F4LYW45CukWRFLXYEWjpTNryiIjBjVme/tM3gCjwNQfMSgkmw39AMvwAJrkRuqOYoBJ4DWUETVUEjSUEqOXW5uBSZ4VjX77twwmNxqt+qNlT77HHjIhTSr5JlooD22xNXhiwMUfyFseIUeiYbKFmb1+A28CfC+82TVTijAgk1SqH99cP8f3bP+ByGMCo0cOw2hPmXKZA9IpkRU6LOxXgBT0DryUtxnAcrfkNOQQMOfiZb6pJwa1KwKWMw61KCl1P0JBH2FREyFRE0FhAQJeBX5sWMomAIYuQOY+Yg21KE2TD1wgTKl9hUJvgvJfD+6vn+OH9r3FzGhIJDGQM/ljgg0oXF20/vn//C1xP5tArR5ANFeE10lFGsoEPJ1sunGySXeOHjm9KdQ5BC1HWDcGRidpLCBEDSMGdzYJG/g4mHBPqd3GLPVOFgBkWenEiVq7T18dQzJYbBbYULZSzRBZ0RJHWSmN0q2cY18nRuMRZmyB14r6oZemIG7lAQdB1QixEtCP6Mm5Ma3k+PMVbaBajmPSmBd6vcExYEssDtihkrNAp5NKk4dJRu1FD2N5AlvpuXw1FfwVFbwlZZw5xcxI+dRTWkxAMEr9AQ6gO41Mw6AkdMkyfoBotBP0R+ScBGEi5IiNlPYi91TD212I4IS/8kCyYIFQSr/jB7i3bsfraghUWOE/weQZVOWFVH2Iy+gekIw9hVZiFaItsQm7VQnQvmVngObhJLZCSQ+7HwQpDZ23YF2xwD44ZmbLMS5Mbe2+c2BREWzOWnhix/tqF/dWA4JgbpFxuFUT+KOMTfaaCkEMUI0ORv3PWzeLd5QO8v/k9zro+9ModdAsdtLJtND7Osrl3SPoLCDkY0puCx5AWpyBhQ362Pqoc3ERgSxMw04nFS/FRZBqPqM0jZCwjbJo+IUMeAX0W/o9PwJhH1M4TnAXeR522xjKJuGe4HhXw/c0L/PXDb/DuPILz7hg/tii02FGCcckCf/dzXAxn0Mj6kPBMt5jqwxBOdjw43HRAsu7A0RrHpSGxRPMby4IhE7NXEbFSIZqGVxtH2GxEI/sdxv1P4NBs4VbUXUY6UBdEV/IExe27RsD4GO0SscVdVLJtlDLsv6ctCk/wfo09+w3O29REXONUJNcysbaPYrIt2N7JAK1VdSSCDaFjLiQ6KGe6qHKZlGujVYph0v9Y4DQ8ZAoiJzLlKSJgov43LsCUNlUexDxHbE0UAnVUw03UiRkOVJC1ZxHQ8AJH1jYxam7hhZTvx4W/0a0rIWAqgfpvtzYh3PMWRRAmRQBySRBHu2FItiI42IjgeDsCuSQE5aEPigMPjrfdgmG4Ns/Jhk1gH7YXvDjecMOmPsLp6B+RjTyC/WOBM2WZgbAMnw2ZCvBqU0IsxB5SsmzF+gzJtDosPzZi5YlJcFUYLsBn8bEZC4/NmH9kwpuHZqzOcuE0LXCSDezaAuyajIhkcetziNhqyPoHaOVJWqUW5T7ecVXf9KCVa6JBMGmsjmKQsSslRD1kQPLDkRI7CqZO+PVFBHQleBV5OI/TsEioUY9Cs00zhg+anQDMRzzJcwgaKgibqsIIzQ8vv7+AoQCfPieSpCN2CuiaArxKTRP1KBxevDst4od3L/Fv3/8GHy6juOhNC5xBtYTxTxpDXLZ8osDPei9QSboQcSTg0ETBAj/e9UKy5cTBmkMATWUbPhgOY3Cq+Nbh18G3Sg4+Ld86EQQNWtQz32DU+wks8jXcYl5llFTTCAf/LPBTDKp0zozQLpGMRANrV1wuK9xoFgZolBm3TMEN+dQ3uOi+FWkDwwbzGIeCeJWLN5EK1xENVBEPcFHTQI5QzRTbGBY4geYJTPpzokXpV3SopXKi/44SdaxhH8xTNwazLAuHpoqwpYGCv4ZapIVmrIVqsIKkLQWHzA/5ul3QozZn7dhd9kF+kIBdU0LK3UEp1EUh2ESSfBQzJaghWFQhaKRTY/TxXgSH22EcbQdxsueFfN8NOd3yZKIQ4bbsxuaCS0w0dii42nTDqjrE6egfkAk/hFVugv6QOuWYCIb16dl3Z+CQx6Db8+Fo2QYunN48kuPVHTlefKvA86/lePalHE++VODpV2o8/1aHl3eMmL1vwesHVqzOkKH4nws8D+vHUC0HU5VNVSRcPVQTffQqCVyd3sPby9+hX3WjkWp8LO4qspRHOGgc52YwDbc+NZUPaLLwa/PwqfJwHKdh3I1Cux2GaisEOdu5Nc/fyLgORRY+XQlBYxUB4fYvIcjVuGGaXuEzcCTMeTmXgV2hPKVuhWv/d2dF/PXdC/zb97/G+4swzrrcolLjMhIQ0El99LcCP+09RznhFAXu1MagO46KEF7pHt+mbpyseaYhaHthWKVJeNQ5BPRFBNkKqlNwySMI6XVosMC7/wSTdBm3go4SYp4q8vzC8h+xuRX25QNxC6aEtkqmRpY9NLkaE7TrjFq+wEWb05crXHavReIAM2I61RFqhS6K6SYyiRri4QoSoQoykQbyhNqnpttHahXapQxO+wvTHryiRzmehTi9jRnY6GFkuvA+DQkZ2FQl+I1VpN0VlIN11GNNlIJlRCwJmI48kCyZsfbKiMXnVuysBKCVcvpSRy0xwoCuc34fzP/xUKAVh1NPOFEYOjkNwRFI90I42fbjZMcN6Y4Tsh2PyPE52QhDsuYX8d67S0S++cUJblEdCjVhMnQfJqkeWklY4DeYjelUpWGXJ2DgAmfNia0ZHRYeKfDy9gkefXmIe38+wO0/7eObP+zh6z/w9yd48LkaT78zYeaBA2+euLA+58fBagSK3YRg09AZZFWlBb2WUgC3toSwpY1CqIt2IYbLyV28vfgdeiW3+D5LnElzzOcoImrJw2ugAC0Nt4aFkYBXlYSHX6s0BeM+E/aCYhRHn6gwQ2/4oN4JwXSUAAvcy+2xoSjyRnlq8wPs0k5n0JRJhyw1pH1cIP2Y+jbAaXuE60kO3799jh8+fIabUz9Gza7YTjNvh5DPMQv8Y4ty1n+JesaDhCcjenDyevQnZNCHoDlk+xmF/iAC4yG3wilR4EF9CWF9CX51Dm55CiG9CY3MbYy6P4FJuo5bEU8FcV8NhThhMqfoMfe8zHXuAC1aw/Jj1Ghpy43RKExzFrsNFvg5LloMmbrARecS5wwsahMjMBKr/nK+gXymigz12wmSqJj80Bfgn1bxAu3ihRjyn/WXxJq2V9ajGMkKD95UZRcV1CkWOFPIGA/uNZSQcJaQ89dQjtSR8xcRNMVgOHJjf8WC1ddWLM+6INmKgXqVmKeFVmaCSXmCUaGHZoJaDvr7eMnKwGWOwaaPCBqX5pCYaD9kzJbfmlKv5JsRKDaSkG9FcbwegmQ1CMlqCNItD8yiwHnJvA+j3AD+84QnmaQJsX3T7QUgX3Nh7zUTIlR4dVuKJ18d496f9/HNHzfxxW/X8a+/2sC//mobX/7+CHf/osbzO1a8eebFykwQO0tRHG8moDpgVCJ78Dxs6owocKZJ2BWMOqfLqoVGJoqL0V3cnP8O3YIb5dCPxV1AjDp0Q1YYPXgf8CgTcMujcErDsB+HYSbBazsAKdEWdPrTTbQRgGqHuUQxYdwgnNWrL8BnoP6fK3QG3CZgU05FZSIy3cKlELegfbSZI8R4v2YPFwOOMJ/gh/e/wtXYi0GthXZxSg0mmYEFftH52IOPZtAqBJAJFhCwECWYFqxI/RGxelERmT6NTef0KQOPKge/mveHAtyyDOzHSfi1JtRY4L1PYJJv4haB9XF/Dfl4G43CCL0K2xN+ukYiKa1ZmIiTvU7zQ4FMlAk6dYLUJzhvct16Krh47LdOO4y7YJ5KF9VyA8VCBYVcDaVsA5UsL6jszS7Rq9ygV3mLQa2Gi+GqKPBu2YB8KCvGf05VEsZDFnhYnOCGE8Z8T1VjMQehmnXhs8z4ODqMQX/iwcEG3TgurC9x7Z2G01RBwtdCKz3AqNjHINtEPVpGxptD2J6bUgOccXitUdi108ht1T5HUswCZdyfH4oNnmxZ6PZSUG7HINuI4GR9erO3qo/FJTMVfQijyizc8/pjBlpFodrmKejE/pwZa8+0mLsrx7OvjvHwL0e4/T928OXvV/Hnz1bwp3/ms4nPf3uIu3/R4OV9B5ZnQthciEOynoJsJw3NYUYEFNh1OdGDkz9ukvLimoNdwS1jDbVUGOfDO7g5/y3aeScKjHex5xE1ZxAyTEd61MR4VClR3K6TIGyHPpj2PdByBLfpwfGGB0frXlHgjF7RS+KwyOhK4s+9IC6klES7OW/WsLhjsMhjsMiSoCmDJ3hWFHhPaFl6pS6G9Q7O+3G8v3qM79//CpcjD3rVJloFCuoYpsW9yxinPxb4eFaQFThFCZqzwnnFjFPqdswnETiUCTj5PVCGrMrCRU79SRq2wxTM+3GYdqNwKY0op25jyAJXbOFWItAQqQxZrt2Zhc6wUWagsNA5MhRxdGO0y2MxGuxUxoKLMaiPMW6MRALBmQA/nmHSnmDQGKJd7aJeaqJarKPCkaAYLw7Rora8ykSvDzhtfY/TdhNXY1qaPkWvZELenxWzV4ciDqMkIuSnmv2IYCWa6ZDR0d1SEiwWcghTXgKFkrBqQlCf+CCV+HFEZ4ycywvKcxsoRzpoJjqoRRvI+0qIUSdjzsBryiHiyiLMqYIxKda8+kMflLsuyDmSWvdBth6FfD0N3S5jFlNQbcWh2IpCfeCDy3iMs8k/Ipd+BJvJDD2ZjMcxqPZCOF53Y/eNBWvPCepU49V3Mjz7SorHX/AE38U3f1zFXz5bxh//2zL++M/r+MvvJLj3hRazj5zYmo/icCMN5UEWein5NB+nJ9rp+p+nt2CnHOVgkdIYUEUhGsJp/zauT3+DRtqKjDOLqDmFoD4FvyYFLpS86gw8TF+WxmHnZvXAD634Xu04YXYnC3yDSkm/+B4MJ3EB5ndqpq2Ig6Zf9TSa3MpwXVlcRCeSika0BZktmQDVh5zedNEvdtGv9cAl1NurJ/jw7lc4H04LvFloo1Vgl8ClIoNb/fjwbqoHb5eI+mA7lBRbYIYGaLYD0O8HxYWdrR9Pb6c8A8thErrtCBSrfsiWfJAvBWA50qMY5wn+U1hVu7hFDAGRYMkACa8dka/TyTMymulV5N0NMW71MaRQpzEQbAyiv7q1schyHIqEr2mA6JChr2X2YFOxFEU9VJWxvWkVz9GtXGHY4KX0B7wd/Btuhh28Pd/Ah5tP0SuYkXNnENSlheLOIKG+OiiwxiTC6qW8NFLsk0HUkUfcXQSVixFnFkFnGn57Ak5LBGadD3axTs4hZOaauYG0p40EjdDWskhGo0qNUt6Eo46kqyZCXj06Wtq80Bw4IN+i3sQjGCeS5TBUG2mot9JQbyeg2otCf+JF0HWCi/N/RKX8GD6PCWZ9CDppCIp9P/ZXHVib5VSXUv7SAAAgAElEQVREj9l7WszcZuyJEq++VeL514d4+OdNfPVbnt7L+Jd/Xsfnv5fgwVcazD91QrJKmS+zN7ncKiJoLYNjODqY7DK+2eLQ7DF5IwPDSQV2NVEcQQzb3+Fy/BmqcQMS1gTC+oQobg/7dfbQKhZ3BtajLEyStHjTKHc9ON604HDdDskGY138kO36oTwIQi+LCM6NRRWHSR6D/piJznGYZFkBJtIeJ6GRJmDg5c5WRNhXFUMFBhc00x0MP7ITR+0Mri+e4v27X+G070W3xgRnKlUpARmhU+bWlS3KL3A1XkSnmEDWX4BHG4Z2zwX5qgPSRTcUqz6w7TMx+Os4CfNhEurNMCRvXFh/asL6EzO2Xzig3dKgEL6NyeBTeA0HuOW354U7PuSsIUKeSIRr75Fw7ZBFMm4ysZg0K2pTBiKYiNmLndopOhwnCoDj5RTiSOoRe/c8b9It1NPkp7Dv5siRIVKXGDdvcNX7AW9HLPA23p6tixalldUj5UzAq+G6nO6YoLAnyXd94geuodFUGYfHkBCoOMI+w3wNu4qIe8lwYZxKHm4TTx4GP8XgUKZERiXDYakX/rF/dOtSQhyfdBEcSsAlx5JJOFRB6I/cIihqGmPCDacf0pU4FOtxqLZ58Y3DrAgi6lPg8uKfUKs8QcBngVkfhOrQi5MdF/Y4NZk1Y+mpEfMPpvD813d0eH1bi1ffSPH4L7u4/cct/OXXG/jzZzv44veHuP+FGm+eOHC0noBJWhPJx2FXERFXSXy/dnkIxsMAlNsegXQ+Wg9Csct2pYiow4NB8xtcjH6FSsSAhDmBkDYBrzIFlzQLx3EGDqYvH8Sh30lAs83vhXwWNw7XLdMZ84YfJHEpDyJQScLQnZA1yfYvIi54jFpRH0RFcfNOYFCkoWeUOi+a1iKC3gqSoTpKiRba2T7GJUbMTPC3An/7S4x7NAS30SzyvtcXo0QGbV10p4ueq9NFdEpxpP15uLQ0YNshWbJib84OyYITinX3dHxJL+1GEIecbNEze0+LxXt6rD22QLWhQC78LU6HP4PfcoRbxD3YeSM2FuC18sLZEki2dp5RbQwcpRieAfcM4BygUx2jQ8xEmSNB/nouZJvMPqf+uFceo83QUhZ3so4ydcVZfjOcnTMp7BpX/Q+4HrzHZb+O69NVIZetJNUIWyPCHKw/DkJ1EIBiPwD5HhEKfiiPAtDJON4Lw6wMwaIMwa6Nw0cthJNmixpCVqZVUOQUAX18ZsI/1RkxQaB+hZOEqQG4gLijioyHi6OGcN5zNOkzxGGWBaDa9eBw1YnteQc2Z5nMEIR0JQLVVgw6apDVEcSDKlxd/AT1ylMEvFaYtAHIDxw43rRhl3zwGROW+cMXSdEWLNw3Y+GeGW/uaDHzrRRPvzjB3f95hG/+5Qjf/OkE9z6nqtEmTnDTSU0YkyOeLEKONNy6CPSHLii2rJAsUz5rxQ4VhhuccmQQtbnRb7DAP0MlbETckEJQmYTrOAkLAao7Ceg5214PQb4ShnQlBCnFS+sscAYAeHHCMN8daq/5REU2k2o/JN6g8h0/5DuBj8QtjiuLQlhm1mRh0WXgtORE8nTSTx0SL/YscFJsPxb4+RO8u/klRm0XKOdo0QJHy1uZceIDXI38+OHDL3BztoBeNY5sqDAt8B2HCAfbfm3H7px9GhK25MDhohP7bxzYeGHC/H01Zr5R4vVtDZYemqBYnxb42ejniLpkuMVT0aRgokNWIJJDTkJy6N5h9s0E4+YpGAPdF7016aRc01NrcApePOm+bzETvXI+Te4idZTTl/RUtcYwqXJqmgTBjHTKcy8ZDttjREYJl+MlvL36CfJxOfwWFi7X5NwkBsFsIBUptSchqGVB6BRBGBmJLfVDe+yDUUbkcQKcOzOGjyZkKvd0BxTDRwXvm64aGi6YfxO2lsTD7VfK00LaXUeKflE31760PKVgVYSEsIdG5E1hW7PhYN6H4xU6SqJ/K/BEUCMKvFZ5Cr/HAqPGD8W+HcdbFuwumrA+Y8TyU6Mo8KUHViw9sIln5ZEFK48MeHNXh+ffavDoSxXuf67Eo680mH3A4g1CvZuFjaZpcwxOQwQGKQvQgv1lE7ZeG7E+Y8Ym48ZXwzAfZf+jwIe/RiVoRkyXhk+egk2SgH4rBtVaGApGJS56cTgfEB9YRkSerE+XVoxSlG7GINtKiDBbKdksm9TmcGIUEI98NywkAzZ1BU5DGQ5jAQ6SAYw5eCxZBB0FIbulwrORJryJhosxRu0Urs4e4931LzFoscA7gn4r0opJuW0OcT3+WOAXi+g3EsjHSvCYuOhhSAHdVU4w9U6yZMfePCNjzFh7bsD8Aw1efSfH869kmP1Og6VHVig3VchHvsP55BfIBNUs8IQAZDJK0Eqfo7k6nWcmyJ8+FfnnIwLSGyO0KgPUud0sjlDNjYWoppIZo5aZoFXk6T0NOKJ3s0l5bbwx1YDHm6hlmKkzwJhTFyJ7O+TbFXA+XMTN1U+Qi0vhswRhVkahPZ6KpWhV0lH4pI7BpI3ArI3AQsinPATdCaWtIZhPaOdKwHISh5FbuK2AWFZo9rkgSsNnLCHmbCDlbiJBNiJjC6ljsNUQJlfFkhMP1YkebRLGkxDkQoNiF8kMa6+s2BNWtQDkWxERmDs9wacFXq88Q8BthVkdgErihHSbJ7gJay+ZAsFLphGL9y1YeWjH6iMHNp85sfPSgdWnVsw/NGP2vhEv7xrw8h4lvSZszLhwtByEct8L3YkXmiMfTrbJG2dqhBnLL8xYfmbF2is39peiMB1y8uRCr/41zoe/RilgRkSXhUeWhpl6860IZKtBHBO6P8expQ8Hb/i/g1P71yaRdUFI12M4WYvheJUJcUEcMyt1PYSTzRCkDMolL1Geh8vQEMQyr60En60k2luxLHROL/90fNHS2MnSZfV/FzhblN40ipsy3+YFJu0hric+/PXDz/H2chHDVhLFVAUBRxJ6mR/H217sLnuwt0RymAM7vLy/1GPhkVoszZ59LcXTr2SYuaPF0hMbVDsaFGK3cXn6X1GMGnDLpkvDzIQHZRYm3th11IFM3TJtsqebF+BFstcYC0tbpdBDOT9AOTtEKUXedx+EA5FV3WGRl5j/Mhaf4kqsJZARIr031Z5GArYYs3EmMh8HzRzOPhZ4ISlDwBYWEE+d6Pui4mJp1XJenYHbSrE/o1FScGjjsCimRCq9JATtLlfLfnERkS8zyDYgTiKjNAOfmdOWDrL+trhQihW6hmMmbhqjsCs4forBroiLW7tyh64RJ7YYOfLKgtWXNuwt+nC4GoRsOyJMCizwRGBa4I3Kc4Q9Dli17FU9kG8zn8eE1edMYdNi/p5etCarD21Yf+LA3ks3JK/d2HrpwNozG1Zf2LHycvrwz9qYYXKEHftLVhyuO8CArO1FO1ZeWcQSa/6JDfOPHVh57sXefAz6/RSCJju61a9wNvgMOZ8JIV1W6ErMxwkR0S7bDOBwyYm91y7szHixPxcQbyQamxVbftA8cLwSwdFSGIdLfhwuTf//k/UwpFtRyHfjUB+lYGaOk6WBgLuOiLcmYiPjHlITKuItmPXVUQq3UU8M0M4Q1vmxwM8fixZl2PaiwyUiEc4/FniHBe4VBU657LidRCVbQ9iThlkdgmzfjwMmcK95RIIGM0ZXXunw5rESL+/K8OxbKZ59K8MM+/CnVqj2tCgm7uLy9P9FMWLCLbc5A6uGwvs09LIszMyJsTBAlXawc8HYYHZLtzFGrdxHKdcVevBipivW7tSdkF7FyG0GsjLpjDF+NZJNI23kAgxkpZKN7htGU9NUcY5R+xSDZl4UOLER5YwCIWcUNjUVfWFo6E7ntspYRISOfF8JcU9BXCzZSjhUMZiO+TpnQTshmbdhf86GgzdO7PPEXQ9De5SG10SNRFvAOOOOEryaJCxHYRj3AtDueKDZ9UCz54V6h0kLHhwsTM3GdNyvvuCK3YmDFW4vQ1BwnX2UgF0dRfJjgTcrLxDxuGDT0iE/BXgy7mTlCYtbjTd3tVi6b8T6Exu2njtwMOvG0Zwbe6+pL3dgn1lBtGKtEdzpERHfu6+t2H7DVoeSWTfW5lxYeG7Dm6d2vH5sx5u/FXgU6t04vAYL2pUvMOl/hrTPKIRHHh0RzCkY5XFoDsNi9b4/78LOLOPZ/ThaCUJO9/6WV4D4JYsBSBaof/eJ54QLrQ2GcVGVSedREhZtHh4bqbZNpKKMfGTGUhvkQGY8FME1UA530UiM0MowKXmAIe10osA/w6jjF+1Jp0JK7SkGDY6W+7gZfSzwiwWctpNo5OpI+LOw69mmBHC85cPhJqc8lC9YsT6nx9ILDeaeqDDzQIFX9xV4/Yg2PzOUe1oU4vdwMfkFsn4dbvmsadHvGYg7Pk6ByjW3nvwSru5paL3GsH2JTmOMaqknuHh5utczLZTSDRRTjO5uCGAPVYmVRBflWBfFcEcUd8bbRM4/JVxNHR7EFZxj2GQOegGnw2XBRalklYi6yKKLg/Qi9X5I9NAc7dEDSpdPkUlsjCpkooQqLLLf5RvUoJiw/lyL1adarL8wiovh3lIAir24MAmQ00JBfsBItVwQ2m03lGsuyFZtkK4yx9IJxvzxtk5MBFPTVp7ZsPbSje25gLjMyXaiUEviMEjJC4wjGdROL5nFZwjYrTDKmGLsFn3i5ksTlh6xwFVYuKvBykMDtp7bsP/KgeM3bpzwA7jgwcmKF8odfpjj0EhiwqMpLn5LnB5QPeeFZC2AzQUvFl85sfCShe7A8ksHtua8kK7xQ5WAx2hFq/IlJoPPkAoYEbRk4bPmBAvRbk7BrI1DS+PuegAHCz7sz/txtEz9uQ/yDUaYkxjgE88RFY7Uoa9wuxmGbDsKBSPbTxKwUGPjrCIeaSGX7AprWiFCim8VaVcZOU8N5VDnbwXeLncxaMVxdfEY799+hnEnINpUDhyoWepURmAc5HXPjb++/zneXyzgvJ1Cp8BpHglgnFhFoJYEoTjwQ3How/GuGwebToH42FqyYu2NGUszJizyZ/7SDPmOBrnIXZwNf46YVY5bXlsCVi3bAUpFk9BypKSlVYwXw2mBD9qXaDcmqBR7KNC5LmCaDZSyVZQyVRST03S0Ap08NLJSPci4DU8NKXcLaS/d+FwpE8lGbMEZaHbu1PKYDFjgP0U1q0LUSR5dVMy/VVSyHSdEv1wMMqWtjUayhSozgZx5eDWUdLohXbNi+7UOy09UWHiowOITDZaeM9WMEwLKYhNw6zPwMhpRHoJ2zwn5qgXHCxYcL1pxtGTH4aJD3Mo3X1ix/NiMpUcWrD6jfNWP/YUoZDsxqA4SAqhpIrFKn/hbi1LOPYLToIdyn/n0Duy+tmCNiWwPtVi4p8HSfS3Wnxix99KGwzknZIteKFcDUKyTZhUWX59FkRYhYLqjsMjY5KKJ9wCiEmS7EeytB7C24MLqGzdWKatdoOnCB7LEDTKOed1o17/GZPgZ0mETQs48gu4C/J483O4MHFZa6NJQ78ZEfy9Z5KWZxT3dYlKBecQL6IIXh6R9LXpwKCheQUi3IqLAtbIEbNSCe2pIxlrIp7ooJjsohHm/KQngadpZRtHPVL0BmukJ6CXoN2PiBGeBTzpBMT0h5qORp9iuh361gauWEz+8+zneny/gspPCoEwDdBkxdwYu8m0UMRjkUegUjMUJQHUcgPI4LJSfRzt+QUNYn7dj7Y0Nsm01UsE7mPQ+hV93yB48JrZwqqMoKDFVSZIi9Thorwp4eq82wbA9RrfRF6yUUqYjKFi0rlWyNC5wDEgRVQdkjaeDfL3UhL4l4Seshxn09G+SOUhTxADtCt09XTRKKYx6C1M2YU6LsGO6/iXFSLETAtFcQWMFBX8LDWpl4j1Ugm2k7CW4lVTquXG0ZMbGKx0WHiox850cL76RY/auTlzEdt6wUIJC6Wc4DH1sZ+zCNbMza4LkjRmHC0wjtmL7pVVMNxYfGLD82IJNXuIWeNniyc2HJuEE9HTPq2OIe5W4Ov8nFFP3YVWqcbJOvJsNm6+sIlqQHxT+exj3TXCQZIHr+xCUJGPthaE9iIrvj8U9TZpOwSRlYrIXmn0n9Pt+aPdCYMwg26P95QC2FjzYWnSBsShKSQgmZRJOXR5Rjxu95tc4G/8a+YQVMV8FsUAFsWAJEeo6fDk4TRkYFHEo9oICi0ETiIxeR/bgXPKskPnixuEqHU9ccvlwQJPvOiWrEaikCViNefjcVWQT0zjDSrqLQrQpcCDCtmYvib1CKTJlt3CZ02skcHXGMeGvMGj5hPy6Sgsj0RSkZZXrOGvb8P37n+Hd+SIuezkMa11U00zLS8GtJwGYu4EkzPKEiLi0ERWoSYjQM4bvKni4rFuwu2yEck+OVOhbjLqfwqmS4JZeHoNGGofiMA7ZQRxKyTRdwGPMIxthwlkX/WYP3XoHjWIL1UwH1fQQtQwvlgM0C2NQr1LNDIXLPRlsIOavI8ZCZ9Q3+SmJnggjJZCmVaThgdryOqr5CIZdwjc/QS2rQ9gRh0UZh4rR4bsh6A7j8GgKSDnqqAQ7qIW6yHuaiFmK4oKo3nbhYN6EtWcazN1ViNny/f9xhCefyzF7h9prM3bnCbX34mjNDckyPZXsq01YeW7EzowBe6/5qwnrzzjt0GHxgR5rz6zYnXOLPpWvaarZmEis2IlAtUtbWxARhxSXp/+IXOwuDEdK8RbYnmX/7sD6CwfWnjtFi7P52oe9pTCON2JQML3uMAHtMbeh3ApSY8OMUjrwUwIOajz2iZm3YZ+5PX6cLHtxvBTA0XJYXHZ5ctOpZFQnYTelBbou5Xdj0P4a55PfoJR2IB1uCvVmNlZDNlFFMlaG35uDw5qCQR2F6igM2X4Isl3OvnmRDIjlEfUotPmx5z3aCOJgLYT99RAOdyJQskXhLsFdEXmdjUJPUIOLiQ5S1P0zJcRRQcJdR54xk0mK9Pro1pO4PH2Ct9e/RLfuRuWjLqlK40uhj2apjnHbjA/vP8Xbi2Vc9AsY1qk4LSHuTcCtiwk3lJHEXil5lHTuUIPO/UYcDnUQRqkLyj0LTjYpejtBKvw1ht2fwqqU4JZWloJWnoFalobyJAkR1y1NwqXPIOEvoZptol3toFNto1Hk6r07jcTIfUS6Ec5ZOhUQfbqp+cNNsLhDDaQibRRjxECQxdEXU5Q217Q58k6qqGRDGLRn8Pb6J6JFibnjcOqSYnvGzRmBLxYpybEFpJ015Nx1JGwlcYmyMfBq24GDeQNWn6kwc1uKB3/ex3e/38HtP0rw4C8yvLitweJTs/BSbs7RU2nFykszFp8aMP9Yj9VnWmy80GPjhRGrz4xYesQcTCM2Z+xgUCwvfgySUh54xQqb2Tscm6kP3PCaDnA++XukQreh3pNjf553ARd2XruwNePExisXNmbpCQ0IM4V0LwHlURqaE7aBHIVy/Z0QRW5VZARrkV5QXpwJC1VtecSHZodTlRniKgKQcLS3HYVelhZzaDdjZiwlpPxeDFrf4HzyW5TSbmSjHeQTbZTSbZRzbRTJEk/UEAmW4bHnYdWloZcnoDmMQbkXFUXO740p0FzTc/9Ao7N0J46j7Sik7MEJ86cv1ltDIdUWLQZTrjlBY0QkzQ4JT0P8yjd2JTESxpZ2NY6L00d4e/Xf0ak5xcFWpoRD6JN6aJbrGLHA332Kt+dLOO/mRYE38lWkg2l4jaTIki6bgFWWgUudR8BYQsjCvQV1MkyJDkB76IJqzw7diRzJyFcY9n4Ki2oftzTSAgzKEvTqPLSqFHQK8r55kUoLlEA+XkO90EKrzLThaYFXKMrK0xzBOJEJegKeP0Ip2QNFW+lwQzz8fS31H1Hcg8pQyCg7ea7xa6hnQxi1Z/Du6ieo5xRI+RPCQW/TJKA9CoNreoaxWqVx+LVZhOnc0H10oZ/4oNqx42CRBa7Ey+8OcfdP2/jqN+v48je7+PZfTvDwCxVm7hmx8NQCUmKXnpux8NQoWN/ERyw81k4dNs+m7O/l52aszVixzR6Xi5FtH452vJDuOnG85RLZlhJmW25bYNVs4XT8d4j5v4VsS/YxFNaJ7Vn27i6sz1LT7cHmkh97m0EcHsQgPY5DJY1DJ42LAtcexqHndIKOHUVOWLFMxySpenGy4sL2KwtWnhiw+tSMvTc+HK8TD0fAUAk+axVeexlBC8MIfOi3vsXZ+LcoJt1Ih2gR7EyDp6o9tOp91CucgHWQijKcoCI21xwNa49SUB8kodpLiMuuQca9CPNRc9CeZKE6SkN9koaBemtbBdFgGyUirtliZAeopYYoRfvIBDtgakcq0EYu0kWJqJB0G81yFOeTR7i5+u9oV+wop2uoZFoCCcgWplmsYdiyiAK/OVvEWTePkfD30h2UQ9Aag1URBmPWmQZtV1L6W4TXUBDKRpuScuoANAdeqPc9MMpVyMS/FlwUm34ft9THFZjUVZh1BRi46KDOV82LZgp+aw6pYAVlka7bm9rX0gx0JZSRpoixeEgc5aeZ48I8Z98kIsWb4hRp5QibGYDm12GZv/bRy7fRzjTQyUVw2pnF+5ufoFNSoxTLIOEtCq22WRGFcp84YV6mgjDT1CuNwSajqiwA4zGNw04crZiw/kqNmTtHuP8/t/HVb9fwxW938fW/SHH/cxVe3DFh7okdC8/sYtS28NyC+Wdm8Sw8MwhsGwubH4AVYiUWyCfkbT0g8j6lEh9ke06cbLvFSvtwnU4fM0yqdUxGf4eI91scb8qxOePE1qxdbBg3X7uwOe/G1pIXO+t+7O8GcXgYwtFJGGpFXPTOuhNOTqLQHSWEY8kmz4sTyiCJQEUI/qITG88tWH7ED7BZTD9kWzEYTnJw6SsI2OoI2CtCpioKvPENJoNfIx20iyQ2Rp3QgdWuDdBrj9BpDtGocn/RE2/ZoLMiIEVGeRb6kyx0xzkYpGmYlAy/yosPkVVdErsRkzoPh7GEsLeJTJypbX3UM5Rj9FFJDFAI95AOslVpg8kdjIispHiCd9CuxHAhCvyf0a7YUMlURYHXGc9e6KJVqmHctuLDu5/h+mwJZ90CJm0OIjpoFhjJThcSR8ZTVSk192zrrLyYS+PQc9O95xcHoV4ShkNrElyUyehn8DlPcEt5yG+iImacJi3RaDFYVSlYVXG46FJ2FZHnSUwDa6EonPD1QgSdcgyDahKDWhL9WlJwnVvFKOr5MGr5EOqFMOrFCHqlMAblyMcniiF/XwxjUAxhVDXjavhI5B9OWvtoF1woJ/1IBV0IOCxw6PWwKLWwKrSwK3RwqLRwa1Xw6DVw69Wwq5XQSuTYW5Rh9v4x7v/rDr7+wzq+/P0evvmTDPe/0ODFXQvmnjiw+MKFlRkXVl87hbdyY96FjTcOrM/asTpjx+qsHetvXNhjW7IbEhmfypMQVNIg1EfeqXSAfSuNDBIbzLoNUeBBz9c4WJdi9ZVdLGm25pzYXfDiYDWIo+0IpIdxyGUJqNRxqLVxmA1pOA1ZmJVsxShmmp7gLHBSmuhYUWx6BSKOI8vVp+QT2sViRrkbE2o+t4EY6TrCzrrwqaa8fqFFGfU+Q8xjgdfCvUFd7Cla1SH6baarDUSxk0+Ti7dAo4vLmINZmYFemoFOmhNgIX5dNFc49WXxOHQlOA3cWtaQCHRRSIxRIWb74ziY/TaDDhLeptDfs8CZ31nNTsRAYdhM4vrssWhR+nU7Gvk6KJdtl7oglrlbqeO068D3736Gm7NlnHeLOOtw2z3AsNFCOVlE1JWEQ0vxV0LcXXg46I+pC2K2EiPXKUSLwaHIIGRzoVF+iPOzXyARVuOW+igPs7IEqyYLK/8DqKIwyXnRjMKqZstQRCZUQ7MYwIQ5lqMHOBvdw8X4Pq4mD3F1On0uJw/FXzsf38PZf3roNLkc3cGl+JW/nz5Xo3u4mXyFD9f/H/76w/+Dtxd/xMXoO0x6d9BvfYd27WvUS1+ikvsc5eznKKf/gkrmX1HL/Rn1wl9QL3yOav7PyMY+h13/GIvPDvDwiz1896ctfPMvB7jzZzkef63FLDUgL9zYmPNjZymAg7UgjrYYWRLG4UZAWNHolN/kEmTZJ4qSF25GIGqVMehVURiUERgpaVCm8P8z9V5dVmZXuia3bc9Vj1HyWVVyKankTRlVVerIpSUNNoEEIoIggPDemx3be++9937v8BbILKVUreo+f+jpMddG6nOxRpARQEIwv/WtNef7Pq92PYp204ndPMXB/pfxud9k5tkSI3fEMic4Zhuzox6WJ+UyJ8SqDCZ9Dpsli8OexeMQ828Ouy6JcSOGQbooG2lFSTWJFHVeuIiDAn8mqRJ3TcwNOwdc8vkwYuMSNkrIXiHiqhGx10l4vHRq4kP8GUGbAbs2T8BRJSsRg8K4qf8F4iRY7BaZaJWQK48M+QxbcZUFpFlNsruWUH9P0SWpbCF9Aae+gNtYRDRKMa/szj0158hLL1wGPqLGFCWqraxQ1slAi3y8T0UQzzUp1BQXJzcHYqu6jVahhigIuxJHI4OgSpXDtk1xUc4ORzlUBb7PcafHUbtNs1AmE0rjMcdUF2h7OcCmGMOVEEx0QwNbo1xA3RrBjXhplm9wcvw62ZiOKyJ9FGKSOLWlX2zdliQwKXDZyWN4TUVSgRyd6gIvnn+Ny4vvcXH+Uy7Pfs7zs18M1vkveK7Wz7k8+xmXZz/l/PQnap0e/4jTo1fr8MecyDr4MacHP+bs8Hs8P/8Sn376v3J29A2O+t/noPcD9jrfp9f+B7qtf6DT+B6t2vdoVr9Dq/odOvXv0m18T32t3/4WB/2vUMh8j8mhcW6+Nc/V/z7HB79e4sabG9y7quXRTSsT92VKOBg7b86F2V2JqB1Ufrw07mNWSLKjLhZkWjkXQ7OSRCt2qa0Y+p0Ypt04Fq202vI4THlc1jBB3yJHR18h4H+LuelFhiV28K5R8UyERrU2E0G7ljXQQu8AACAASURBVFbCJJ+jStRXIxGukwxXiflK+O1ZHLoUgoGwy/d/O4dVkqYXI2xNeVkYdTL1wMr0QxvLTz1szwXRLocxb8ZUzk/UVVHdi5goIn0edcnst39O0G7GoZXo78YALS0mk+oh7XJfqUEr2SbZmJAOcritScy6BPrtBNoN+TsP4g4tomUx5HCLFl3yOa1lwvYKMXcNoZUJmzLtEaFaWUF3/KY8fjmfO4Se0KKQ2qdWPFF6o9OecFFu8fziJ+w37XTLDfqVrpJhixR7r17nqPOqwA9G2W9k1NekuE/7bfbqNaqZPGF3Av1OiM0VD6uzci9yszbtZUNEYHMhzKtC3hJZhp9W+SZnJ9+mktnhiksr+TFCiioQMpfw6nNYdxLKHiWU1KCtQS6apd98xovnX+WgO0W/aWW/4eWw4eOo+Wq1vMp6tNdw0qvZaFcsNMtGKjkdpYyOYkpPMW6gEDWQDxvIB/WUYwv0ar/j/PQLlGMPSbiWCNnW8ZrXcBlXselWMO0sol9bYHdpBu3yDObNBey7yzh1q/itT6jk/ol6+e9ZfPZIaRNuvLXG7bc3lNFAsnXkwjc3ItHZkhIgemZ5cMV0HFVDFmmTLT71sChI3ik5MqQxbmQxbmcwqrdaEqs+jcNYwGsXDEaDeCRHJrPN6elrxOLvsrq6xpNRM2P3LeoMP/dkMEU1rEnGpZwja8qMK+yZSrpFNl4j7pdg11fZj/oCHl0RpyDeVuPoF8OKvaeCZQUUNOVVxxmxiEnol2T9xFwlEh6BZwqS2kW38RZ7nV8QcdlxGxqEHF0y4T0q2UOalSNlVGmVZIIoBnI5S8uFMYfXkcVhyWI15rHIv72oMg0iohJ9fZmQs4pkm8qDpJZDBjtlYjYRrAlwR0gFA2OGhBGkQm2KmX3qpRMOhIvYTXJ5eoPn5z9mv2GjW6qrQIP9Wg+16rW/7uCiLO2WU2qHl8I/6Tc47NTplEukImksxgjb6x5W5uysTLtU12d9ehA8IBuDXfDSFpmW3lK8y15thCsiE5U/bNJRJ+NsE7c38JmLKptR0r3inj7lhAQRTfLy+d+x1zTRqdTolffYL++zXzlQa6+yR08MEUWxI1WopIqUEjmSoTSxQIqIJ0XQLhEnSdy7MZybAdwaDbnIexzLq14/jmHBgGbWweaMONvtLAjK7LFFQTQnPjEw9cDIwqiV1XEXm9NeDGvbZGK/oV75e5YmH3P/2jZ3r+4q7vfItR2e3Daotp1M7pafiFnAi2ZeuHY+hY6QANjNKVHSiYbEy9ZsDONaHst2ActOTuGQzWIV0wvHr0jQ0yAZ61LMVanXjVxc/B3Z3EdodbvMTruYfOxhZszL8oSIssQGJ17FEmmveEN7dFXgV1cxHjNRGYhJynSRgKWsLoteXRHHVkYVuWY+xpqc4Se9bM751JHRvBFUgw+J94g4sor+JcDMhNdOp/4m+51/JOZ24jV1CDv7ZEIHlNLHNIrH9CtHiqPeLPaQ1ONCuq6CD6SrEvbXCXqa+Bx1PNaKioEMOWtEPXV1eUz6GoqkJQYR0dFHLQUiIj02iuk7NwiAspSIuCT7tEspe0i9cqoAP4fNKBeiRTn7kUoxbhcqdEst+pWOKvS9apX9lu0V+GeEViGuPJudSoWjbo2jbpV+vUQhncfjTmHQBthccbMx71HHlM2ZgHL/a2YDGJYieHcDVBMjPD+TLPv/iyvyNGZ9A/xAytsk5qqqb7rXnCdoqyrRVTGRod96MijwjplGqaQGNk2xJeX6yt7WKx4iYUQ9aR2mO9Qk5kIwDZ48PmsKpz6mzKoWOcsuDS5SW9MbhJzvst/5EubFMZaHdpm7b1aCo6kRG5OP7IyPWBhToVA7jN4RrYlk5khf2M3OvIZ05Pe0at9id2ma8U92eXR7m0c3dxi7peXZXYPSdE+MWJl6bGf2iZ3Fp3ZWx51IXN+yDFIElyC7wEJIAezFX+iQo4i+gF0rK4/bIuq5Bkn5x5OApVqTvZ5dDSfqtVt43Aa2t3wsL0VZX4mj2UhhkADYXdnBhbFYUAnLZRl4RboUfG2SjgoRs1jqCkrlGHPIWbaEzyB4NkEHB9md86rpq4CDtAsDA4c42W07cg5PIrGELlOekMtJq/bmqy6KiZBY8TwNMjL5TQ8we3ulLp18h2a6SzXZVRdFOaOnIy11dIqFKgT9ZbzuMj5JU5ZdWwrc2yTpbRBzVwhKHpNVfLCCiciqt71XaFcmURSKcrSlSMKSyid6k1a2T78U42z/OpenP6JTNFJPlWhmGurP0hMtSqlBv27nhSJbjdAtJmjn2vQr4vTpcNSp02sUKWVyhD2SNZrAIN2+7Ti7WxKPHmBzQY5wAXSLCeXXjFgdlOPztMvPuBIVZ4tbBDN1FbEtYEePUSDuku1YVE9lLpqg2xjlxfO/Zb9rpF6SeGjphXbUkvQ1CabqiotDnPeJDqVgjaxbpLfCmUthkfOsZLYvhNX4eXZEwqFW8VjeZq/1RbSTw0zd3OTJNR1Pbht5dt+ixtITjy08GzXwZHiH0U+keHWM3hI6rJX1yU1Sod/TbbyuSFOLY6LC06og1/F7esbvG5gYMquHZPyRlYlHFqZGLIo3OD9sZW5UVIde1qclYDSi2qMOgdkYCkpm69KXcekrBBwtYr422ViPqjzA9SYHfQcvX3yDTvsu8YgduyWGQZ/GZMxgM+dwmPOIZtojdi5LQU34Up4maVeLmLlKQLIdNQK3zCrWYsxRJmITsGhGYdUsElA772N7ys3GuKgdxcQh2Z4xTOsiGU6qKEKHoUDwVYEf7v2AfGxZpddlIwGKqTCVfJxmOcFBJU6vKEKmOLWUEFwTFBJx8skYuWSYbCpAKuEnFgsQjwZIhYNkIiFy0TC5SIh0yE8s4CbosxP2OIm4XEScbuUHjXsCZEIRivE4lXScei5GIx+lkZEum4nTg7e5OPkh7YKRikrxqCqsnJiT6+ky7YqV5xeS0TNEt5hULeUDwUm0+hy2m3TrJSrZPEm/XHbzOE0FHJYidksWizGObjuAVjykq8KjEb5ijJA5TNoX4kpAkVqLyvXi1IqDOzUAzIhbWiOxd5IAEKVTHxkUeMdAvZSllm0iqVqS3VOWvniyTT3ZoybBsaIwc+QJGSWjRyhVaTWO1q7E2JwNs/zMz9SIk9mxNZzmt+k1v8jW0yHGPljj4bs7DH+kVajj6TGnGrQsTtuYnzQyOSoYZD3DN7UM39Cz+HSVROC39FrfxalbZ0toVE9sLIyamXtkRriCM49tTI3amJQ1YmVyyMLkQ9Fcm5kdcbAoF8IJn4I6mjYGHESXrohHX8ZrqOIzSgusQzLQIRcVf6nY9mocqIvRN9jrPqCQChARCJE3R8hXIOwrEfaKx7WszrF+a5mgtUbY1iBgKuOSY8+6xJqIFCGhKFEBY0FhyFw7SaybUQxLYXakXSk9+cdOVsY8bIjhQrI4BcYptFm5nBqlwH00K1c5Pfo6vcbvaVdv0m3cot/+mL3eXQ779zjbu6fYfwftu+w179Jr3KPbuEu3eZdu6w7d9m067du0Wh/Tbt6m07hNt3GbXuNjeo3btGu3aFavU6t8RL18jUb5Oo3yDRrlWzQrt+jU79Br3mWvfZf97p3Ban+seC0Xpz/k4uQXtEsuaqkS1aRgtqsUo2UVPFYvGLk8/zpH3YeqwPsFQZIcqgCyw5bguctUBUESrKo3iRyfIr4m0VCDUKCIWwRluijmHYHgC6hIvq8xhZ644takcUgBih58KaKERZvC9pAzzXoCj3RRghE69WFePH+NvY6WejGpxu1lGfpI8kNI4i7qFEJy1KkRdxQUfte2IR5LoR9lsW7lMKynFBBzdTrE3FMf85PbOK3v0G1+gbXHwwy9s8Kd329y/6qGp59YWZryq5GyTlw8m+LNdPBsyMqjO3qGbmqZe7JINPBr+u3v4TVtKXaGZkZS0Dysq0uIi+VJFwsTLuaeuZgdczH9yKEsUJMPxP5kZ+GRKBJlKupHtyjRgynV0XDvCiG2puhRcXeHlL+juHsFUTVmSvTrFjV9O+oOU8/EyUvkR7ysJMT5eJ2spNYFm8S8DULOOj5rFa+5il2bxSAu9QU/mnmfQgQLj9y2kVQ4ZeOiEGf9ypUkxg0JvpJsoNkhJ4ujwjAXtaUAcbKYNws4jSWCjgTl7BOO93/K+cnral2cvs7F6Xc4V+t1Lk5e5+z4dU4Ov83xgSz58eucHn+Hs9PvcnH2PS7Pv8flxXe5PJf1HS7OXufi7Nucn35bdSXOjr/N6fG3OFFLfvzq8/L/PJWf/z+v19Xv8/ziu7y4+DFnRx/Tq2VpFhrUJK06USEbLpAOxilntEpwd9h5QK+YYr90xEnjVCVcHzTE7F6lkpGEbUFy10l6Rcm4p46LxXybVKJEwJvGZUti35UCF1WqH+umnysOMY6uxtiaC6ozqYjvxcwqNiWRhnotAgWK0Ws84qUUeFtDNR+jKP+YYYmYHgS9pjxlEq6SgqG7tQkle9UtepSISEarHkNJdRQsOxl0m0m212JsrRvwed+n2/oCq2Mj3H97ldu/2+L++1omhpxsL8dxGYsEHNLXTWPVxlieCTL12MnjT0zMjy8RDfx3+u3v4jVuYV4VV04EuTxqVwa55qL72F4Uy5VoLiT5wc/CmJfZR9JrlsKxKse2aLPXn/nYmREYfRzbeg73TgW/rk7M0SHpaSnofE6gn7EsnZKBFxd/z2F7mHoyTlHQd4km1cSAzVdOysSvp0bWyWCTkKeMz1HApk+hWwspU/WKQHfkEjkldCk/m888rI06WBmxMH1fkG+ia5HlYOq+GBUknybA2ngMzXwO01oFl6GIvCHinhT5iIda2kgjZ6Se01PL66nm9VRyekpJLbnIDin/NjHPNlHvDkm/jlzcSCVrpVF20K476bYcdJo22jUzrYqeulB/87uUMxqKqW3yyW1yCVk7FFIaShkt1byBetFAo2SkWTHRrMhHA52alb2Wk6NuhKNuZRCPU5c3oGQ/SV3lSYailNIaJbhTBV5Kc1A+4bR5xmn7RHVaWiVRrYqIS0heIseWxJH9QT5Ra59mvUU2UyIWyeOX+96OELm86JcdXJFbu2ElxoYAKJ+4mRGZ5NMAy1MhzNui6BJxVZr99qgq8H5ji2IyRDqQVaFDKV+FpLeqwl7F1S7kI9N6GN2SnBl9WDZj6vgTdcrFRwYMRXyuPE57DpvVRjx2jV77S2xMjDH8gfBDNAxdNyoGoFBVA9aaAspkAlUFCdVvpdlYCKtx+ursOrHgr+k0X8e6u4R28ZU0VsQ5YmmTc+yqUGZj6Fbi7C6J7iKqBEvyEMs9QHDGInOVI8v0QyGYDoYqu/NxTKs5HNtlwtYmcWeLtGTjhBpU4gW6JfOgwJtDVGMRCt4mpcAexUCPUrhPJb5PLS2a6D2lmsvEysSCGTy2BMatKJsLPhaeOpgbsTPz0MrUJ2Ym7hh4dkvL0xu7jFwT07KZcXHgDPmYHfYzPeRlZtjP0liE7akMhqWS6nl7Zcoojhp/mUK4RClapJwIU07ZKaWN5JN60uFd4r5twq5tgo4dQs5d4n4juZidWl4moX72Wn72ux76bSe9lp123USjbKAq7PaMjlJKSymhJ5/Qkk9K+1e+ZqJestGq2unUpJvjeLWc9BseDrt+TvdDnB1EONmPcND102t4aJYdVLIWlXBdL45zcf5lDnvv0a/qOJBYxFac41aU/bqfVilEKZEm6RWzeJmkRwR8XboS0SLpzXt92s02lZK8NYtI6rVt24d+xcYV4crJbF9cJUsTfuaEwTceYW02jkMvzgrpneY57D3hxeVrdKtb5CJB4u4UMcfAaBp3lQlaCirt2LguY1QRBQXZXQxh204Mwqi8g8DWdKRKKlolFioT8rvIZW6w1/0yO/PPGLu9o4y3Eisy88g9sJzpigrak3LL1K6sxsbyZlkXcPzyNsnIb2k3vo1pZ4HNOZfaGbeX/GikC7EqBR5VugU5ehiV7iLBxmyE5ckA82MOZQubEKXhPfFgmpgQG9kjaRvKGFg02lk8ujphW5u0r0sp2qORqbNXk5v/NzhsDlGLhcm6G2TsfdKODllPl2K4Ty0lnMc95UMspUW6KngF8b+GWZtxMTUsnkw9I9e1DH2wy4OrgnnbUla3oY90PL5jZVpsZE9DLD0JMfvIx8yIRBwGWH8WRzOTxbo9uC8IDF6+R/lAlXI0zV7jDkd7/8rxwc852v8ZB72fstf9Cf32T+i1foqM9fe7v+Bo/584PfoXLk5/yeX5L7m8+Bcuz/+Zi/N/Uqltkr15evQzTg5/xsnBzzjZH/x+R/LjQ/naLzg7+UfOT/9JJS1fnP0zF6eDdXn2Lzy/+CUvL/+Vl8/l4y95cfHPKnL8/OQXnB79nJPDn6ij06cv/zeeX3yVi5Mfc3nyL7w4+yXPz36pkNCnR7+iXX9COpxQZ3CRBhQjbUVgk+zP8wOJJ9+n35I4+hoxZwq3Pohl08UVOT5Yt7PoVqVoIixNyUqwtZTBYxFV2gHNYpGj/lNV4O3SFplggIg9qVALEZu41gUhJt/suMJ57SyKd1HsXZLoK+nHMpSQAq+Tk0TiRJ1MtEYi5KWUu8Xh3hex7g6xPLHM7ON1Zsc2WJrYYWfJiG3HQcDkI2YPELX78Zo9OHVOzNtWhU8rpN+g1/k6TvNTtBsadje06LcNGDVmLBoLtl07br0br8GLR+/BvuvEsGFhe1XP5uIua7PbLE1uMv90g5nHG8yNbbI4rmFtRs/2ogndml0hDIL2OOlghmoqT6ec4qitUW3To/ZDavEwGVeVqLFBxFgjZqmSll0mIpmT8kBIEFeJuDeBQxdka87J3KiR0VuS1bnFnbe3uP3mFh+/JdGG20gw1vBNg3IlzYk3cjKsnDULYzKRdbPw2KfsahsTCdW3d2oEAi8Eryo5f5FKzMPp4Y84Ofgu/fa/0a7/jlbjtzTrv6NZk7bqm3Qab9Nvv6dkF6eHH3J+8iEXar3P+cn7nJ28y+nxOxwfvsXh3pscdN/koPM2h+23Bx+773Dcf5eTvXc53ZeP73Asqz/4/HH/PfXfZ4fvcnF8leen7/Pi7CrPz65yefoeF8fvcnb4DicHv+Pk4J94+eL/5OL0NfUQne7/G+eHb3B+9AYXJz9Xb8qjwzco541kojEy4RileJx2Iankted7OU738hx1c7SKMXVUi7utBKwGrrhlgqYrYt7KoFmJsz4fZ20uze56Dp9djMUHNEtFjnrCEHyNVnGLlC9I2JoiaM4QMGfwGQfUUfOmFHgUzXIM7UoS/XoGt65K0FIn6qyrWJOcXMZiDbIytvaHKGfuc3L4BbKJNwh5ruK1f4Db+gEe2wcEXB8R890gE7pDIXaPUvwe+fgdcrE7ZCIfk0++R6/9HU6O/4Z89jfEIteJhm8Qj9wiFf2YdPQO2fhdisn7lFMPKSYfkIvfIxG+RSRwnbD/BkHvdfyuj/DYP8RtlSU/vobPeZ2A+wYh7y0S4fvkksPUimP0Gs846o1xfnydT198lcP2KLVElJSriF+XReI+BMgeseTJeGoUw20K4SaSWObTRxUJd+7RLmO3N7j37jI3f7fCtd+scf23m9x6S6PkvQ9vmHh0x8KzYQcyFV0WV8+4B1EyLjxxsSjDpDExEotUNId1s4RPXyFmq5Lx5CnHTciFsFt/k0xklYjHSthnJui1EHQP2nxxv5dcNEQlG6VdSdBvpthvJTloxtlvRem3grQbPuoVF5Wcg1LSSSnmoRzxUYn5qCZ91DN+mjk/rZyPRsaj0hkqCTflmJdy3KdQyM2ch35FoksEfi9LUh6C7NcD9Mpe2kUbrfKyOoOfHP4DB93fctj5gOPeR5z0P+Ls8Le8uPxbFTO4t3edduMxreojurURDlqPOOmPcnH4mIujJ5wfPuGw+0hFUzZLd6nlP+aKVy9975IKONKtJxQeYHMxg25DLnZyW5U4ijyH3TGeX7xGs7BFyhtGgkGDZoHqSPa6IHWldSU6YjEuJ5WeWLch2TpN/KYWIWtDwXYkMzMbELd9XYVGZcMz7Pe+xfHBFzk6+CKHe19gv/8F9npfYK/7N+x3v8BB/4sc7X2J44Mvc3L4ZU6OvqLW+ekXefH8v/Hpp/8Ll5d/w9nZlzk9/TKnJ1/m7OQrnJ18lfNTWV/j4tWSz50ey+/zJY4Pv8zRq3V48CUO97/Ewf4X/7rkv9U6+ArHh1/h9OSrXJy9pr7hn758jZeX32e/sUJFzofuAf7NpQmrS44EOckQR+hZcXsVz24G00qIlafi1l/h/tVFrv9mjg/eEF74GtdE+fiujoc3zYzdc/LkoY2JEcnpkSJ3MCfkgMc2FsacLInicczHwqhvwDFcL+DeLRO2VFQQbjFi5Oz4W9SL1wk7nCqdzmlO4zRlcBoLuEwV/LYGcW+PfEwgTkc0i0d0SpKefEivsk+72qVWblLMVsjGJNWtTMpVI+NskfW0yPmbFIINiqEGBWG/S86mS4ZWefVwh80FtQkmPZJ9WqGRrtPJt+gWmvSKLZXXWU/VqcRLVNIRjvbe4Pzk77k4+xqXZ68pCfWLi7/l5fMv89ln/wefffa/8/L5l9Qme3kuX/+aWi8uv6Y0UqKTkh8/l3Xx/68rPmNacfokZ9Agxs5FOT+LPDFH1NUkH+1Ty8okU8zBX6WYXiPuixB1Z4ioVGMZjEgCWAYhwAqUcXNO2o1RBaG3bBdx7Vbw62uEDXUixipRU4Wwsaigki6dF7dxA69pAqf2KZatxxhWR9ldfMT23DDbc4/QLT/GvDGOSzdD0L5A2LFMxLVCNjpOv/1LLs6+rp7scnGFbGaebGqRXHKVXHywCokN5RgqJjbJRdZI+OYJO6YIOGbx22fxWqdxmaawGcexGGRNYDFOYTXNYDfNYdcv47asEPGtq05Cp67jeN/EcS9Ip1qknJJ8SIkrF8ywTGzDKP6hTs7veexbaSSpQmQBs8NWRm5q+Pi9Dd77zQq//7cl3nxjlQ/f3Ob+DSNTI3aWJ9xsKS28k6VRGzOfWJm6bWfqpoPJ2y4mP3EzPexjVohVs0H0axIolSdoLxN1Z8mEdJwcfpNq7gMCJgt20fdvS96RZEpmlGHAaywpckIhekgtc0w9K8z2g1d3hh71YpNiRu4NeSKevEozC+gbBHa7BETrYqkRsVXVvSgo002TpFtLPEoU61ZIySFELSm9ep+xqi7puWBHJVlXkw0qiSblaEd1nzKhJNmIg3xsl2J8h3JCRz1roFMxctSb5fn5T3lx8SNOerP0qwZahR0a+S1ahW26lR16tR26tS3alQ0a5R0alV3a1V26tR2uOHZSWDfFDxhRrgnxQWqXU9h2CoTsdVIyfk3E1aBHnq5SeoNUMEncK5wSGQSlcepTSpylk9afTCpnxYkdZHNJ5J0ZbFsFXDslPJoSXk1B5cK4NfJ5eagECWZnZ97I+qSOxTENM0PbjN/dUq/xsVvrjN/bYW7YwMaEXbV/pL8pZtSox0Kn/h6XZz+g1zRTK2cp5pMUUkkKsQz5aIpcWFaGbDhLKpAm7IzhNvgwb9vQbzjQrTvRrbvQrbvRbrjRbnrRSVLbTgC9Rmi14cEIX5MkYMuQi5ToVBqc9Xuc9iQfp6MycXKhIjFXQYHbHZqoylm3b8vQRhLWoqq4l5+4mB4WyM8un3y0xbW31nn/dxtce1vD/RsmJkZe+S1XxdzsZ0MCmEYsTH5s5Nk1M09e0bGe3rYz8cDJ9GMvG8KP2Yjh0AnYv0jYmSbl3+Xk4JuU01fx6IyY1EU7jHUrhvyZZPAmQz2/paQMCvlYV3lqxcRSy8gwSxI6qiRCMkTK4jXLg1rAo6ni3Wni0dbw6CuvWr855f4yCadmNYhmyc/m7CBIQBxZOwuSPpfBqy8TdVRVBmo2kCcXKlMQv26wTSaYJ+kTAVmCmDNJ0pMlHy5ST1fZa7i4PP01l2f/zn7DRStXo5YsUEnkqKZy1DM56rkc9WyaSjpBOZOlnC1RzRdpFApc0S0K/SjIljinp8XVLYKjnCpwn7miJJCpYJhmZUi9PirZbbLSv/SVFIjHZ07h0A7CkeT8vbUgxe1jbdbH+kIAzYrEbmQxb+SwbGSwrKXVOFXGzSLJFbDLyrRDxcTNjUoOpbzC9Qxf1/HgAxFOaVRA09M7MqH0oRVv3ppMHHNEPV66jWtKinnU97HX6dBptmiVGjSzkhz3inAbb5CPSjBWTekp7Lo4ug0/0m3ZWQoq+ax+I4FJk8Giy2EzFLCbSjjMg+XSNvCbRHAkk9s99qsnXPSfc94946C6p7QVhYjwsWViOdjFJQHBtC5Txwib08IkEWKWxBJamHio49FtDXc+3OHjD7U8vC0yAoF3ilM8hUuXUW9TIcnODZuVIfqRWO+u6hn5wMBjaR/el4AsD1uSfrAh6sikktEGbMn/qcDfx601ohKX14KIG922IwlmwlqXiMY0YYfIoSVeXRKo6+Sj0jkrE3LnEfKwmCKsOxnsW3mcWyU8O1Vcu2WcuhIufUnpxo0bcTRLQcRHK+KwhacS9eJg7rGVlUmP4pnbt3MKXy2x4Al3RkVFChiqEOwq+pkoIyOOPBF7nri7SC5UU9PxXiXE+fHvOT/+Fb1KgEZG4FIdaimRijQHqO5MnVqmSiVVppxpUMl1VOiwcBCvCOBlXmAvAnp5ElCtMfNGQRW4/AVEWRjzBmiUHnJx/hrVnADGiyS8ohHO4DEmsWpiSjsuBS5DFRGkCzxzc0mCnuKKmCXWKL1YopZi6h9dZKvbwraY87A45WBh3M70IzNP74t3Us/D6zrufbDLvQ9kLG/m6T0hvoqgJqZSg0XKG/d56TU/4uXlTzg98HNy0OewL/SsFr1ik3ZeojLq1NINiokGqVCNoKuA3SBa76D6/8sgSOCjkqAg51OvrULAJeq6BiFvQ8ljE84eqXbOCAAAIABJREFUaU+PYqhPM33AQeWU8/YlZ80z9kt7tFINimGZB5QJ2cQvKCNjiVaRTcPPspCrHrmZEwTcIxtzgrq4r2P4tpbhO2KTk6juqLqUu8RQa5Jk5JBCJc8OmRi7satgnQ/e22XoA52CEk0+dCruizyk2rUgpu0IDl0SnyVBKiBHlG9RyX2E12jFuC5BsgHE6ypeWzGUy6Ykpl15IOOeHOlAQa2YRLzY0th1wqpMqT+TYS2LZW1Q4L5dkTCU8ZhkldTRyLiVUBvF2oyPxXEvs489TA45mR4xq9SIrdkI4liS45qgqiW4QLJQc4E6+UCHlKc1UCu6hEKWI+XLkxcvcLJBuxTg7PD3nB39ilbRSz3bpZnv0yoIO7NNM9+iroD6depS6NmWUkvWhVNfaHDlyW2hOQmwxs3CiJ/NqbgaAcsRRbBnXnPhVYEPIYf7SnaXdDCvdMiiS3bsxjDK62lNIDRRtRtqhCstfegNgbUIR1qmd0kVvSE7mpxHBwUeYl2i4mYH5t7pMRtPh8w8umvkwU0D9z7S8ck1A4/uiMfRx/KrJGLLZgrBWiT8bnrND3lx+WNO9t2c7HU47LbZr9fpF2sq2bcpr7RMjWKiRipUIeQu4DCnMOyG2V0LIUQvSS+zSzy4VXLga8T8TZLhNqlIm7ToT6L7VCL7VKN7NBL7dLOHHBSP2c8f0k13aUj+UECGLQWFlrNrJIdeituDHEvmHzmZHZLJ6aDAFwWB/FAMEnqe3LcxM+Znc04u6VmVhSNIBONqgA1BlQ2ZeCwF/oGGh+9rVdTg03tWZkfdrE7JQ+pF2CD69QCWnSgeU4xUyMjJ0bepl24Scrix76YVWs66G8Ouk/P6ID1a0oRDNolMzxD3yJ1K3gIxrJoo+jVpFqTZXc6hX85jWS3g2i4T0FUJ2SqEXbJEa1NQ7iT9xiD2b0XMGk88TI+41IxBcHRr4yF0i2IWzqtE5JS3qIZSWb90fWSI1lHA15RXwFFFcpEChViRUrxKM+/n9OD3nB6+QVMKXCIshWtYFXptTxW5kBoa2SbNbJu6ZDEpr2eTer7OlfvvCS7BwsRdN3NDATYmBfyTxS7JVaJzsJVJBsK0KsOqwGWsGvUk8b2aWsrFVBKwxAUv0HQ5hwvM0yTCF20Sw05a+T1NEqK0mcK0Fse4JsZRMbjG0KyF2VwJqEJfnHQrWeuTB1ZG7ph5cMPIw5smxj6R86aERAn8RcwYkveYIelz0mu8z/PzH3HUcXDYarDXqNMvV+gWyrRyZeqZCpVkhXysQjJUIuQRR04GQZoZxa2zHccq5Cuj7FxFJNJFsAv5eI9Sao9KZp+2dBmSBwpJVg51KMtlKdShGmxTDtQp+iqknUX8JmGQC+dEQPmCJ7YzO2xRUeDCTJmU7MsHAhraZfyuhtHbOp7ctTLzyM/6lBgw4iqdTbQU2nlBpwnHxcDozV2Grg2K+/HHoo+XZAafusgLZVez7EG74scg6cT6KMmQidOj12lVbxP3+/AKKMkQx64fwEvdwvM2Czg/T9guc4w0IaswVgbcRbEr7izG2F3KoF0uYFgpYVkrKelC0FB9NdOoIiSzVKCkomBsu+KZ9LIxM0Ayz47aGX8gFj4zs8Nu1iciWNYyCLo646uSDVRIeUrExOpmaZNwt8gFmxRjQiIuU0qUKMYq1HN+TvZ/z9nxf6dTC9KuHrHXOmW/daS49WJ/Uzu4HFf+enQRT4KsGlfuva1VBT71ifDqgmzNxDBvio65QMgxGK9nIwOxlezgxdQWAXtEneV0y8LT86oAI4nJ3pwPohV+xnYauyQqmPNqiWbZZczj0g1SFhxCP91NY9tNIXRbcfLvrIZVMOvChBS5UxmAR+9JKJOVZ0NuZp+InkQevqSyeXkNGVJ/KfCzH3LQtLNfa9KvtOiV6nQKNXUhkYuKKNdy0QrJYJmIt4DfnsMlWZzGJA5jEpcpjVfi9lxFEv46OUnrFdNs/ohO8YR2bp9aokPe31BM8Yi5RNRYJmoqETMViIsm2yCX5gTm9Zhyegt6TRSNk/eNPLtr5OnHBuWOf3JTw9MbGzy6tsnQhxoe3bAwLt/7xxJeJbTYALpZD1tTonQ0M/nAwNgdPaMfmxn7RDJ8XMyrBGRxmceUEUK7ElQsGQFt2nZjxAODHbxVv0Uy4iPgLuJ1pHCbEziNCVzGFF5TFrGa+fRydEjg3pWApzD6lbDKGtIsxdGtZNCv5dGv5jAuZ7Ct5/FqJIC2SlnYKJJ3Gm+Q8hXwm2JYNn3szDnVgzk/YmLsruA49OqEMD/sQzufIGgqkfXVyYuGySvOoBIBk0g96mQCDZW6XUlKZmsD+djIB1SBn5/+mn4nRr99wVHvnIPuEd16j0ahQTlZpRSVJSP8BuVEg2qqqY6mVx5eNfPklp25YZ9Squ0uCvQnTcAmk7eaupjlY2E69SEuzr+mKLA+a0BdoORiKtSoqSErc49drE3LK1/YfWJ5KuN31Ag6y4Qdcl4XIVZB6Z0lV1yE/R59Rp0FTTtRtGsBtpb86nK6NCnIMMmmdDP1SDLlxSQs3/gEVukA6DL4zVnSASe95vvKLbJft9Mvt+kWhL3SppWX15b8RSWqfLDbSIGLH1LiToJOwSBItkyOoIRTuWX3LpMKipO7Sy19QDt/QqdwSjXZJBesqAhDz24a61oSy3ISi5CWpEW3HsMmuZiLEQXeF67i0pig3yxMCilWFbkAPbU8+miLkavrPHxvAzlTD38gGGUPM/cDLD8Ksv7Ey+ZTJ+tPbSw9FnSzmYmHViaGXUw/9jP/NMjKlLw1o0pfIxc8/aoM1sRHK3eJGFG/QR1ROq3bZJJ+YmHJK83jc6Zxm5M4DSmc2gwSDmBdj2Nejao3h7LLLYuqVI4ncSW2064mEH6L/FvvzkaxruSQB7zgr1GJNKlEWmTlcm1MYlsPoJlxsfrYwtwDSbgQ6YU0CYxM3nOpCBjPbp6kq0LWXxkUuH0g1RZAatxVISNvxKgI1gYpzp1SRJ3BL85+w14vQb97wUHvjL32Ae1qh2q2SjFWIh+qUIxkqSRi1DNBmrkgrXyQK4+vO9XxZOlxQKF4jWsJ3Eah9QsjvKF4g7lYiHbtoeqD55Nr+Gw+DKtR1seDzI24ePaJmelhJ6uTYXSrGRySK29vEvZ0iPtE3lhV0X8JR4mIOUfYlCVkyqKg8+Je2Q6r1IbtRa+Kb96ckxt5mLWpwYh6fVoQwAKoFCZIFrchR8iWJxNyDQr89If0q3a6AnOUgNms/MVbVORyKdKAaJVMqEI6UCblL5MUgZivQiJUJh4uEw+VSQTLCneWDgv4sUM1sU8jfUQjc0hWWoDOwU5nFGjPdJCN8QCb4wF2JHJvxoekgW1MyhHvLx0TKXDrX5cIup7e0fHowy2G3tngwdvbPHhHz9BVO4+veZj42M/sJ36WhtysjgzCl5YlvnrMjpiY58dDLE/HlEZoa0ECUuMDR/5mSmmJ9KsJ1Q+XC/9fCrzX+ZhiPkQmXScZKxP25/HZM6rArdtJRQ3bldyduTDGxSim5TSG5Ry6ZblcCjdeDNgCYBLEsp3VJ152pxO4NtJEDXnS9io5V52ktaTCw8yLAbafOVh8aGL6YwErbXH/gx0efiB4PXlg/aqDFjTLRTNPwpUnahc/Z0atgDlHVBxmgTbVpACljulX45wfv8nF2a/pd2N022f0O8d0m32aZYmmrFCIFShE0rRLU+y3b3DUu6p06Cd773Fl/K6X2SGfAsZrl2Lq6CCto6RfyEJ1MqEyuaifVvU+52dfJRdfxm/zYliNIEGpsyMexj8RVZyPjWlpjWXwGMpEHA0SXiEeiRqwoqS0UWueoDFDQJ/Gp0+r86p1J4Z+PcjmrJMtibZbCChdum45jnYpye6iaJ9TqtVokQQK8QCKQdpeIBPy0Gt+wMXpD+iUrDQyDepJIS41KafrFJM1hXZORyrqgilAoky4RjbSIB9pKqxZPtMgl6yRiVVIyZlSfk5IkHNtCpEu+XCHkDONyyiX6RDb8wFWx32q66QIrI8FY+waBKk+9bL4xKtG6fOjLuZHhW9oZ/GxjVlxFt3RMfrhNg/f2eTB2zvcf0fPw6tWHn3k5OlNN1N3PMzfdyu8srDK1ydcrE2Ktj3Ixrx0qKRbkWR3OYEUtIjkhPRkFoucdKnW5cgXJ+IfHFH2eneoFMPk0zXS0SIRr7iLMtg1A4n0INPTx850GMO8vJUymFcGfBZRmGqXJTLRw/IzO/OjVhYeOVl94kc3G8G+msKznSegLeDZzmBZDqOZdLP8yMrMXT3P5N7w4TafvK/h/lW555mU5FecSRIO5tEl8RtT+A0p3CqoNoEwzcX0HnfWFNuwWzzloJng8vQtzs9EFh2i2zyi3xS2fEcFWglLvCwuoZRcRv+Ry7Nvcn7yQ86Of650LFdErSYa6e3lCKbdJAF7Xmm8xT2RCZbUhC4bdtMq3+H89MtkInP4rW5VlAJvnB8LMjscZvVJEt18GsdWmqAhQ9xaIG0XMHqRiDWn/iJOjeQsxpC4a6NgGdZiqusiMYHLY4Ly9SqOtVBlTWsS353GIlSlnTy23SIOcdpIK09iSOxFMhEP/ZYIhX5Ao2iilCpRSIjhuUwtXaaUFI5emUS0QjxaJRmvk0m2VEJFOd+jUZMlWLMm+UyVVKxEPFgg6i0Q9hQJu0sEXSWsxiTabcGuBVmdC7A0FWD+mY+Z0UHEt+ywwliZG5e7gofZxz7mHkuxS7CqjaUxIzP3RQarYfh94SiucfdtWVs8uKpj5CMTYzetjN9xKHa36EzkTSBMb0GWCcHJsCqMPgFRCvhfkugSGJdTWNbiCnhjWk+riBHhnIQ8Ro6Pvq1cNQJiyobyJDxx/CYJdk0ovbtG4runJMnMx/a05JLmMC+nsK4EMC8F0Ypx5JlX7dpivBDT9uJjJzMjYvoOopEYw4Uk+qXEYEo77WFxzMr0kJAMJOFCy/BHeh68r+P+Va3axaV/PzPkYm0iwO6CRMxEMK2Jhl8yMSMYl6Oq+MWpnwvW6ZYOB0nJ529ycfrvHDS9HDT2OWxIQrIcRVs0s3WamSLdkoXLs+9yvP9b2rVVmiUr7bKZKyLDFPmofjOBwBzlopWW9k2gQjZUIhMskIt4aFXu/rXAfWY3+rUgazN+Fp8FWXgcZWM8jX4hg2NToqMzRE0FEtYqETl3GyUnXXrDojAUsqqcIeXSKIRTL8vjbpWsoIDwf03ZlQLPqn68XVPGoa0qf6RHIDSWEmGnMMm97LU/4vz0hzRKZsppwYLVqKRkSFCjGK+SjdVIxeqk4k2yqQ7FXJ9aSbQWh/RbB/Rae7RqHaqFBoVUDSGyRvx5dTb3ObO4bRmM+jiarRAbKwFWF/yszAZYng6wMOFlcdLH6kyAtVk/yzMe9bn5p15E+ScFviTHjFEDE3d3Gf1oi/vvrvPxWyvc+v0qt3+/yd23NTy4qmf4Qylym2rXSpyInHkHxS1x2eLQF6ptSKGgheikmYugXYip7Eyr0Gk3RCqRxbCdICgFfvht+u07FFJ+4v4cfptcQAWbMUhQW5vyszrpZXXSzfpUiE0Ju52NsTPrYVt4IyraxMOSpFuoGYmgpD3MPhK8sofVp/IQirsorBKp1ydFBGZlZtjIxCd6nt3V8fi2CUF3DF3Tq/XoppGJ+8I2d7EyIW8mDxszbjbVQ+ZDnPGSteTRZkh5awgS8LAV4fnZ71WBS2CssFQOanv0y11V4O28zDvK9MXXefY9jnrXVWtRdnaxx13ZnJGbeAKrROzZsoRcBcXbSPslQbesijwf9dGq3FMFng7N4TW6VRCUTCwlw2XlaZytyTS6+dQAcbuRxKPJEZBpl/J5yus0om76MgSSTPjFcSczY3ZlBB4fEoa2tM9sLI952JwKsTufxLCaw7JZxK6p4tQ18BjryHQ1aKsQF9ZIIsB+d1DgzbKJcrpIUW7UcXnFNShEGwpCmYm1yKYGjvhG5ZB+84zD7gWn/RNOekcctOSV16NWaJNPVomHi8pf6XGmcYpBwZhAtxtDsxVhe0PYHDE0Mr3biKHblGgPSVGIopGENokLmfQhyWVLT50sjlmYHdby9PY2w+9vcOetNa7/bpVrv13l+m/XufXmDnfe0XL/qoGR6xYmPhE5bFCBfgT8btkZkH7lKCftu22hOk1LW1E4LwMH06D1mlRYN8NmjIBbp9BlncYtMlEvQVcas8HH9pqbpRkX8+Nu5ieEv+hmedrD0pTQvsIsjsuGJTmcbsWKEVTz/GPZmb0sPwuw/NSn2OGLo25WnsjMJIRGUi8Ww+wIXnpS8u4HQQCzw3I5liAvE6N3DGp4J/xHMZOLbXBuzMH8E0mKk6OPXc0L5G2iXQiry2/MWVFJf/1qhIsT2cHfUCyeflUmyRJSLI78Hr1il36pyUHdyYvzf+C4d0PhAmvJKrVkmSuaxQQmySM3ZvA6ZAfPEXcXlFsnF5IRboVCXPqP9zk//Qrp4AIew2CwIK4U6ZysjkuWe5Kt6SiaWXGDS/KZWPjzyhwr3k4xHkifXAp8ZUpe5XaeDZsZ/USiJ3SM3zEw9YlFYcok6Wt9Isr2XFoNGcxbsoPX8RgbBG3i/q+TDsoFI8hB/xrnZz9QNqlSqkA+LpeOwU08HxWWXptsoksh06daOkDSKo57F1wcPOfFwTnP9884659w2D6kW9+jVpAMohrxaIlQMI/fl8UlmDNbTrm47dYUbmeYoNdL2O8hGvQQD3uIBhx47AasWh36DS27Kxo0i1tsz62wNjHH3KMpJu5NMHprnKEbz3h4/RlD1ycYuTXD44/nefbJItPDqyyPy6/RYd7W4TLq8dnMBB02fFYLdq0ew4YG7coOu8tadKtGrJt6LBt2DDJYW5ZMnhA++w6H+9+kWb1BPODCY02h1fpZXXEzO+ViZtLNwqyXVZkkLwdYmvczNxVQFNzZZ27mxn3Mj/vVMWzhqSCjJcokyOpEgOVnAsyXC3UIzVxU8RSFjCu59kpQNu1lVXI3pdCf2JkW+cWQiWf3TTx7YFHk3plRpyrwuSeilrQwPWRh/rGDVRVWINmmGULWMvlQm1YhxNmR7OBvqISIvdr+qwKXXbyv1n65zWHDxYuL73PSu0En56eeqFKLl7giRgerdCbMWQLOLGG3FHgRsYgVInWKEhuSCNOpPnhV4Et4DBLIGmZHXndzUdYnE6xOxFiVb8Qzj0rukleXHFl0K2kEDycuHLmZy7RTjibzz5yMD1sYvWdg5LaOiXsmVeDT98XC5WZ+RHYMic5OolsRGE8Zt6FO2NEkIabTqERghDnau86FKnADxWT+VYFLP1Vot20VTZ5P9SkLz6RyyH77lPO9C14ePeezo0s+OzrnxcEZ5/1TjjtHKs2iXulSKrbJ55pkMnWSyRaJWJOEtBszLurVUaQF1+vcot+9xV7vJt32NWrl9yhm3yGbeId09G2S4TdJBH9L1PsGAce/4bX8K07jL7Eb/rL+Fafp33Gbf4XX+mv8zt8S8cqveYdc4m1K2XeoFq5SL71PtfA+hfS7ZGJvkYq8STL8Nunou+Tkv0M3cBuX1bBHuxrAY9lSBV4rXyfideKyZNDro6yvh1hcCLC8GGJzI4pWm0Cri7O5EWFpMcTCbIjF2TAr81HWFmKszYmzK8zGnES4hFU4rBxt1iclpULuAgmsG4KdK2DbzGJcjasjlECZ5MiyPutmRUJ1nw127LknLiUvWBLg/oRbvcXnn9qYGrEyN+ZkZVJCDyRxegBMSnpEZiGDnt9xeforDpoBJLd1v3pAv7xHr9SnV+zRL7XYr7nUDn7SvUEn46cWq1CLlrhi3Ewr0I1PnDnuAnFvEfFZ5sNNyvG2QkKUk1E61YdKW50OruAzhrBsi1gqpnjVG1NJViciLKmzp4OlMSerz6TtmFLTMMN6Dst2Xk1HrZos+rWYitKQ19TEA6uiss48ELmATPvEbOsYSEKH/Cw/lRahdFHyOHWCDeiQDnYUwrdZinByMCjwVsWI7OAFSVhOtKgkhXAq08gepewedbV7H3PUPeX5wTmfHV/yh5MLtf7j+JxPjy7U50/3TznsH7PfO6bXPabTOaTVPKZVP6bdbHK4P8vLF3/HZ5++zmcvf8inL3/Iyxff5+L8u6qo9rrfoNv6Op2mSHhl/T2t2t/SqLxGvfw1qqWvUSkOVrUon/s7GlX5Oa9+flN+7eD36LW/zl73m0ovv9f9Fr3ON+m2vqG+rn5OW772GseHXyQbfx/jphXdSgCveZPDvW9QLV0j6HHhshWwWbPotWl2d9IYdDnstiJeTwmPJ4/FnGFXk2R7M8nOZgb9Tg7jbh7DTgb9VgrdhqTwSW9coPkhtmYHPEC56No2xbcqBS4m6KRKYxCk8Y4QA5QUIsj2YkCldgipYWsurOJgNuVIM+NlZdLN7GOHimVZnZKJeBTzZgaPfpAWISaL4/5vuDj5FfuNAHuSzFY9pFfao53v0sq2aWdrdEt2Ls/+gaP2dRopH5VwlUqkyhWBqYtzPegsIfEjqUCNTEBYejKl6qh0hlJcXB+DAk8F1/AZReebVq0pzUKazekUa5MxliU/XKJCxuwsPfWxNhFDs5jGtJHHsVvCaxSJZUFJNuUCJRmNiwK9HBZZqMSR2BRqTfJxnt1xMXHfq86jmxJHvZrBqZOzd08RTispwQn8Jf/lh7RrJirZMuW0cKU7NHI9pVuoF/eQc7ccTQ47snuf8enRuSrsz88u+Pxc1iWfnz3nP84v+ez8BZ+ev+DlxUueX3zK5flLLs8G6/lZg08vx/jss2/x8mKNl+c+Lk58nOzbaZe1hD1L2HVz6Nam0SxPo1maRrM4wdbcGCsTIyw+GWFmdIiJkQdMDD9kevQRi+PP2JidYWdpnt2VOXZXZ9CuzaLbmMa4M4NVt4DTuILTuIxldx7D5hy6dVkLGLeWCThH6He+STn3a+y7u+hXfHiMGxz0v0E5fw2/y43HXsHnLOO2VfHY6oS8bVKxLrl0m0yyTjhQxusQoH4Jl7WMz1kj5KkTcFXw2gu4zTmcYkncTWHclLZtRAnmjCtxLOsZtYvLR/G9WjYSSn4t/gLhXjoF6LopIVhi4o4rJaj8WC8I5IUAmzPS4xe0h5vVaR87S6INSql2sFgh8xEHh71fc378Bns1H31BBVYP6Rb7NDJCMqhRjRdoZk1cnHyX/dY1KnEfhWCdUrjBFaumiFMvxKASEQmNkiL31ZB4ONnF5WMmFKRe/ISz468Q867g0gp1P8nukty8U2xMpVmfirM6FWBJ/rCSgS6uk6dhxfAwLA/klm7BoMkkUFKz5r1sjbtVeOuqYItHB/iGQQyIk6n7HqZFYPU0pN4Sxo0MbsOgwHORPtVMn05NMhhv8Pzih/Tb0hZqInHhnXKfbqVHt7anQmzlWHLUv+D84JJPjy/54+lz/vPskj9dPOdPz1/wny9e8ueXn/Ffn/0H//XZ5/z508/5z0//wB9ffsbnLz/jj59+xp8++wN/+rTNHz99yh8++wc+v/Tz2UmX026TbiVLNhTCuCHnSJPSj0xI9Ii8lWSa+VDitzWMSULvjW3ufbCmsh0fXt9R59KFJ14VIyK0VEmSmH9qYvaxmfknVpYnHMqgvD4rr3AHi+OSHudkUXiKEx5s2lU6ze9Tzv4Gu0aDfsmLU7vCQe/rFLNiv3PitAhttkTIIQkMXfKxA5VM3SrvUctL1Ilk+tSIy8wiWFPxgMVkm3yiqYIM4v4KYXcZr62I05THupNWkStS0IJ8NsicYlmKWLTmov0W80dRsQu9ugzOnbTK1pF8HaE42Lck0SKCccXP7qKbpVkPi9NuVma9bAtBd1ukBHlFaijFXRz1XxV43cd+7YjD+jH98r4SV1XiYrLO03hV4L3mNQpRn3KNFcMd2cFLWCUSwiitpAJhpwj3S0r6KUcVOY/HPG7K2TvKJhZyLGDd8iuN79ZsXJ2/1yZSrE3FWZsOsiwXGMEhjLmYe+xnfVz0FRIgJNmWCVXchkU3ujkD+vktjAsbGBY20SwssTO3zNbsKpvTG2zObLOzsIthXY9Na8ZrsRFxe8iGI5RTUVqlKPsdA+enb/Hi+Xc43lvloB3hoJPmsBPnqBPhqBfneD/F2WGOy5MCn56V+PyyxH8+L/Hn50X+9KLAnz4t8X//R5X/+rzO//hjg//xxyb/7+d1/vxZlT+9LPOnlyX+/Icy/88fqvz5P4L86bM7fP7Zt/j8QsOnh2GOGlHqqRARu9CxXMyNWAYJxjftTNyVh9TD9LCDyYc2Jh/YGf3YxL2PNNz7aJehW0amHvlYmxEnVJatxQTL0z7mngmX0cHkI7fSfC88E5i+j4VxkTB4B+QDcdpPhLDubtFp/EAVuG1Hw//H1ns/x51e5578A7a2anerbtWubcmSrGtbYSTbZY00o4maoInMmWAAA0jkjAYaQOecc845dyNHxkmy795/6bN13qbWv9wf3uIIFEgAPP3t857zPM/HtODHrV9kb/unlPNn8TrcuCxlwrYSCVeTYnibdu5QzZh3m6LG69DMDe9b1WR3iJwpbTGoic5jS1E9hPVTSHZJRoZPddlFePUlnBL3vJxROEPdrIw15YKYJ+qoqVD8mOwsTCX8ApDdFPRjiYBe/rcUegqnNopFE0SzFFKKUs18CL0moTIdoxIpGGrTyoc42f/4dYsS47D7lNP+cw7aohHaoZXp0kzX6FdcvDj9lfIHlJJh8pEu1cQOZ6ySOLWZU8o/ER+FXCWlG0l4aoowLGvUiMtLJXeNk6O/JeKdx6aTjWOCjZkE69NykmpktSFOnlnRjUh4kBS6LAjCaKUfFwz2jCQ2+VgfNxOy3aAY/5Bq5l2qmfcoZ96mnPkjpcw7lNLvUcp8QCX3IfXSR7RqH9Ntfqqc4HuDrznYEVTz1zw//ZPCz3337X/j5bN3lXP75dMLvHx6Trm3Xz5uZL3jAAAgAElEQVQ/x6sX5/nm5UW+e3WJH765zH98Nzz/+d0l/uO7S/zl+0v85w9X+B9/ucr//I9r/M//uM7/+5er/Of3V/jLt5f4y7cX+c/vL/E/frjMf37/JX/5/tf88P3/xQ+v3ue7Z1/w9OAi7dIMQZub1Skfkpg1dsPN+EiAuYcRFU+hlXn/XIilSb+6WI9eE++liUc35Skdw7BUxL5exbEp9xPZFUTVxU74nKsz4pBKsrGYQruQRDM7nMGvyqJmOUXIoWdn8BtqxQ+wadfRTrqwaufY3foppexZXGYnDoP4Z2VD2KIa21KY7e3yPjvVHQZlAYSJSKlNPT1kmfZKO2zXDhhUD2gXJLyop1pXecKLGC3qreG1FREduOAVNcKzfxJmYyqObVlGxFWSjrb61bdRwbNexaOt4t2oEDCUCIjYTlScgnPRJFiV0arArxajmLUCti2qGpR9TKcY5vRALpkfcjRIcNyTxKunHHWP2Wns0in1VJJxt+rg+emv2OpepJgKk5VNfLzHGdN6HvNmBpuEvFszSlkXc9QJizlVsqKNQs31UM5d5+T4b4kG57GbA2qmLZs2QUioMz/EbwtTcn0upvqplUlhoEufLTpov+qxp0YszN9foJz5Ddvdv6FV/TmN0q/oVH9Ft/4GveZv6bf+hUHnX9nq/Ss7W//GgWRxHP2ek5M/8PT4LZ6evMWz07d4+ezf+PbV3/L9d/8H3778Ld+/eIfvX7w7PC/f5ftX76nz3ct3+O7VO3wv55t3+fabP/LNy7f59sVbr8/bfP/yj/zwzbv85Vv5nHf59qVkeLzNq2fy97zNty/lc9/kh+9+wg/f/+/85bs3+O7VG3zz8sd0m5/htphYeOxj/LabiTtB5scSrM2lMGpT2E1D2vD6cojZMZfSgQsf6OE1G/MPwxjm87jWq/iNou4rEXOIK6iCc6OMTVtE2jORKVjXBQyVQpimek0Kqy5Hwqdnb+s3VPPvYVxeZuGhGcPKNDuDn1BMf43TYFfqzqS3pozetfiAdmqbXmabfm6bfnGbjnArs20aGSlwseDt0C8dKh1OPbVLIdwZ8uh9dQX5FXGa2znc7mpmw8wKQGBU2swIm5NJ7IsFfFrRkBexL5ewLVdxrNRxa6v4DSX8BqGlZXEI7GopzdpCAu1CHL1s0zezypmUlkVetEm3GFIF/vLph5xsSYEfczw44qh/yJ6gWRp9mpUarapNRdBt9aTAQ2QikqnZ4IxJgD76PB5rUY2Tgg5xh1cJmMpKVegWfYDTR614g9OTvyMdX8LnjKjFjeA2ZMA/LHK5OUsu9nBTJhcGQfAtqxVvgLlRoY9ZeHBlnenR+9SKPyOfeIPN+essj01hWpjBurKIQ6vBo1vHb94k6NITj5gp5FzUJbixHaDX9DNo+dnpBjjc1vHi9BO+ffnPvDjQ8HInxsudNC9307zcz/DyMMvLwwwv9pM830/w/GB4Tg6iHO2EONkKcDLwczII8mwnwjdHSb47yfDyKMnTvSjHWyEO+gH2BkFO9xJ8c+rih28u8sN3P+M/vlng1ekc37z4Db32u7gtayroc0IYPfdlbizjzRJuQ5mAray4PLLBnR/z8OC6mdvn9YycM/DkphvNExm5Sa9aI+6QeLIOKU9HyUjFPROwNFQYqMdYxSYkBknqEimDvkDcs6mIGJXcuxgWF5kdNbCxMMFW7+/Jp77CobepSBDlhwx0KYV7Crddj3ZpJkS701eXtY7oeERTnR/Qzg1oCws1taPc85ImlXCKG6eqkqWivjJuewbjRlSFo06ODllHakv5IKg0ShISqp+Lo59JYpjNYVko4VqrqAIPGPO4N9JYJGB0Lo5WMOaLIrgTwKt4DWRUXVdhm72SFPjHqAKX2IneMSdbwyLf7+0xaG7RrjZo1+w8O/0lW90LFJJBpRotxOucEZGO2L8i4mbxCa5CXPAV1WO5dILYyBNx+WiUb/L09EcU0hqiPiENiBYihVDBNmfDw3y9OSnwBJvzSSUQkgJfmRCHh58pcepc03Pz62XGbo1Qzv+UsOdNxm5OM/K1TSHz5u66WHkkQZhRNYIUP2AsUKeQ6VGvbtNu7tCp9+k1+wxaA/b7SZ6dXObVi3/heODjoLnNfuOA/fohB81jDlon6uzKiFBYNdVdepVtWiWhM7doZpo0001aGYk1aKv172HngMPuPnvtHbbk76p2aDc67A72eHZU57uXj/jhu1/yl2+8PDuW2N/f026+i9WoYXzUxuMROzP3Q2inc1g1FRXkKatn13oK/az05A7uXDJw9Qstlz9d4855KzN3QmxOy0y5QtzeJh8YkPf3yXg6JF0tEs6W+njQXMe1WUAUn/LvJtLhmHuTvcEbVLLvoF9cYGZUh3buMVvdvyeX+BLrulW9C8SdHdKeLlmPJP+KQaNOOVSnmRYtR085Y7aq22yVd+gKQS01oBrtU/B3yYh73ina7YaKwUgGqwQ8eYUU0cz6VTz1o9t2Ho04GBdWqAjN1CbXy8rjAJonUTamhAEqrv7C63g/MYVEWJsMsToXZX0hqnRJTn1W5Y//V4FLizIscMlVOeoecTKQIj/iUG2gJeuwRa/h5PlTKfDzFFJ+MlHRKjU4I0bgoKVKzFVH+u6oo6qsRbJNcm6KuUAEWAFa1REll63mtaRCSYJWuQmnMS1E0cqIZ9yvcr8FEyIFLjHJkru9Oi1P8oDaaD26ZeTWxVUe37lLufAzwr63eHx7npHzbsavimbYqYy5m7Mx5f4RC1k23qVWlIwOCZ6XwMVd+s1t+gIxar+eg5/+lkHNhdyo60mJIxCU9BatzDYtceYkB1Tiw4lQQdJvww1FV8iIwUGkCf4KhXCVWqpFt7DFQDTldaFVCASpS7vZY2dwwLPjBt+9GuOH737FD6/8nBw4ef7sTRr1dzHrVph4YOPJbQfT94JonshWN6tkqI6VGGahsz0Ue6BJRUac/3iFsx8scf1zIVF4WXkkk6U8vs0aMYnWcNQVRSFurRC1VAibqvjEFSWy2OUM1uUczrU8cZeePenBC+9jWllm7oFBFfig+2PS0c8xaExqCuU31IlYWiTskrzVJOepUwo2aKbEoC0xaNtsV7foixIz0aYYaJDzNMk426QdHTLODgVvl0qwr6TGUW8Jp0napRBz424mHrgZv+9h8qGPGUEnTgo2xqN08cPVvojHRFeTxa2TjPO4mpWvTcoySC7aYQzLcVSBO8tkgw3KiRa9cpinqgf/gKNBjIPuoWpRpMCP+gfsdXbZanTYbg7n4Nu985QzflXcoks649koEzKLIErosZJEVcAlGI0NEfBklPtafH2dmiC3f0yzuE4+mibqkNFPGuO8xIhJDLGo5sSaFEVMpnqRdy7IBmzosl+e9A+L/LaJ2fHH1Mr/nWjwHSYfrHD3ip/xm06ELb/yJIRpOaXmoGK4qIrwvbZHv3VAv3lIt3pIp7JHS4q+Eudg5wKnR7+hnrWRC9bURSrnl+i0lnKeSF7fkARWVy/ekK2sqAuiKZcXc9RRIeooEXcVSfsrSHqsxEJ3igO6JTk92s0+W/19Tg7qfPviId9/90u+fe7jcEfeFt+kUXsHi2GVxQmvyjWZexBhZSzBxkQc/XQY02wAw4SPtftOnlw1cvWLNb7+cIEv/jjPpY/XGb3gYPZOiPWJFLblAj5dlbCxSMSYJ2zIKwiub7OAazWLdTGFSYRW8xnsKzliTiN7g99SK3yAZVXDwkMj2rkxpMDjoU9Zm91QfCLrikwuasQsLTKuLkVfl2q4SyvVV22JfK/ygCgGSiQk112XxreeI7BRJqKvk7C0ybt7VIIDMr46IYe0SElEw7885WNh0s/iVJDl2SiahTirkgOzEGBtSgRnAZbGhpJs80oK+3oKm1ZIz1E25sJDFMlCRMX+iSE65q4Ml43JFt3ysEX56yZzX95he4cc9w9VgR90dtkRsFXbx8tnv1biu2YhRD3bUf7MM97Nsuq3JajeZ0zj0slfLlEP8iqTfI8MCW+Abu02L57+mHZpg1IsS9xZwLuRxDgfZFmC5u84mB/1INLKDXHfLKQwLqYwLiWVBUrc67KiX57ys76yQKvxC5Kx95ibWOPBLXFhy4IooC6oAqIVR1Ex0acpMQHSWtR2VVJrPXugIKPlpOS1RNnpn+f44A1KCYt6B4o5WyQFeeepk3TXlQcwKnY5YxHXZk4tHITkbBNirrmiFk9Bi8Q7i+i+RNJbpRBpKplCPS3b3C71SpdOc4f9rTIvTkf57ptf8PLEzd7AhoRTNuvv4TCvKwy2zP9FLLUyFmNVJkhP/OgmfRgm/aw/8jJ5w8K1r6TA5/ns7TnOfbDKyFdmxm94WX4YwTArwfgFfOtiLMjgW8/gleWJtCVLKUxzCQwzCQyzKSyLGcJWPTt9uWT+9QmuZ3XmIf3Oj4j4PmLhyQrT93zq30S03lFzm7xni0pwm3pkQF2ySeJtymLnc4srJ4RpXiZdHtYfBzFMyaUxj3+9SsIqn9slZi/hMSSxaqPoF0MK2LshvlxNEtOG0NAKagtq3YihXxLVYpglcWWJQURQMTIDX5fPl4lREoOY0DVJBV4IWIsk/XUlFakkW3TKAU4OZJP5vkqaVWKrzh6H3eHZb+2w2+iy3/Hz8tkbQzVhNUqn1FfO+zMeXQW/qaw2Tm59EodwMrXikk9gXx9SvRIeHx3VovyYVn6DYiRD3JHHsxHHOB9g+YGTGXH1jMiyxs/quJCvEkPkxoq8ULI4ZbivK2DbSOM0bdDv/pps6gNW5tZ5MhpkbiyAZlpexWmFsEsFW1TSkgM9oJHvq6eqbFfz0W3yiqzbpZQU1v2wwItJC3Fvlai7pbiNKbdc2MQiJxcb2bKJTiKOQIskKlpBojbFMicSgCo+c1mNp9S82FMjF5CZcZtiZGiGqOV7DJo5Tg/v8u2rX/DswMFe36oKvN14H69Vp1LBZGS28nhY4EOpqRvthBvdVJCNJwGm79i5dX6d8x8v8MU7s5z9YIUbnxtU1ok478UpJFx221ISuxxBfQvTfkEua3F00zE2xbI2Iw+XJF6Dlq3OG2q8ujk/x9QdLcuTo/Taf0fI/SEzDxYUpFaiKyyLWcKmFjn3NmX/NiV/j6ygAJ3SpkoSgJ/lhxamR4w8vmJk/IqNuRE/a2NxLPM5/JtlYrY6PnEDrcYwLcvsP6TCfsTwLJvOv+IHA44qLmMS81qM9dkoy+MRdWRFb1qVpZgUdFr5AsRILl5bsUpGnFUyQZFqDzNaWiU/xwey6HmP3XZItY4CO9ttbSuI1W5ji916h8OOaFHe4GT/CtutOANlW+xzxmus4bdU8AsbxpLFZUgq54p9I64iuCSKK+720irf5Pnpj6gmV8l4k0TMaTzaCEbhqj90MTviYPqmPMk9LD+Um3RUXRatyync63mCJsn7kJyVKlGvmZ3Bbynm/oRuVcesfPMzUXSaJA5TgYi3rryRggYXsZeEwEj2tTiD0oEhMjobFrdORD3BTw7foJy1KEiREHyTnprKxxMdutzYXetpBXFaE2nAmF9ptVcn4xg1gq0W83MFr7mK11QiIMhqMRV7JK21TdYvPXuNYqxFt5TiZPc23736Bc/3HRz0rDw7+R295vsE7Xq1etYKZPZ1gS8+DLDwwMnKEydrk0PXj1y2717e4PLnS5z9YF7JZm99aeThJRuTNx3M33Ox+sTL2uMA2ifStsjuQOKSw6yOh9A8CbE2IUaFOOqusr5Cv/Urcok/sDIxztiNJRae3KHX/ltV4NP3F3l03cHCA4/yVPp1NZK2Dml7m5i8sIWLuhxgfcahJjD3L65x6wsN1z5Z5eZneu6fszN108/qWBSL+HVlZ7KaUj9Pw7yMOEOYV4SmkCRgyqkgVkkXkEhAu14WN0FWJS9FZBzyPcyE0C2HMa7KzDuBRZtSIi3pzX3Ggorhzkp8hDivUk2aJR9H+x/y9Og9tpuB4WW4NlADgO2a5N/0VYEfv1YTPju8yn4nwVZVgp+anPFJBJcYhN0CJ60QsOdxG0Ucn8JnSuE3Z4i5PTSKN1SgZSGySMwWIaiP414LYZ6Tb97L3G0X07dczIyIpkQy9eTiGcC8GMeznidiqZNydxTFLRdzsb/7r9TKn2A1mFiVyYsmjdUgAfENMtEuFdHB5LaUy1rcRflQnWygoZiTuYjIBzrUC1H2pQc/foNayaJwhfGAZH0UiUpxCzZ7I6nQJpuiex7zMDvqZva+aJ4F+hrDuJbGqS/hswwJFCFrXeGxUzJx8PXJ+nukgnXykTadQoaTnTuqwF8duDjsW5Utqtf6gJDDoIJ+xImjnUiiGU8o+5oKzHziYnnSp+bkE3clCmODq1+ucOnTJa5/scHd82YeXpLEKjOPr+oZv6Fj/LqFyRt2Zm47lU5eJAxzox7mH3hZfBQYan2mgljXFug1f0Em9iYLY4+4f3mO+ccjqsDD3o+Ye6Th8U35XBe6mSjutSIhyRTfLOPSpNFN+1l8aGZ8ZI27Fxa58sk8Z9+b5au3Fzj37hrXPjEyel4AAR7WJoKYJGhoMYZe8H0zQUWBM8wHsGsi6h3du5nAsyEIEVm721mbcyp5gfKVinxjMsDanJ+NxYDKdNEtRZQC0SwXTAVLKJKWyVm8OSzwso/jgw95evwuW00/koHSL3fpV7oMKhLo2WWv2kYK/Jvnb/Di+DoHvST9ikimK6JFKeAyDIldQaus7IsK6OM0JHHqE7h0CYJWB9XsVU6P/paUZxb/ZgCnvM2sxDAuRFidFGe9gycjVsbvOJi672VmzM+kaHzlh7KYwLNZJGpvKphoIe7mcO/fFKrbbTSiW0xgWi/itVVIRhqUxI1TkvDHLSrZAfmEhPFUSQWrivZQSfZpidiqnuJ4XzjoYlmzkY9J9mBOFXfIUMSzIfashMI9y2Z15qGsv71MPwoy8yTK6kKSTY3guSUYp4bP2iHs7BL39EgFeuQjgq4eqFzzampAv1zgdPce3736Ja8OvBxvu1Xoe6f5Hh7LOtrZoNLiyF1i7kFQUSoE6y1YmMVx+XWYTShulweXddw5u8bIV2vcFpf9WS13z2m5d26N0fNrPDiv5eEFHY8umhi75GDskouJ6z51GV2UDem49LYBDJoVOo1fkYq+xfyjGR5c3WDpySN67R8Rcn3AzN05Hly0InmGSw/ENBzHLn3wnLRMdmZHdDy6vM7d81qu/XmZc+/N8dXbc3z51jxn31nh4ofrXP/MwOhFG9P3/Mg7n24mgXE2qd4R9LMJVeiGBR+WVT82bRDLalj15sI6XR53szTmZvmhB80jL5pHHjSP3WgmPKxNi6Q2hHZBYAYJteSRIYC464Wk0cj06FVDnB5+xOnxu/QaPoUibxbFUC4bTImG6DEotznoDfXgL46vsd+OqxFwylvgjH1DUoxEPJVSwCihHDukTdmMYVuPYVfwURvF5GWOD/6GiH0Kh8aDRTLxJOhHLo9zYebGXEzetzP50MnMEx/T4wHGxzwKiyKZh4J48xklP6NGJuTgYOdfaVU+xWeyYloWZ32FiLdBQVbG5S6NcpdKrkc+2SUTbZIMV5RXshTtKadHv7zHTivL6cEVhOLVq9nJRwrEXBlCphx+8XNKlPOCCPVDSm889dDL5CMf049DTE/E0IiWfSmNbiWHRQGdesQ8W6SDW+Rjr6lq+R1aecnD22e7Vubp3qgq8JcHPk62vYpA0K6/i8O4pop77pGHqXsuZOEjAT1zD8SbKT2oHDEk+xUTaHrExtgVPffOaRn5UsOtL1ZeHw0jX65y7+s15d8cPWtk9Gsbo187GbvkY/pWiEWZ0ghHadKPXqOhrQr8bebG5nhw1cDSk8eqwAOO95m8Pc3ds4JEcTI9Mmx99JM+Np7YmL+zwYMLS9z4fJHLnyxz/oNFvv7jHF+9JUU+z9l3V7jw4RpXPt1k5KyZx7ckb1DGwnGMsynM8zlM81n1NBfRlGUtgHVdkrbCSgorhoe5+y5luJ6/a2fpnpPFe3YW7tlZfOBk+YkAf0OsLcaH7akuT9heJReQXPW+WjhtSXTb0SecHr1Lp+6jVuhRy/ep5QStI6S/vnpaHw4CvHrxG54dXmarFqIYKeMzJDkjtii56eoXhPolF4cYZk0E04owTiJYNDFcmzby8UscHfwNfsskpiU35qUotrWkemGYNKKXEOuTb2iDEt3FbIjZyWECk1Ze8csyuZCY5QJRj4XdrX+hVf2cgM2NY0MUjU0y4S71wkBZxyREUXAnqVBdZZYkghXVC5fjwwLviZZCLn0HV5SLul2ykwkWCNsz+PVpvOsZHBq5iEUUGVkkvDOPPEyP+ZgdDzE3FWN5NsnqnMxysyoP3W/rkPRvU4jtUk3v0hSIanmPQfmQfvGInWqF0517fPvyl7zY83E8GBZ4q/YOtk0NC/Ln33Py5JaNJzcltEfc6CFWJ+JopxLKZjZsYSLKpjVxQ7yYG9z6YpXrf17h2qcrXPtEw7VPV7n1uZY7X+q4+6WRO19auPulnQcX3EzelCg4sZCFWZ3yY9Jq6DR/TTr2NvOPZ7l/TcfC6ye43/k+T27PMHJOVIw2pm470Tz2sjEpERDioFrnztkFLn08w1fvzfDlH2f46u0Zvnprlq/+uMD59zRc+pOWq5+JO97Mw+uCYRza1fTTSUxzYjTPY5HIibUYzs0o9k1JOBMrY0AhG8dv2Ri/YWH8upnJmxYmb5qZumVh9q6dRXmaT4VYX4qrVlFUinL/KQQ7NJIDOvltthsxVeAnR+/Srnmp5rpUM5I12aMhW9jSFtuNPsfbIb55+RtO9kUb5CXpzWDVBDgjT+91sS9NiANcjAo+lYm3Oe1HPxfCOB/FvmYlE5UC/3/wWp9g0jiwroXw6KP4TAk8xjh2gf5I9PBmGLMujHEjyIbGx+ZSGMNKVFmp7JsJnIY4Ec8mu9tvKA1H3O8hZG+Q8DUppzt0qj269Ta1QpW0PJF9OeKBPKlwgVysRDlRo5Fp0i50GNRiHO9d4OnrOXjCI5FuObwSMqlNYF8Rc26ItUmR77qZkx5csgInwyzOSM5IgtVZAUJJjJys1NukQ1uIHLeRk1z0XaUrHxQP6QjpIl/gaHCbb178kqdbHg67Hp6f/IFm5Y9Y1paZuetk4paNsatmnlyzKlKajE03p2VtnUY3m1RmYf1cUqXNTo7YGb2g48bna1z5WIpJw8UPV9W58tE61z/VceszIyOfm7n9pYX7FxxMSgjpwxCayQjrsyHsm1r67V+TTf6Rxck5HtzcZH7yId32j/C5PmDs7iy3Lg25o7MPpS0IopsT15Wb2XtG7l3ScOnTOb58f5ov/jjJV29P8NXbU3z9zvzw6/h0g+tfGLh9zsz9q3aejIjnMsj6eBzDzHAF71gtKLe+xyBmBVn0hZh/5GHshp0Hl8yMXjAwel7Hg4sGHl4y8PiqiakRu7pPiH9VEh0k3ddrLJFwNiiFerTSW/SKO6h02aNPUAVekQzxDuVUWxV5qzBQS7m99hanO2G+ffkbVQ/1vJuwU4ztbmlR0qrAl1QSk1tl5y3ctrA8amftsZfNKXmSW0lHLnF89N9IhG4ScEo2ygZJ34ZC0mUiBtJhHanwJqmojlRMTzKqIxZaJ+rTEfPrSQQNpEIG0hE95ew4x4f/yN72u9TyK5TSPuoFP916gK22n17TRb1kIZ80ko2ZKKSsVPMOank7lZSFWtZGI2+nU1nhYOdDjg9+RSluUjgVv6mAV4y6G3Ecq0J6C6Kd8rL8xK08ggvjfpamxBkvxZ1GO59Bt5zDtlEmaG+RCQ4oJ4ao67qKJuupLMJKUDQccbYb13n59J/ZbzuUk/vp0e+pl/6IcXmJyZt2Hl818+iKifHrVubveZSS0jiXed2vigtdUmOjamM7cdOmskOuf6bl0p9WufCBhvPvrarL3fn3tFz6cJPrnxpVcYvrXsJz5tSWNMb6TELpflxGHYPuGxQy77A6v8CTUR3Lc4/pdX+M3/cnHj9a5O5NO3NP/EoAZ1iWeDYxCkfVZGfijoXbF9e5/MUK5z6a49y7k5x9Z5rz7y9w9ROtot6NnDVx54JZcYMkQm5aTcpCrI/LXL6IfbWkQv7F5GDRRNGMe9ULXdz0wjy99eUmt74U/qmOe+f1PLxsRPTykmosaEcZDds3cgRMQn1uUA73FFC4X9pHTMcSn3x69B6div91gYslUeKTt9mq7XHY2eZ0Vwr8DY73LlLPeQg5EuiWvMMeXJKLpFeaHLExcd3E1FU9czdMLN9zsjrmZ3PGQdh1m6OD/5vD/b/jYO9nHO3/A8cH/8Dx4T9wcvhzjo9+zslfz/Hwv4+P5Pf/6/dOj/87cgQp8u03/xvfvPo/FZtFwUtPf8GLZwIP/SeeP/tHnp7+9c+Tz/lHnp0Oj3z+0+Of81T9OT/l+dO/Y7f/JnGXG7/MYQ0iWsrg2UjgWIthXgqzMSNceuHUe5VsQIwZ69KaLGTRL+WxrBXVqDDiapEJdSnHhbneQxYNpViDvKdJSu4OngDdymVePP0nths2BnU7p4dvUiu8hW5ugbHLdh5dsvD4ilXJDpYeSFyZMOeT6GdjrE+KfFiyRdxM3LZz/4qRka83ufrZunLYX/hQy7kPtJx9b51z721w+WM9I19J+KaLiVteZkdlKyieSIl5SLA5G8Vp2GTQ+Q3l/PvoVzXMT1jRr02zPfgJseifWZhbZ/yRmAnCbC7GFVJR9hKSsS4mYenjp0btPLhp5PYFLTc+W+Tap4tc/VTuBJvcOWfi3kUr9y5ZuXdZKNMWntywM3tHFlMxNiYlHyWPuHsskhE+5Wfmjo1REZN9aeD6Z3qu/ln4Qxvc+FKSrgzcv2JWNDtx62/OCiQhq5ZwgnlJOmsUVYuyTbewy04zwbMjiU+WdNkg9UxfFbfYKTsFkRfsst8aKOGcIGUOdy5QzbgJO1JYVkPSoggcdVZf0msAACAASURBVJhiOn7TxPg1A1NX9Cp6a/62jcX7EuXgxrC4SthzlWz8awqZ81Ty56kXz9OsXKBTv0SveYWtzjW2e9fZ7V9nTzDSg+scbl/jeO8Gpwe3eH48oo5QtkTm+vLZP3Oy/xWHO7c43LnLwdZNdnpX6Lcu0K6do1W5SKd+jV7jOoPWdfV3yMcapQvUC+eo589RTl8lFZhSJgynIDM2RYop5OAEdllGLIZZn/azMu5l+bGP5XGhD0jkQlrFwQmL06mXp7dkrTTJh2Xu3nsNuW0iUb9S3FFzlaQrQKdyWdF/BwI8rTk4OXyTSvYttNPzPLzo4NElB+PXnczd87L6JIROoALzcTZnwqxOSAC+KO9sKln27kUdt77eVKNCKYLLn2woGNXFjza5/KmBW1/beHTdw+x9iaCQqUl0mHI1I+8CcdYmQtg2pEV5g2rxQ6y6DdaXxeCwxN7Oz8ilv0KnNbMkcAMZ7S0JJDeDQ4RaIsGVWOuV1PAdfNLL9KiMKjcZPS+9+Tqj5408uCw0OIc696/auH/VyiOJf7glLU6YFcnEmUyxOSOAWomJtqk25OafNxTU9/LH8j1pufzndW58pePOBQMPr1uZvudBMy73vmEQlPy7CXU7YauQ9zWpxvq0szIpG7rqJR98UA/TzG7TEI1RTl4AO2xVhpvMo76Pb57/moOtc5QTTkLWpMKonJFs6aVxBzP3LEyMmJi6aWL2pokZObfNzN21q1CexUcOVqfMGFeMWDfteEx2AnYHEbebVMhHIRammo7RyMdpFeO0S3JiDOoxdttJDvsZTrZznO5kON018Or5bxRBa7tloldJ068V6JST1LIBclEXCZ+dqMtNzB0k6Q2R9PuJedwErXY1efHoLbh1VpwbTqyrARWSI8E49jUR9CQV8Mm8JBtVWTr51Ax88dEQ4CTJTBvT4heVt8Y8fknS9QyTdGXeLQGQssHMhxpkfFXiVkGTywIpTKd2jefP/plBx0Wn4eT48PeUMm+xOrXIoyteHl/zMXNH8kEkyk6IGcI9EqOuaDH8zD108/jWsMDvXTIwck7Hza916h//+pc6rn+h59rnem6ds/LwhofZhxLNIYOAJPqlYVuyMRtTklTJkDGtrdJrvUG9/BFuswGrLkTYq+Vw/x+oFM7hMNrZWBTjdgL9gly6U1gXszg1BTzrw9bCLivz1Qhr015m71oZv27k4WXZrlp4fF1M4V7GRzyq/34y4mbspkPFPk/eDjI/GmPpYZSlB/J9Wxm7ouP2l+tc/ZOWy39a5+KftFz8WMuVzze5dd7AqKTN3naosNb16bgSjkmUm4x0A7ocUfMwFa0UaivRXK8W4/TwExWAP6hFaOV21WnndlSBD+SSWWtx2HXz6vmvOOifpxxzEjJLdEmIM8aVICuTkkthY+6+jflRO4ujdubuWJi5bWLmjgWhDMzfd/3/2RWiFhSammh3feYSMXedfKhLNSnC+QHNnKSD9mjlOgyq/dcy1F2Oe/sc93Y46oV4+fR3nOydpV+O0cpu0ynsqc+ToMukAnlm1NNYYglc6wUc6yk10RGJpaS3aidDrAv+WlbXM1El2VXsd00Uy2vKsm4mwJoE2TzyMH/frajComxbfSLtguRfp3Dp84ptIxTmXLilrHq5oCSdyjazStwhSr4KIXOdpD9Gt3FT8dy3Bz46LQ/Hh3+glH2LtZkVntyMMn1HEndFSZlSDnFxoovOQr8UY3NBcIABJu+5laxWSBZ3LhoYkbdzdeS/pVUwcl+wJveDijgtG1cJwrSo8CR5scjTO8bSoyAGzSrd1hs0Kx8TcFjwWhLqPnR88HMaxfN4TTal05fPkd5/fTyKfiKBdTaDR5PHL2m9BjGRx5U/cumhg6kRM2PXjCryeXLEo2x3IiCTEeHCWISJOx5V4BMjIj2IqJgPif2Qp//dr1e58ckqVz7QcvnDdS59tM5luagK5PaKhUcjTqYfeBEzjGExhUNiS9bTeNbT+GXRY8iStJUo+IYMn47EJ6sCf59+NUw7t0dHTn6Xbn6bXrGvkq0OOk5ePf8lR1sXqMU9RMwJHMtBzphWQ2hnvWgmXCrXWbL0VsZcSL7zzF2LOrP3bCp8ceWJT/FmTEuZ1zndYgSWgmxTjm/RzO4qN0hHXCIF6ZF6bJW32a3tsNfYY7+xz15DdAQhXpz+O8c7Z+kV47RSO7TzO6rAywmhf0mAZxanLGpWMhhl0ylPYpmGjAkCxK1Wz6JeXB0PD4t9WshkfkxLIQxzITZkY/bEq8zMc3eF/T7kv8+P+pUQan0ig3l5GBUdcwuSpa0UbJJ6mvSUiDmLhK1FgqYCfvERmiSrMEG3NcLLF79ibydIv+vj+PgPlHNvszG/xvS9NAtjWdZmxGMpvb240OUCK7ELYlKQTJiYWvxMj3oYu2Vj9KqZu5eMw3PZyL0rJvWxsdsuZh8HWZP01/WUQpRI+KdwjfRiEJiMq7xAo2adbus3tGufEvU4CTsy5KMGRVlrFM7iNZhUFJv8nJQ2RrRC9wPonkSwzSXxrmXw6pJ4DBFMy36WHjqZGjExds3AkxsWpu/I5jSKZiKFdkYGEllFoZZpyuRIkKmREJO3PIxdFbzKGjc/W+HaRxpV4Fc/WufqJ5tc+1LPrYtmHtxyMiGpVhNB1uclczGLZ0Nyx1N45aynCOrSxC15sp4apWibtgTgH34yJDxUQrSzUth7qj8XaXNXLXrqHHQcvHr2SxX800oHiFnS2JcCnHFtRNU3pp/zoZsNoJ0RC7+X2cdOJkatPJa3rHs2ZsZcLM/42VyJYJZVrCWD31Ui4q+Sig6FUULp6ld2laV/t7arCnu3vs220laLiXWXVnWbbjOsREon+2cZ1KL08gN6hS1qqTa5SJVEoETIU8JnKyll48ZMXOlbZu/6Gb8TZFKMvPd9zD0Ubo9ojt1oHrmVZED72M/GoyBro34Wb7uYlOD5y+bh5e+yg+lrflbuxNA9yGKdKeBdqxKVOAoxAgRapL2iiRfZ8NDsoRzkxiwuY5mEL0m/eWcotjpyszsw8/Tk36kW30e/pmNeYFPLEu2Wxawr4DSJvqdEwFbEaxCqhRSRRNP51APk8XUj96UwpMiFS3Tdwt2bZu6PWNXPf2Xaxeqsm81FL8bVoPp821pcLdfkgilbYvOqXln8+vXPSHvcJGwZ8iEdJwc/p5L/GofBjHZWxF/h4VGU5DDaiQiS9GqYFwN5GPOKPEA8anwn053xG1YmREB3f8gCEiHcqhgUFkRT4mFGlnp3pIWRPl3H6IUN7pzVKh3L9T8vc/XjZW58ouPWF/ICtvPwtofxsQCzUxFW5gW9klCkD7eMB3VDQ7q4fLz6DCFrnoSvTCHRoFPzc3L8J04P36NXDg7dRrLBzIl0okmv3GK73uCg6+HV818rNWE97SdszWBaDAmrXuxSQaTAN2d8rE4KeNTJ7JiD6Qd2ph84mJNVq5iFF4OYtFHsAjt15gkHqiQF35HoUs8N6JYlEHFHZcbt1kXltcV2VTZNfbqVLdrigq7sMGhFeX76JqcH59Qgv1sc0Mr2qSRa5CI1xWWMeEU28DokSLjy9/1MjngZG/Er4sPMwwDzj3xqubLwwMXCPSfzd10s3nGzJAGPI26mb0i4v2T+mRm9aFERvk+ueJi7GUZzJ4HuSQbbQhHfepWopU7CVVN+yJC1gN8sWeQyXSlhM6RwGkokfAkGrWGBvzh2s79l4enp76hX/oRVb0azmGBTIsw2i9iNZTwWScKtEXFU1QvGJU9gmepM+lWBS174o+tCbxCysYP7N+2M3rLx4LaNuccuZNUt766bi35Mq2Gs60OpqVEj4TmCdJEIvQ16rd/Qqf6ZuMNJ2JQm49chLUq9eBavxYpe5ApT0qLE0E7IZXB4pMUTN5bgVoyLclfxMn1bZu12Jm7ambztZPaBj6VxyZOMsy5qzOUYK9N+5h5JJJvQJ/Tcu7zBnfNaRr5e4+Zfl1afLHPrM8kGt/HgupghAsxMRVhaiLGuSShzsWhPxHzs00uRZ5Q022fMKhRjwj8s8FbVz8mRFPi7dEs+WlkRUXXpFtsMqh1F9Djs9jneCigw7/HuZRrZIFFHTr1wz8jM2LwcYmPGq17By09czI05VJEvjkth+1mdDSI5hAKWsusSuM1pwt6KenLnE12qWQH/7KiogR1pQRoDdupddmodFW8rfr9WsUertEW7ss1OJ86Lp7/n9OAC242EameqiTaFqFAl5AleUZgRr6WA/GNqxoPM3fUwccvF2IhX8SQFcb2kkrT8zI+6mR5xKHHS1HUHUzfsjN8QHKHc+ofEttsXzdy5aOP+ZRdPrvmZvhli+X6CjfE0lgXRQRfwG0UTn8OrjpAkyvgsVezSowrVLZRiuyty2V/y4tjD/rZNGR7E9e8021hfzmBYyyNJBU6DSHBriHgrYq3hMwg+UfQbYdYe+5i/J1wkeVLKcsjD+IiXxyMeHo3I9+hk9qGbFTFJzATYXAxjWI1iEpOANol+Lcmm5DwuR7Hp1+h33qBZ/piA2aowJAmPjqP9n9NtfEYqqCVgc+E2uHBuOrFp7Zg1VkwrFswaC5Y1MzatGfuGGdOKnvVpLauTWjTjWjSTG2jnDOiXrZi1Tmw6F3a9C6PWzPqijpUZLXOPl5i6P8fEnRmejEzz+OY0j65P8ejqJJM3l5kd1bI4rmN1wYxuw47F6MRpdeG3u4k43cRdLiKO18fpUsK+lN9PLhqmmo3Taxo5PX6H08N36FW8tHMdlQM/qPbYa21x1Nvn6fY+z3ajapN5vHeFZj5E3FXAqolxxmvIKYWYdkrYKjIrdiOFrZn2KxSgfkUG8XEs6wnl4BCQkbBeUuEGxZSYDoSmsEu/Ngzb2W0O2BELUa3BVrVGuyAQKAELdWmKS6a6zV4vwctnv+fpoRR4UlFvRS2YCVRI+svEfZLRUsJjkjl1FFlCCSFBSBLj94QPGWJlUjQmcaWqmxv1Kqnp+HUHE9ccPL5h59FNGw/liXjDxp2rFm5ftnD7io1711w8vOFl7KbMayMsCTZkXMyvEmEgo6WkcpzIBVq8qn5rDac5R9BRp5TMcbA1yrff/JKXx172t+yqwNv1j/FY7GphZNQUhlzQjTLuTfFkVvBulLBLoP+8XPICLI16mLvtZErW+TfdzIz4mbkdZPJ2QE0sxIg8c0+w3d5hzLBcrJdjbGri6KTANyTpNovJkMHtWGXQ/zW10p9wGIxKahGwmNnf+QUHO/9Gv/kV7cpVaoWrVHJXKKYvkU9cIBs/PzyJ8+QS58knz5OLnyUd/pJk6EsSgS9JBL8mFT5HJnaRXOIyxdQVSpkr5JIXScXOEg99Rdj3GQH3J/gdH+Ozf4TX9jFeq5yPCNk/J+L+iljgLKnYBXKZy5TyV6iWrlAvX6FVuUy7colG6a/nMq3yFTrVa/SaN9npjnC4e47nz37F6eGfGNTC9EqiIuyx09hSpoenW8e82D3imZjCX/4WKfBWPkzCU8K5kRTScRHzsmSbBNScVpSBovASB44yJxiyuE1ZPJYMPluGkCtHzFekkGjTyO/QLgqzUJBuu+w2t9lpdtluNOhXK/TKRRVGX8+2lIVICrxf31EBPWLWPT28wKAWp5KSUM2y+qLk17i3QtRVxmvKoF8SN4jM6W1M3nUwK8aIKUGcpNmYS6MRjMqDgJJzCsVs+o6PyXtexh+IT9DL4/teHt5x8uC2HDeP7vp4ci/A+GiQ6dEIMh1YHIugmQizPivksrDS5phXkzg2C8oQ4bGWiPk6NPJFTvbu8903v+TFkY/dnoOnJ2/SqsuIzophMYdxUR4YktGXwyoXTfnYXIp1MeE+8DAvl90bDqau25m89l8FPns7yPRIQIXgP7nmRqhss6NyqQ6qUMo1sf4tx9lcT2E05rE7qnh9VcKRdXZ23qAqbZJBrwjTNq1YDD/h+OCfeHbyU56d/ozTk59xcvRTjg5+wuH+33Ow9786P2Z/70fs78r5MQe7f8/B7k843PtfnP2fcLD/E/b3/l79f/d2fszu9o+GZ+tH7KrzY/a25ff/nsP9n3B8+FNOjodfy+nJT3l68hN1To9/gjpHP+FUzrH8nnDrf86L5//ACzEy7N1hp1Fip77FTmOgzA7i6jndOub5ziFPdxJ88+K3HO1cVk/wlE/iArOccevLmCRrY06cFxGF6JCoY8dmVjlcgvYiIWeBiDuvUB7pUJl8rK42SpKfISHlWzURPok3bsB2vc2gVqNbLtIq5KjlhLrQoi6XgmJfXTiPt5K8ev57TvbPIWOgfKxFxFUmKgGg3qpicIp1TETzNgnan/YxL2AjJc6JKH6PMHs25jOsTsVZHAsx90CMDCFV8KsyRltOoF1JsrqUZGkmwoKArSQdSi6scwl1libiLD6OqKmGyGlXpoIq2nl1JqDsdTLikyJ3m8sk/G1apTynB6OqRXl64GXQElTI72hU38dhlLjkjIoUlncDcTRtSmjPRExp46dHZNVu4tElI48umBi7aObJZSsT18RQIFp6D9O3fIxf9zB2RdoXWaTIHUM01BIcFGdd8vz0WVzuKpFYl0xuQLFi5vDotzQbH+O0mVhbkJm3/NuFyIasVNN6qlkd+bSOZHSDsG8Vn2MFt3UZl2V45L/d1iVclnlcllmcplmcxnncpiW8Zg0Bq5agfV1lHgasawSdqwTdq/hdq3idK7isyzhMi9gN81g357Gszw2Pdh67bhGPZZmge41EaJNsYlN9LcXsBqXsOuWMllJilUJ8lXxUQz4q/71BOa2nUbAocke/EWarUVVRyUJ22G1uqbPflpHzPif9XU62oqrAD3YuUc8HSQUr6nJ/xrFRxricVUsPwdJZBAMo20BjgaDwdNwlEv4SqrDjNcW8qedFpjignZcxzRb98haDipDNuvTKTTrFKs18kUYuRyVTV9l3DbkYlKQ33+GoH+fVs99ztHeOZlEIBE3FqIy6ayS9YmwYGobT3obi+AgmT7TWkpglVAkZtW0uyAYu9RpUJe79qCKPWYSAZirjddbwuxsqUNJlKmLXC6o7h91UwG4uYDHm0GnSrM7HWZkNqyB4zWxIURpWpgOszQoQSxwnOYX4jnoFEy3689t88/IXHG27lAb9+OB31Ksil93EsJRUyavDgHrJRomw9DjI9D33azy5XmkxZEP4UARQVy3qriBpAtO3JXjUzcRNF4+vid7Dx/xDQTQKBCrJxlIa00YOt61MTFKbiju0Wvv0B36ePft3+v3PiYScmHQ5jLKKF1S3TcwqaWLeFH53Eqc1hkkXRrcaYGPFz8ZKEN1qCN1qkE2NH+2iG82MHc2Mk1W54M4FFDPJrFo3IUynFXLEoU/gNCWVq14GDrbNuAIi6JdDiukjgZpCblid9qGdDSAfF3+m25Im6M4R9WdJBDIkgmmSwRTZYJq0L0nckyTmkl9TJP058iKuy1Sp5Zu0itKabLNTl7PFTn0wLPLWDoedLY76IZUPvr9zkVo+QDpYIeQoccawnGNzXtbWEo+bV9G1XonXMpcVqi/hK5ENlynGq1QzDRo54YLLIqdLS5KQsh3auS7tfJt2vkUr16AhX1S6RDVVpJiqqxeF9OAST6B6p16El89+x+HuWer5EOmwFHidiEt45Q1ywTalSI9iuKtCHCW6Ysi1j6h4Aa3kaEhu9euzuZjEKIsnY5GAo0YsKJSGLsXUgHJyoBY4Kb/M6+UCWyPqr+J3F7CZs+g3EqxrImiXw6wvx9AuRlmVi+BsBPlzzWsFXKYKcX+TRlHyyG/y6sU/s9ez0a5YOd6XJ/i7ymcq3HuRDa/OBFmdlmhguQhLK+Rh7KYgyk1Kh/HwqshpnUzdcSkE49x9twJWLT6SbMMA03flyS2xC3G00xJRLdnqJdxi+/M2yAu+r7rLVnef3Z0QL178jr29r8jnA3i9VRxWAd2W8FiHqbA+awGHJYtZn0In6lHRjEi7o0mhX8ug16bVx9cWIixOBlmckOg94c5LiJPAwIrY1yoqt0VywGW65LEUcZuLiGHGvikhRykMKlpZCM+yKY6pdx4ZL8rM26iRWb6AFioKTBt2lwm7S4TdRZJuCbwvqqQGGdHGXGWSilnaoJAQDE2Lmrjk87LUGVIdpMB3Gn119lpdDpRl7dfsbV+gkvORDIr8osgZyb+TC5t2NoVR2I+bZYLmGhFbVaH60gHhmFeopGrUs8IPl0DEDo10k3qyTiPVGJ50g3q6QS1Vp5qsUklUqCTK5OI1iqkmdSnw8kCNDg+6w02mZAxW8yFS4RYhie111Ii760rwXon2qcYGZPwtgtYSDl0WvSaunqzauYia7Uowu06c5iLWERS3t04q0qGQ6lErDOgK9rmyRyfbp5EUEX2TckJwgRVigRwedw6rJYVBF0O/HsMg4TwS0L8UZ30hgV5p2Ev4HS3S4Q6tshT4DV4+/yd22lZaZStH+0NXvcuyweZSiNVZLyszPjSSljojeYQhZhXY1snYbQePb7uYuOtVDFBhgS4JDUFyZabFJBBX70gr4zE0k7INTaNbEAR6CZe+RkgcUcE24lWVYEwhje1tBXnxXKLtzlJvREikWgSCNXzeqnoX89iquMwlrKYMRp3M6GWUKZOYNKbNvLIJWo0FzPqM+rhmNsHydHx4iZ+WECeJOi7i3pDYtRpBoapJ9IZQna1FvMY8zs0M5hUhPkTQzYTZnBawVYSV6bDKPNHODynYsvTymOVzqwSdFfxO+dnKQi1L2Cp+TgnulGzMKumgMEubFFMtShkhVbdopPv0SzKGFrrDjiru7XqX7XqT3baLl89+xd72ecpZL3F/UQFvzyyOSaZ3BCl0/ZIUeIWwrUHUWSfpq5MTw228qgq8mhK8cgP5tSLtinDFX59KvEEl0aCSlMAW4ftUKcYqZKN19SqsZ3p0i9tsV7bYe73JlAKXJ3gm2ibqbSGJojKLzoo2PNShEhGOeUNReZ3GLAahIUtIzIwUQ/T1E1b4QiUinjrZWIdyZkA9L3jngdqibpd26Gf7dFIdmqkWtaT84ErEg1mC3jweRxaHOYXVmMJqkBl2Dt2quHwyGNcKOAw1EsE+pfQWXbHIHQwLfLtloSVP8IM3aTffx2uXFkViLyTu2MParI9VUTFOCcjWx/QDD5P3Pcw88LMkP295Oqow+Bj6xRiGZYnXGAIF5PKsnU2zsZDDqCni2KwSsAmasUUhKsSNDt1yl0G9y243yItnb3J6fI5eJ0653CeT6ZCQe02wqXK/hThttxSxmPKY9DnM+hw2yZ101PF7W/g8dTzOMlYJwdeIASTF+kKSjQWRG2SxaCQrp6zyEkOiy3GUCDukhZX87wyOjSSmlQi6eRk3B9FOB1mX6L4pkRqE+GuBWyX+QpJmZfxqLeO1lvCah4CygMy/LXlizhJpf03dyyqZDtV8h0q+qe5xzWyfvmzGFbpEWpU+W9UO/UqN7aZDUdb2ti5QzvmIB4VmneeM2J+WHwuSO4thWX6Yf2XUNxXpuBgTC3+DYrRGPlRRR1KgsoJhDjRJiWYj0CArZLZEm3JS4hza5KM11bdLBG4xMqAa36aR2lVpU7KRenb87wrY2SmEqcvnxHoqqkFWtFl3lZynQtZdJuaQbaBw75NqDqydiSump1ZekIsZnJsSVtmkEJYMky3acicoDhjku7STLeqhOrVAnWqwSSXcQuBayVCJSCBPXBjtspJ3FPDZC7hsRczGPHp5t9AVMBtruB1tirktWrU9trt5Tg9v8/LZP7HVNNGtC1H4TXqdD4l4DLhWw9g1QSxLPgxzLjamHayOO5T0YfGh6GF8rD4KY5hMYp5P49BI3kkOpzaLTWjFS0l0Cyk25W4xn2djuYRls4rP0SAeapJPNilnm9SLLdqVDr1ah4NOjJdP/8CzowvsddLqwt+r7dAq96kVOpQydTLxGkF/l4Acb4ugr0ks3CWT3KFUOCCf3SGd6BLwFLCZItiMcQXVMm/IizyrjhSn05DFay0QsueJOIRtn8FjSuHQxTFrBUUpm86IioBenA4rTI1c3AXxLi2KcD0dWtGeiBk8qwI4ZYsp63pJnY3YSiQ9ZfIRgYm16dR6dOo9GuUWzXKLXq3HoNZju95ju9Zlq9KmX5IE2hqDuvhjf83+zhXqpRi5VJtEtMYZ6fNWp+XmLRQFcdRXiLnbpIRgq/QZDbKhCulAkbQvT9pXIO0bfiExtxCHy2ryIQVfirWpJAWiKkubGplgSaVK5fwdCsGu6qsrMWGc+zk9lAI/S7cUpZkeKE55xt9QTE0hISftJQWNDVrka5JLUwbzenoYCzefVJdMsyaHR18h7mxRDPWoJSWdqa9aklayTSlYIWXPEpdkAHOOuF0c9yUi3iIhn7wdFojaC6rAAwJIdZSxmPMYDXms5gpeZ4d4eJdacZ9e44i9XomnR3dViyJPcMnDOz36A1u9j0kGbfj1ko8dw74WwrTkZWPGhWbCyeIjJ7Py9L7nVbRf3VRaeRntqwUlWRWYgFzuZZolwippFQ2rJSy6Kh55N/W3yMQ7lLOSJCCtkjifuvTqEngT5eXT3/Ps+AIHvQy7gvdoH7Ld2qNX31ZQrVqxRy6zTS6zRS49IJ8ZKOpcrbJHs75PtbxNPtt5TUIWpn0ej7moemazNocEtFo2s7gE3uuQaZeMdItEXTkC9jQeETbpZVcSQ6+Jvr7HRF9HskVUupnEbZvEubOSVNxPIUbbV5M419J4N0uEzMPQfIlsqyTbNCUvsb5Nv7mlirxb6zNoyBh6W10u1dNbhhpFmc41GNS9qsBPDq6z1cqqjXkp3+OMXm7nQs3dLOAUGJVdWhOJd2grd3NKLmYeuQRkiTkzxJ05Es48sf+PqffsjjPLrjT5A+bD/IHRLPWq6ixVV6lKrZZG0kgzZdM7JgkSAAlHEt57G0AgvPfee+99BCyZOf239qx9glXqD3cFk8m1ptsK2gAAIABJREFUCALnve+95+z9bD7FurgEvPoNKYlkTrgKSHmKSLqJUCNwPQ6/IYOAPo+gkYGweUSsjKUw46b/jxhKgQeEH5j0kqhKUE8SLnYAlHEBzEj8xUVMREua8xgujyO4OuLXzBzN1FgEZS4j4awhy5xzJlN4S0g4CLKk+TgA65kP1vMgHNQ56JPjy409A5+JTv8UvKY0XGYWdBp6LYs7Ka/vANMQYveo5m7RKt+h18jhfrQgOvZWSY9G0YK7m39Dt/k5EgEr/KYE3LoozEqKolxQ7NlwtGGR9uYWuX00IS96cbYeweVOHOrjFLSnSTAIjJdkFXHCCtJ+eUEswGUpS5RIPNRALt5CKdNGNduW83e90EKj0MCg5pUCf7z5QSTJ/eoQ/foN+vWhBGq1Kh3US22Uc13UyHcs9QWD16oycW4gF9VqoYlskknPeUSc5MJnYddmBLusvUhAq0jAoErBbs7B6/jIdXTyIkh/LYdgETj0IZjVNKsHoWLcodxjOK9gFo8X59vjOQNJxFSEMr6E+AkGwDL5gUTjsI1Z9cxYqqGabaFV6sqD2ix30OSvSwN0GD5VJL+c2Tw1VBNVlBMF1PNWKfDH0WuMmml0ykPU8l084Qjars/BaSrAbS2A7bCQrYSQtYiAOSdnIp8xAa8+Bq8uBp8uDj8jmDVxeFRRuK8jsnyaGEKGJMLGFIL6OLzqCJxXAdgVUTgUpCJR0J6AR5NAwqPDqPffMWh9i0rSj0K4LecuryEJqzIC41kQOkn0pbUqDPVRFJqTBNRncbn1q87j0F+lYKWMVc9zewkxexlJZwlpF4VTWfla7coQTJQXHAdgOgvDpkzApc/CY8nDZyvAZ8rCS1y0KQOnaVzgJn0SZoJr7CUkQz1Usx/QLN6jU3lAr57H3WBc4I2CHrW8BXejf0O//SWyESei7iwC9jQc+ij0V35cHbtxsuPE/ppTBlRbi27sLtNgwjM2FYdJXJ9yxXAtl74YjOo0bIYCAq4K4gSGRpooCL6uh3qxj0axj6YsRrV0JHmMO/jjzVMMGxGQ3derj1e31kO70kar3Ear1EGvNsCwySCuW1nDFmOx+7JDZhN5xP3Miif4iKQz8ikTgrgz8Hutz8HrLCMcqCHuo7SYgWVphHjUs8fgs0bhMkVh43GSMKEznt/Z6WK7lO1OB47WKAdxgClsUuT7fmiPQjBfJODR5RB18gRQRznZkIeYBd6p9GW1ygO0igO0C3208mNwf41vs1gFpVgBtez4iPJ++Ao39SQGlSG65T6ehFxVhNxVhD0VhL0VBB1F+PmDN2Tg0TFTPvFxxeFhUZNepI7DrYzCqaDc0g8LoS+nPtjPA7L4e+ZjDwz7Tuh2vdAxwXbfD+NxELaLECI2NYad36LX+AbFqBdEQfjMCdh40TsjZ9wrLBPRL2+R4ETOYRzq04T0gvXXSVi0WXHh+M1k6o3RvjFrQaipflHvhWFSMP6assyw4OPGrO4iaE3zWcsigmJHwGFIw2ZMwWZKwW5iXigNz1UU4gO0Cu/RKT2iW35Ar5rDbX9BLGvVnA6VrAl3w3/FoP2VXJbZLSK2l0cgi467MfUiAZzu+XG8E8DRVghHWxGc7MSgOExCdZaGWpGCWkEUcRxGbQoOC9ucVaQidSEMlNJtYTM2igM0S0O0SiO0SyP5bJX7GDT8Int4uHmKXj2EthQFC4O7HwubOyEv9j2M6je4bz/gvvuI284DBs1byTEqpqtIhDjMSsBrSEiOvPUqAeNFQtjispFYSgj76khEmkgGqkh4C4h5SDpIIuJJIOymAjABj4k4bjYrYnLkumQYAoliK2Op8zFN7QybInTpkEeWCEwKMsHHzJt8pIlKqoU6Uc7FHroVEmSHaJeGaOQHcsdgq7CRaqDKjh4zeqL/WeAPvUkMyxH0i7Sy9fAkF21L6BC/6JivhKA9C7cuDoc6Csd1TGj8zus4XKoEXNcJOC8JhAzBehqE+dAH3a4T1xtWKNetUG3aod50QLXpwPWGDVdrFiiWbbKuVh1QbblhOPAiYFSi3/otOtWvkfY7EbEXYdOGoVf4oDx0SxLyMbMU18j/IAKOnMOoMLH5qrTpsvCYSwjaKgjbywhbiwiyh24qIGwiJjglyjSjIiwBtJxIas7IXklJ3j3bbV5TCU4dkW3s5yZg0SVgN6dE/hvxluR7UktTv36PfvkR/fID+tUc7vrzeLz/BJXcNSoZjXgyR93PUc3YkE9mkY6lhbDlsUdgNQRhVAWEo629CkF7FYb6MgwN8cGqOCy6FKyGBOzGOJwcgLiSiAZzSMXLKKVLqGaLqGZLqLFTUKijVWyhXWqjXWbAVgftaguDlgsf2EUZfo92JYh6vjVGIRMv/XF1S10MKze4a7zHQ+tH3Ld/xE3zPbrVW9RyPaQiPAol5ahBAKtFGYWZLEkGRl2z6VBCwF5FLNBAimd41oqXgWU5xD0pJHxJWTE3o0eSkHvTZRz6k4ho+RVsF64yHNaOY2rBdwjhZOclCu1pbAy9N+UQ9xEH0ZICb3CoQ/8AYwMrI3RKIzRyQzRzfTQzXWkk1BKcwbBtXUCDR5T7X4sevJv3o5Ntol/q4Ekt3UEhWkPKV0TUkYHfFIdDFYKNVKuLICzitojBdhGHjTf+oyB0e15o+JohE3zRjKN5HQ7oxJ/X4+SNCWfvLDh/Z8PZWyuOZ0w4njXidMGMi0UbVFtOuLWX6Db+Hs3iF4g6LPDoMjDx3HrG4Qp7yR4cbfk+Cqr8glvQHkZhViThNPCMyLS1GuLemhgVwja+dQgVysHH4CNtWhSBxsuIQNUvOdTgBY4xdgrqvNNwaPOwqNMwXidgVCdgZdKzPYewv4xMpCaTWvbQ+8URhpV7DMp3GHws8PePf4t2dR2t8gYebn+N++G/o1M9RL1sQCWvEyJAOq5FPKxBNKhGJKBBJKhFNKRFNKxFLKJDIqpHKm5COmFCJmlELmVEMWdCtWRBs0YZgAHNog48CtH7yS5Bu2xHp+pCr+5Gr+lBv+XCqHeKD0z4HX6HZimAaoYTZbrNqQ3qo18ZSJ7NffMDHts/4aH9E26bHzCoPqBVvEUp3UUkUITLFodFG4L5mi6ncTvPep2DU1uCz1xF2FGX73fSXwW5kGEXMXrspqWR8MWR9CcRcycRZBK0OibseIMYkQm6pxnZI+i3sy0ik9kBi8hlmqYQizoBv5W4trrg+ipp+grGBS6xgaURusUbNAs3Ep7FPnibO3yWfXEOEEvolMf4ZEZ5t3J+tNINDAptPKHlhwOQhD2DkDEOtyYkvBPThRf6Yzd0R36hnJoId+Fkb8eDq3USR604fEPoph4bU2qsT6qxNa3D7owJ+3MW7M9bsT9rw8G0EYfTehy9MuBkzgzFkgX2yzN0ar9GlS4UkwE2ZRyGSz805z5cHftxccjMlogsjuS1RxGYz2Og6zpoLiLmqCLtayLtbyDmLsulyKFLwqImWCgl0H4zDQYs8AtO6SJ/PbvrFHGh3FoZhXdNTF0adlJonWXEgg1BxRXZR0825JvUyzI1YohecYBeuYyb7hZ+fP83+PD4f+LD4/+B//n//W/4nz/97/hR/nssDnp8+Bke7n+G+7uf4e7uZ7i/Hf+a/y3rnv//5+P18HM8PPwcj1yPP8cHrvf/FR9EZPQzvL//GR7v+flzfHj4r/jx/Sf48f0v8OOHX+DHHz+RUNqffvwbjLozqGVTKHHAle7Iq7xfvsENU8maj3jsvJd117rHsH6LLoNty0MUcx3EI2V4XAlYDBEYVVw0eKRh1xTh0VcQNNcQtdUQd5QQd+Rk2kybot+SRsAaQ8gRRthBSGsETjX9sD5cE2hPbRMnwluM/h47ryhfIPKC0/Prwzi0REWLmG0MXM1FGygl+G8YP6SdQh+d/ACdwhCd0i16pRv0SnyzcqLZEDZhI1tEp2wRPjjFVo1MADUyU9JNPGkk2Hlg7zkBvyYMp9IPk8IF3bET17t2id1Q7/AoEoR2J4DrDTcUKzYcSXEbsD6lxcqEStbaSx02p03YfmXF9isLNqes2J80Yv+lHvuTOhy84g5vgPn0EK3Kr1DJfgq3XivBocYrP7QXAVyfhaA8jUF5moLyNCkdHtMFaVVx+HRpRCxlpFx1ZP1NZPx1RJ1FuIws1gi0igg0F1FoyZ4mBvoyLGdb7XUKelVGTAjG67QUOF3cHH2zx+x11BALdZBPDVBK90CgDHXHjUQZnVQN3VwbHe4Y+QbaZR96rU302q8w7H6FD49/gx8ffoH7wXe47c3gpjuLYWcWg/Ys+u05WcPuHEa9edz05zEazmI4fI3hYAaD3gwGXa5ZDLszGHZeYdB+iX7rBTq1F2iVJ9AoTqBeeIFGcRKt6mv0GvMYdt7gdvAWd8N3uB8tYdTbQavsQik5Np5UyG3M9qUYRtWHcYF373DfucGwOUC31kWr2kOz2kOl3EU6VUEgmIbVwjCyCPQq4vs4hGEYWQUhU1ViTGRGYU1LcAAv606m8hkC8Jh88Bp9cGq8MJ65cbVlwwmpuktmCUcQoNTqmK7LSBtSDagjuqIE4YwTx5Qkt0U5S2F8fJTSj/FQR44j6a4cTbqVGzmu9JlXz3YhBz3Z/2XQw7TpzgSqaR/KsRoqsSqeFIJ5JBxJBHQRuEmMPfdID/dymxhfE05XrbhYd+Jqw4PLDQ8uVu04W7bg4A11zCasT+mxIpYwQiK1WH1hwNpLM9YnLViftGF32oTdKQN2JvXYmTbgYM4Iw/ERWuVfoZL5DB6tfpyfeRWCkfB9wmOobbhMQsukiaskrNcpgcJ4GDDKcbW1ioSrjgQvx/aCiMJMV+whB3B54MPVoR/XJyGwrWhQ8oydg03PENMcHIYM7BwzGxLwMRPUV0M61kY5y173ANVcZ2zO4KCBRZ5qoJVposW2Va6FZoHn4TSqeT+aZQUebv8BD6M/oFvRoJkPo5mPoZGLo55LyCItoF1KoVNJoVtNolONo1WJoVmOoFYIoZYPopoNoJLxi/CsEHchF3UiHXAh7nEh4uQdxYmoy410IIhyIo5WIY1+NYNhI4tBM492pYJarilhAcUkz7CdcUGURuhX7jCs32HUHo2Lu87ibqNZbaPFlLJqF8V8DYlYFi57DPrrEDSXHKrxOEerXQEebRl+fRF+fVa6aPZrns/jMF9FYLsOwqkNSjiw8ZwjeisO3+qxNU0ygxY7JFjNmbG3YMPeG7tobchqPCPt65Ce1QycliS8jjRCHCD6C0iGijKaL8TqKDEviIiIFK2QPXRyXbSzbTTTDdSTtfEZPJ5HPWuSGMFeYwKFqB8ZbxUZXwVPovYkvLoQ7JdE63qgPWAMiRmHSzrsLmix/8Y4JoOuOHDCS8KSBUdLNCWTgmUW0f7qS52o4979oMbiM60AcNboCp+yCxR/+zVdNlxmwSxrDk/QKP0alfTn8GiMIF6ZI1+7Jg6bJgGzOi6vSaMqAauW5+WscLsZrUfzL5PHmOQQtJQlW8jNmOnLKFSHPlzQSb8TgIJdl5OkTDqd6pzc0n2WHPyOLPzuDAK+DNLRMsos3lIXvXpfdrZGke6kKsr85qUYCd4bn2npLeUlr9hEI19HJcvgIxvub/8Ft4Ov0Cj4wZ2TF9N6evTX1czeolO4R690iy47IPkhGpmBHCPKiRqKsbLIH6iR4ZSV4Uthe14wFl5TGW59EW5tQRLX4g5qanpopkfoFW8wqtzIUaNVGqKeZ0tz3CdnGkarNEC7PEKHFzSuGvviA7QqPbCvzP54u9aVVSuS5FtAwMn2K/vYPii4URyEoD1lMgYdSXnYlBzZhwW6yjAB+giI6bBcjc/c17seMS1vTHOzu8LqMxXWJ7RYf2nE+pRFtO4brwgwIrswDCVFXNc5OR553QkEPCmEfGmE/RlE/TnEAxRbVZEONVGINFGL1lBllmeYMd0V5Hhf8pWQ8edQjJtwf/MrtCsTSHp9CJkrCFvKeOLVRWBReKE7ckJNbvOGFUdLBuzMa7HxWg1SUAllP3xnk8UsHpJB6VQXm9grveDKyNFYpNZZyE48utCxYsU2ueEz/LUJG9MmbL02Qrl3iFrxv6GY/BQOlQ7mi7gYTd0fe9IOYxpW9sT1SdlxGcPn1FLYk4JFmYVdnYdLz5yYPFyGjDwUhsswro+oMiRw3Se6aOUxR/k0EGfhN+Vlt2cAVSJQQiJMCWZL+qr9Kne3GwyaQ+kZ13INVDINGTawcNqF3ljvXuqgVRwHU5UzZdTyVtzdjAu8WfSL4bolrawbtHJcLO476cAMqvfoM503N0Ql0UMpRvZ5RcRfKX9+3Fd2cKjG2UMGXhPDAorwGIpS3IwVTHuY7DuQAu/keS8YykCjVWJvvIdGoSuf/G9OM8cTzQGkh1zuS3E3mG5coi92XOCdeg+NUlNG4SEPZcWM8/OOscbS7YhAd5aESZECj4o6DnH2CCDyQEE/575PMHAUWhHRsTuvx9okde/XWHymHOOfJ3RYeWHA8ksTVqbN2CLZYDOAq+MkjKosfO4k/O4UAp40gt40Qt40wlzstXvYramC4WEZbwFpD1cRSU8BHCzGnNwUUkiHdLgd/hL1wlOEbXbwbe/VZfDEfOGHet8FxYYNp8sWHL4zSnGvTROSSDaGFpuvCWI3f1xGbM8asDmjw/prnaAFlvkPeqkSJt/yR43zhmicrdhmXrvA8ccFvjGth2JrF9XCL5FP/AnWKzVMZ1EZLvjJIbHn5ejgtmXhtmbgsXIQQzwFLWRxmJVZWNU5gfU4DQT2p2HTJmCkt/Q8ID+cs303Tva94lvUX0bh1KQRYDQGs1+8ZaFW8ZzXSHfRK4wwqt5iVL/FsD6Q/jF/4IwrrOVbaPAyU+bv99Eqd9AoNFHNVlFKsI1nxR0DagdfoV3yy4PQK4/QK9+iW2Rx81LE7ss9BtU7OT82Mn0UIh3kQkx9KyHOqS/N27asyB7G6QgpkJPtNuTgZdqapYqEu4lCkEyQEZrpIVrZPlpZFjRX5+PUr49udYB+fYQed2x+zUylK3RAfQofAI7vOQJvljro1LroM4qv2kEtX0c8mJP+verCJwV+uu0VaYT6OA79eQK6c7JpfFLYJxsEgDpxtuUcC6wYNrU0ZluuT5FHrgXrYmWSjBXSsAwSpcKYwZ1VN87ZsGAb0phDyJf9uDJS3EEWu5Pg1bTE0gRsBQRteYQsWYStxHpwjdWuNMp4zTHhXo76f4dK9lv4TGbYlQlJ93iiPvBCsekUOPnBghk7swZsvNZi+cU13vEJpDD/hR6rkwaski76Uoe1SS1WpzRYnVZjZYpLJZ/kaJCuusk4Exb2vAU7XAxHnbGIc2V9WofzzR1U8n/31wJnh4Q/WBZ40FFA0FVAwJ1HwJVHiCZkti8tnEImYFXn4dAV4Ga/25KXVAqXib1xpn6F5XJ5derDxYkPqougxNIxOY6SgYglhwSL3FNC1l9BJdREI9ZFm5DH/AC9EndEvsLbqJebqJYaqJVb6FQ/Fnip+/GsW0Uhyh61DYRv3g+/RrcSxDggiX3bG3RL45YWjySd4gidIocUXTnG5EKtsbiMkSyOPIJWvmEyMlxzk8XCgY82Bac+LcMohrimvA2UIj3UEkM00tzFe2ikiOJoyEPHh69X62PQHMnq1wdoV5gETB/s+G1EPywXe+V8KLpV/vmhHM8YqJqJleG2pWFUR3B5zOxKP64OOZUcH/VohNHTE3oQkJwjxa4Pl3s+CQOmO/90nWnH3MXHP/OtBeKWzQI6opJya9GOvQ0PzjnguU7CZi7A5y4jFuIqIhYsyNGEYriAnRHyFMJl4SE6jzp/E99uOfhMVDTmZBNw6MaT44BDiUHvEzRKf0TMc4SAxYCQzYAnl9tenK06cUAx0Cx3WZ1Yq97+cIWF7y/x5nsV3v2gxeIz3cdFxogGiy9UWHx5jaVJFVamNVh9RY6GHptzzIk0YZtdFp7TF8ZFvj1nxeZriyAJLrZ2UCn8HcqZ/4DXeAS3zoqA1Yawy4GYz4N40ItE2Itk1Ids3I9szIt02IW4z4mQ04uIx4eY349E0IdEyIOY34WQ2wEv0W4mI2xGI2wmE5xmC3xmG0IWGyJWO2J2B5JOF1JuNzJeL3JeP4r+ICqRCJqpODpyeUuj30ih20yg3Yih3Yiix/+uJ9GuxNEoRFDJBFFO+tAoXOLh9h/xMPoGg1oIAyZ/1QeyU7cLQzSyPbH0jT/bqCQbYHIblZMJT0UGXEELowxZ3GkwAMulTUqUo11DpBxDmTJytEpxshpuoRrvop5icffQIL88W5ci7lS7UqyjNkfxN+OdmTqUAou7jgoN35m2TAgbeR61uugxkq8xwoC6lXIHhWQNAU8eNlMC6ouQYI1VJzHoSRdTZmV+YLqKQUtw5wk7ICz4OPTU0ByHodwb07NOVxmjyFweF/bXXNjjJwd3O14oKLgiJJUTW28Z0XANmVgD6Sint2UkAkVEPHyT85iWgZsGCR39CUX4jCX4DJRPs7EwzpZirpJFHYXLbEC39VuMep+gU/9XtCq/Q6v6OzwhG+NkxYX9NyzAsW/w3bNLzH17jtmvzzH3jRLz36qw8J0ab77nYsGr8ebZNRaeK/HupQrLBJzPEATzn8W9/ZaR1mZsL4x3chY4c162Zk043zpBKfsbdOq/RCn9OYrJCZQyz1HJT6BWmkSjMoVmbRrtxit0W6/Ra71CrzmNdm0KjfIUmtVptGoEdb5Cu8FfT6FenkQl/xyl3DMUcxMo5V+gnH+BapZrAtXMc9RkTaCefYF67iXqmZdoZCfRLkyjX53BqDWP+8FbPIze4uFmAfc387i9mcPdaB63wznc9Ocw7Mygz6+nMYVR92vpTT+OnmFUT0puIzMcOX1r5nog4aucaI1XvIlCtIoslZYMo3UWweIWSYQ+jfHOzSkgCzwBh5aWM6ZMp0HBW9JbRD5URYlUVV5mk13Uk3yjNNAstWX3HjLiunOHm/Yt+o3hxx28hVq2gSrH3xl2V+ihpWCpJ0OgYX0k+pVOqQOGDoT8BThtaWkVqi+i0Jyz0/GfBc7ka06ETVeMeicaIwerKiMpejoqIg8iEviq2ArhbNeHk10fjqlHYSL2SUg05zZzFj5PEZFwGclYFflEC7l4A9loTbwDUQ9BqHzwc/Do8nLJ9uhK8OnLssbx5oW//t2M4LFqvMjGWR//gXbtn/+6nlDvwfQudkW2ZsbwxHlmx3zNlC0mDSgw8xWBikrMMnHg2yu8+V6Jue+vMPv0CguENE7psMaL5DwvENaPixEetGWZJFlgc9aMzVmeyRn2qkPM/wXajb/DkCjm3s9kEVYjGGYikm8/wcP9L0SaSosY108f/k5y6fn5EwcdHHg8foIPD5/g8e4T3N8Srfyf6270c9z0f4ZR979g2PlbDNp/i0Fr/Nlv/xf0W+M16PBr+Dnuh5/g/f0vBXDPFAfGBfLv4lDlw/tf4P3jL8Z45/tPZFz/4f4TvL/777jvbeGmXsWoMcSwzuPJEPV0F6VYE/kwd212ARrIh2tIB8g/ZKckC5/pL4U9DuDliJvQIUoleBzzmHhsSyMqrqo8ckG6WljkY/JqNd4ZazZKPfRqvCizuO8xbN7KGZySWR5FqOug2USoYwUq8gaQCWFliEGVoqQemvmW6MfDwQI8ziwshhSo+dEqktApKJ1Nw6RMwaxKyhDIqsmJ8tRjLsKpZ5EzGTshWGYmMVNaccmB3WFA1iVhP5cxWI3U4ucRDhQQjxSQjJWQizeFrUOnEj0FUTeti+NjiUdXhFtTgltdgoeDJy7tuLPk1ORhV2dgZc6Ukh04l8xVfIZLeA0KePQXeELvHKdMx6tM4tJhdeoK4wI/kQJ/9QV5c+eY/vwMU5+dYvpz5smcYvrrc0x/ezkGRb7UY4XcuXkLNhYoC7Vgfd4kgVTc2YVnwp75rAWb8zYJaFLsGmG6uoLbeAav+Rx+8zmCjitEvUoB36fiGhSyejTLZnTrNgyaNtx0bHjoW3Hfs+C2bcKwYUCnokUjr0YlpUY+qkI2NF7pwDUSBPJbTuDV7MN+uQ3z2SaMXOc7MF7swnC6C8PZLiyXB/Boz5Fwa1FN2tCvuHDbduG+Y8dtx4Juy4RWw4RmzYR60Yhq1oBqRo9GzohOIYB+sYphZYRBjaPxkUwRmetDGKmwxkPE0jXBnM9xgWcR/ijX9eh55mZRM34lCS816qYEfGZesLLiDk/6ctJtyYWLKITLKLBNFuaZnLszL5jsmvBiSZksp5QjtMuDv3ZWGgzSTXXQzg3QK44wKN9iUL7BoDJCn/pxXkIZ+hWvIBYpIegrwG3Pw2Ig9CgD3WVaipwzCXowiaSz6rKiQPWYC0Igs6g4IY5JmKv+LA7dMS2GYbnoS0DsRRQm2grteUTp8grlkYpkkIpkkYnWkeHDH6qKkyfiokKU6dsFuDVFuFUVuJQlyel0KXPwqovw6Urw60sCVXLRIcSWMiUGirEaVXvkBdPfnhAXcUXN7ibRwgZszl3j3fMLKXLmJb76kkV9ipd/PsbzPzDWYgcv/ryHF5+dYvKrS7xm/ssL/fiGTFf4nFUCmIjIXZlh4euxwlbiKwNWX3OXt4lb/HTDgyvGNx97oT3lBCwgKcuUWzpNMXgdCUQCWeSTRdTo3ijW0a9WcdvMY1jPoFNMoJaKIB8OIun1I2LzIWAKwGcIwqsNwKXywnbuhHbXBMWSGodzl9iZvsDm9CU2XyuxNaeRN9b2DJMYDDhftUv+Y9icRyn8MZ6uUEGvWEKjWkGtUkUlX0UpRQPs2LZXihbRSNXRy/UwoFaZmuVCD7VURwqaKsmkl0D9JvKhNni5ZOZnwsuwU5pFUvAaU3L+5lGFdi0aMkK2NIK2LELOPOJeWgD595VQiJSQF9tdBblgDflAHdUMuyK9j31vqg2HaBT6woGs5cY8yHq2Kx2jbmFc3EMOfyq3UuC90gCtXBsot+AlAAAgAElEQVSVBO1hZaSSVcQjNQR9NbhsFVh0BRiUWeg/7uDU75ipl9en4TTlxEDMCz4nyZTJEjdCvY/hPCFeWQ6Mxm4girlyCLs5rSwjEy0gE2WBp4WxQ84OPZgxD99u48ukR1uAW12E67oMuyIP22lCosX96gJChioi5hpCpjJ8hjzclFzQccQiJ4n4yIvLbRueXBC3QBPvlg2HKzpszCrx5ocLSfya/PQIL/90jBd/PMHEH47w/Hd7mPj9Nib/uIvJTw8x9fkpZr5mLIUeSxNWrEySj23FypQJa6/5sBixMauVtTmnxxbBPW+Yac+MGCKPx2GmxB8rtxjzwdi/hIiqGK8dcfCH2pSCafL8SCFRuoJSlJ2QDMKWBHw6alRicJBxR9zFRRwW0qkYNkrzL/mK09dY+uECC98w2OkC898q8eZ7Dea/40WaMXpq7MxaJEvHdplD0MyuRQ0FnndTY9lmI99HOdVDLtpBIthC3NeSiMFyvINOboBBaQgyO9p5wpBayEZqSEoxMyWijGKohgqDbcNVyYCMksHoINAzg7AjJ/3cuLuIBPu7bB2683LZovw2FigiEWRhjC2BjFHMBRvIBYju6KKeGYjSrp4dyBST0z+RG6RaoHCJ/wbC4hvCsGHuTQe9chfdMh/IDqopHqHqyDLVItpAJkoPagOJYBUhIj0ceTgJYmKEt54KSMqK03CYMyIvNoulMAyjmrt0HCYNBWxx6K6joprkw0CvQYjM9UgD6XgdqVgZ8UgO0UAaMSejA6lFp0kmjYCRicp5eNQFOOlqOs/CfJKG9SQJhyIDr5oR7VSRVhCxlhEyc8pKvmQGbnVWIivVBwGhET853/D+tcCPpMCvMf/0AtNfHGHijwd4/nsW9jGe/+5QCvzFH3Yx/ac9TH96gOnPjjHzhQLz3+jw7qkViz9YsfjMLLHUa6/02F4wYeeNDnvv9Nh/x0wWEwjKPFq2SzoB/24mAzMJ4XwlBMVaGNfbjK6OiUcvZiujGG4JB7qWaKIYob8zi4iNOnWid8MwnISgZXLBfgjagzA0+1wU+9hxtmrCzjw7PheY+fYEU18c4+XnJ5j6UoGpL5WY5NHry3PMfqfEypQRR8t+qA4SsDDS0FBElC6hIMOQiIPuoBDrIBXsIOptIexuIulvStoAdR99irE4CMq3UU6xSKpIUsTmL4qntcjc9QhpBLxIVRHzM1WuICvBaRyjq4M1ZP0UkjFKJY+QM4ugK4cgdzVfSWxryWAdGR55Qm0UQuN4w0ZmhEbmBtXkAIVIC9kgE6Ib4lHlQImpCKVEW4q+mmnIJLZVanwcWjEqnXEtzARlkTeRJ+M92UIx1UQuSQ14RS6fHmceTlsWDksaTi5rGg4Le9lxWAwx2IxjyTFlx+zE2IxJ+bNeTmf9FST58CRboJUsES0hEmTfO4mINYmQuL/i8GrpO0jCrcrIkYTBtYajOAyHCVhP07ArsvBoCgiYaMopIWwtIUSzOhM6dDkJHCYuT3MYEnPFE14wGa9xvumQyOnNOTUWnirw6qsTTPzpEM//cIjnv2dxH0iBv/zTHl59eoBXnx1h+rMTvP5cgdmv1Fj41og335vAsKTFCT3WXhmkVXhISuqaFafrNgknYtrw4RKRx9QHO0HG9yEzZJYCOFsJ4HIjIJHRjus0YsSlhdsox1py7qTp2W+KwK0Nw3LJdAAflDseKDbdOF9n7LVbcnCIoTvbsuJg1YT1BfK2FZj+/hQvmC785QkmvrrAxNeXmPiC6wpT36ix8JzHJw9O1iNQHXIkzRt8CRFbDQSD8kiQDjQQ9zURcTcQcdeR9I+LiJmdXdEud9HMt1FKNpCJVKQjkAqUkQmWUQiVUaGQiOdM0d6XRVNNd0yKNrtgHTkWr6+KNI0ntjy8FkJIaRPLw+csIMipnq+KTJAPeweVGGUBQzSzN1LglcQA+XBb2pBy9g/yQeggH2mjkGihmGyinK5Lkl29UAdXJcuz9/j8m+IDxgeDQCe2OAt0+/RQzHSQjjcQCdK3WZavhV+T38VVgM+Zg8+VQ4AzC29elsgh+JB6i4gGK0hF68ilmsinWeRVJCK8aCYQcMcQMicRMI4dY3wb269isJxHYTyOQncQgXo3BN1+DLazDOykPmiYRk3H2ZjCEDDmZAcPyPQyBzuJwKdhYco/OVziburCyZodh8vsdOjw5hnDj84k+fbFn7mTH8pu/vKPB5hicX9+hFdf8BJ6hunPFXj9xTVmvtJi7lsdFp7q8O6FAeuzZuy+s4PFxuQF1QG9eExmcOBo2YaDRRv235GTbcc+R7eLXpwuM5fdD+1BBM7rLOKOmuxS+WAdSU8eQQ57tGHYiTM+D0J94JPiPllx4GiR8eFcDJyy42jLhr01CzYX9Via0WDupRLTzy4x+f0lXn6vxOTTa7z4VoOJr7V4+a0es88YzeHCztsATjeiUB2kYL7IwaUuIcojhIvma97w64h6Goh9TEEuxkn2IqOjix51HrkOismGHFF4aSJlIBfiv6OKEs+egQKiviyi3ixi3izi/hxSgQIyAZq2C0h6sog70/CZknAbk3Cb6TBKw2NLw+/KgEcbmnIZMEC9OgVI7XxXgDiVZBO5cBUpvjX8ZUkL5uWWgU3FdB2ldA3lbAXVQhm1YgnVQgnlbEnuOXImJtcmVkYlXZdR/li/coNGeYRSro9Moo1kpIl4iAG9daSiTWTiLWTY4ks0kKP0Os3POtKJEpJRFnYVmURNfr+Ya6CYY6GXkYhmEQ7E4XdFEDAm4NPH4FbzmBmB6ZRvYx+ut7242vThatMP7V4E9vMsHJc5uNUFePXssuTgM2Tg02fg02bh12bl17y0mxW0OvrwZGvOIDnmu2+M2J4ncUmDN8/JdVZg5psLvPryDNNfnEj3RDooXxxj5ssTvJbiPsfUZxeY/OwSr79SYe5bLRZ+0GNp0oStBbtktVMAxQwYE48T5yEpdvrySIwdFziTf50CuD9d8eBqKwj9Mc/VOdEgk3AVd5YE70BDr5v9YRVRA4RbhnG56cPxEvv4NlkHb+1gEsXplgOnWy6hsx6uOrD9zoa1OTOWXhnxlizuKTNmXlrw6oUFMy+tePPKjpV5N3aXfDjdoEg/Bv1JCtZLvjVIEcghTHe7p44EtejcHWNtOfM2sh20i72xkz3XRjExLnCeaVlgbBGy81GMJJCNOJCK6JH+uLIxA/Ixo6wcfy+gQdJ3jYhbi7DLgIjXiGjAjFjQgETEgFzcglrWgW7Fi5tmCDctL0Y0P9RdaJccqGetKKfMKKesqGUcaObI9fOhXfWiXXWjXXOhXXegU7ejTWNFxYpayYpK3oJK3op6ib/vQr/tx6CdQ7/ZRbt6g1phgEKmi2yyJR7RSpb+UGp3xrryVmWIVqWPZqWLeqmFcq6GTLyEbLyMfKqCUrYil3Re1AvpEtKxLGLBJEKuvxxL6BqLSZSJ/igA5TZjCp0CLVWse6HZjcgOLgWuyouH06PPyHDMo03Bq8lIgfP8zk6UXR2B4TyAJ3+JquDInXqStxNKMP1r/oeP6+mY3M8dne3BV18ey/l88rMTvPjzKSb+dIoXfz6XM+3sd3w4DFj+KKih5YxRdRTpWJVEPJD/wYulU44rh8t2HLxzYv+tEwfvHDhl6tYucQJx2JRp+Uf4jVQPpmCjgVgRAJPUjLyZH3OgEMLpGuH4TuzM26THTo748aINijUnlJteqJmpvh2GYj2Ak2Uv9t+4sTPvwvacC6tvXFhZdGF9yY3tVQ/2N4iGC0B5QM0FFXIJWCjW0qUlxydkY8wJQf10QXVR4aAlM+4zU99RL5JHwsKvSdsrE6pLazAvhU6p7Axu+v+E2+GvcDsar7vRr/CXxd+/GfwSN/1fYtT7bxj2foVR/9cYDf8eN8Nf42b0a9zd/D0e736DDw//gJ/e/yN+es/Pf8CPj7/Fh4ff4PHu7/FwO178c+/vf4v39/+AD49/Wb/FB/7Zx98ItZXk1sf7/2U9/AbvH3+DD+/5Z/4fDHunaJQrqGS7KKZbKKSbqObYtRmKkrFXu0WHnslKb6zVoY4nX0MxVUQ2WkQ2VkSBCO0MWS4VeYMUEiRWZRHxpuC3JeBSx+FSJ2BXxgUjwfh1RtCcrjpwtkqdlF8K3HKSkjO465quLQKqMnBrU3Crk/Co01LgQVMGfjMHZlFYroJ48vb5Fd49V8qxhCGdc08Z9XaFNxPXMqV8O3GFhWcKzDNT/ZtxgU9+doiJPx1/TOblWf0MUxwGMQ13gqKasWJsf4UX2IBAbWhiJVyezGbVoRsXW3ZJVj5cYjS1Q44sZ+vsXYYkl0cAMYq4mCEMPI4cuaHcd+KKeY/bvJx6cbziwf5bFqsdW7NMJ2CR23C0YIXinQ3Xqx5ot0LQbUWgWg9BsezHyRsPDubdOJhzY3/Ni4MdP072aQ6m0SIsWTqGyyjMBNIwWoOfZB4yic1SRsLdkHNtJc7zb0/60BRlVfNNlHJN5FPjiRyPJhle2oINuUDmom4Mu/+B29Ev0W3+Ga3aU7SqT9GsfI9m5Ts0yt+iXvwGtfyXqOa/RCX/DaqF71Er/YBG9TnajQl02y8w7E3ibjiN9zev8dP9LH66f4UPd9N4vJ3E/eglbvsTGHWeYdh5hlH3OW77L3A/nMLjzWu8v+V6hcebaTyMJvEwevlxvRh/3rzE/d0k7m9f4P7uC/z44ecY9adRK8ZQSrdQSjc+yot76NeGH8f8I3QrPfGKNgtUWjLooCxUYRK4yKQsJ6uokuWSraKcqiAXKQrv0m9NSBaT7WocY8K0NWIklDteKe7jJTtOlp0458a3FYJ+PwrzaRL2K+IFM6LZcWkS4hd2q1LwssiNKZkjuLQRWJWhcYG/+YHU02vMf6fC3PfXEoi0OKXByistlqZVePfyEm+eMTuRu/gJJj87kgJ/9sdTcL387AKvv+XoXodFAuipOVlwYGeRMdqUU4ZhVsQ/NuPD0J8xH9EpF9ujFZuAJ49WHDjfHD8QKhpSj7hY2H4o990437bheM2C/SWmpY0B8ZyMSjrCKybr2rA5Yxcq6/6sBSfzFijeuXC96sP1agAKBim9ceNg1oG9mfE62WB+ZFjITYarBMzXBN4kYdfyFcfE5ARMCtJ2x5xwn6kkRotiuIN6so9mtgfqOmqFFsqFBnLZ8Tk0F2OQ7LiVlw1wuFNBLmbBqP9Pku6cjZ8hHmCKgQNRrw0RlwVhhwlBmwEBiw5+LqsZAYcdYY8L8aAPmXgAhXQI1XwU7VIc/WoCo3oKw3oSvUoM7RKjGEOo0TiR8KIQ86CU8KGWCaFdjGNQTWNYT2NUT2NYS2JQi6Ffi8oibmLUjGLYiaHXjaHbCaHfuZZdftR/iloxIG+marYpasR+rY/b5gi3rRFuGkP06OAv0uzckrgaJnoUY7wndMSoQIlAIzv+f5Uk5wLsgGTg1HADi8BEc8VZBNojBhEwXoWiLYvEV+6/tcq96mzFDeWGD9r9MCwXCTi46WiSQh+mOd6pTMCtHBMg3PoY7OrQeAdfpGrwuRpvf9DizVM93j7XS1AnBzUbC0aszWolh+XdhAILP1xg9ttzGf68/PQMEwz4/OwC0+yFP6Mk0iTFvTprw9qCYxyDt+LD9S6zK/lF8Qsavzp0px5c7Y2PKgcMkKJXb4eGVD8uiUfe8+GKarYD2puY6MDMSGalMxdGh3cvtXg7wUgShpQST2zF6iu7JCRszZixP2fG8RsHzpbcOH7nwt68XcRe64wMmbZg87UNJ6vMseRZLQmbKgunNgOXnnDJHBwaJjQkQX2F9iIpOnS2DuOuGljgzQwZHQO0Sz3RglSKTSnwQqYlzppSootStINCqC3tv3zcCqKW243PEA9Y4bPlhIfu4bhez1cqo6yjf10uXQoequfsRYS8VRD+k463UEh8bPklxrlG7JJk/C0kPQ3E3TXEXBRxlQWiE3NWkfG3UY720UwP0M4O0clxDdAm053G5CId930p1GF7gE6nh1azjU7LjcfH/4GbwQ9olILg0GisQOzhtjXAQ2eE+/YNbptD9MtdmYbystvO9cT1XmPMduYWbWri8yN0+L2iPifRRMpTEXM4C1VHZPcx+TcBaVefrvNtbpH74MaMDhszBmzNmbC3YMHpoh1Xm14YT6Ky+Th4rOFw5zICm/B3SIKICn7EchWA8cKPJytTGiwzvfaFAUsTZixPmrFGVvVbElCt2FwwYOW1CouTV5KmtfD0ErPfKjD91aUElk5/zWONBstTHMXbsTHvwDrT0BYcWOflccUP5W4UxvM0nGpeChjwRCxBQCL/GA14tGLB1T5DTmlGJbKXhU4Yvx/Xh0Eodj043rBJste7l2zpKTHzHVOCVZj5ToP5H1joJrx7acLiSwPWX5uw+8Yql9i9RQe23zDI1CQJve+oTZ42Sqjp0RL75VGYTtNwXvPiUoRXX5JPuyoH/XkSQv46S8F8xa+9hISzgXKki06Wuu/RmNlR7aNe6aBYaKPESWZ+gHpmhFpyiHK0JxfNUsqJ2+G/oNP8AomQDQF7QeTB1DN7CBrSj8f1Xn1SgrBIl6I2PuT+2P/mgCTG9mNdxv0JTw4RO8msJTjVRTiuC3CoCnBpPi4tW2kVxBxtZP09VKJUInZQT5Ap0kGTxuSPEY+jah93jRFu2gN0O120Wx102x68f+R94Rla1TBaoncZ4rZFtsoQ9+0B7lpDAdB3iafIUwrQF8dSKzeSDaCTu0c3/4h+8QH90h1o0uDAKeWuwavNw3iahGqPHStmf3qlb83NbnueP0MtVqZVWBY5tgYbr3Q4mDfhfM0pxxjLZQy265iAoiyKkEQRWs/DsF4GYSY+79wH/Zl0UcbGBYY2rTLj5rUBW28M2Fuy4HDVjgNmq7+ziq6Ex5a5CSVmnl3i1XdKvPpWjbnvtXj33Ihx7IYD2/MubC44pbhXFxw4WAkIBlh1RBhMCnY1fX5R+cuZ7HW164By1wXC97lY5OO0ib/s5kGcbXlxsOIQbfG7aR1mflDj5VfXeP6FCs8/1+DFl1pMfqPD66cazDNL/bUe7AodLlvAHeFkjVmPjAQxYnOWQadmOaufrYah3GavlTmNEbiv4nBepmA+jUN7SN419dCUEyRkBw9YaZZooJ4m0qCDLjXYZaryxuwOasBlFW/kB93M9FHhrkuybcKC28E/o9P4bIx5Y3/bRCQyybF0KOXHGndbCX5HCWEZAtHRkpNhUU4uqg1kfDXEbEUEOR1UJaA6j+D6nHD8KHRXNAtzbE5dCI+EGXh1ZYQtDSQ9TWQDfKMMUAgOkA/1UYr20MyOMKjc4qZxh1FniH6vi167iW7TifcP/4ibwVO0q0F0qz2MmkOMmj3c1nu4qfYwkJ3749EjTRcU7yLEw43QrNLsMUK/NMSgMsCwNpBPuuWjzhIsVylcMaFjPYzTnSiOt/w4WHdgZ9WEzSUd1t9psPpWi+UFA5bnzVgjcvqtE8eMP9wPQn0ShPYsAO25D9ozH3SnXuhOfNARtn/ggmbPB9VuAE/23pqws2AUGevmDPXbZhwsm3G4ahXcFgt8+y8FPq3F/Es15l6oMfdcg/lnjOgzYPmFGevTlMI6sMMMy3cubC66sLHowtF6QNjjjPcwcIxO5RfhN8ceKe7LLeZzuqVzwe7F5R652Iwt8YIMDf76ZMOD/WUWuAVLrw2Ye6bBy6+UePapEj/8+RrPPlVh4otrvPpehYUJzbjA35pwvEIAJpG+vAs4IOd95uSw9/7WgfO1EK62OQX1wXRCMlcIZh5JDiK4Eri+Dwq2OWmM1fNixCFIF61iH33+gKs9DKtD3NTuBM/wF35Kn/7LAnexcYHngzRIWASW36l/irjPAqZZ/MWW5qY1zVSEz1oSZFvYW/tI6i0hHSwiTa55oIqkm8Wah0eTloRim2Jc4GpFBDplDCZ1AhYNCQNkTUZgZCKEkn5WelgLMrRKuNpIebpIezvIh7qopUbolm4xqNKyN0C/00W/1UKvTe74/5AcpV4jLFrz+84t7jpD3Db6GFV64mwnI7CebaDCAs8SlNlDvTxCq3YnBpJ+qY9BtY8hhWjlLsqJutjyDBcxXGyHcLQaxOFaAIfrhO87cbBpxf6mBbsbZmyvmbG5bMP6ogMb71zYXfQIDOpiNwDlYUAsiqpDJiYTBeeUjfJyywbFug0Xq06cr3jxhLShw6X/7ElzwkjhFcOoTtYd2F+m/NUk0dOLPPtOGbA4bcTilFEulMtTRqxNmyEPx/zYNb3HzJxVD3bXvDilAXiP7OswtKcR6Il1YFrYLvUoNpyt2XC+4YKCf243JMyMU/a215lw4JHPIwrml+zYejOOwGYRT319jYnPrvDsz1dS6C++UGL2B41kTq7PmCS2+3SNbwifvAKVTDhjX5yMvOXxBPV8c6yFud53S1ao4dgH9X4Aim2+NYI42w0KMIiYOK+NcEpOAgmBZIH3xztT5QY3lXvcVB4wrN4LJKhfvhO7WiM9RCnWAYm62ZAFox51yp8i5rUgYKEevIKApSI0X7+tjKCzjKiPAP8GCvE6StRKh5kiXUbMVYLPmBXjL9uXRh6bFFmRsFpZ8IYs3Ga+BXKwagjMDEN9Fh6TBRRJ2MiF1OURNFcQsXG2QK4Mx/g9MUG3yR6p9tFt9dBvdTDoePHh/T/h4eY5Ru0Ybju3eOzd47F3h7vmEMNqDz1Stj4WOIFDJBKQTNCs3qBdv5fdu0+8HL9XVWY4tUQ0RjwcY1HONgM4XAngcI0RNAGJpmE0ouLIi7MDN462ndhdc2Fr2YntRRf2F4n69uKM2IltEs/Gg8PTVRtOli1iiD94Z8TeghF75PIsuCiXJZTFjbN14rXG2hAWH0HmZxuM0jBjY94gisClaZ7HLVidsWONybVMKxCdN1/5vPXyKODEEQuTOy8xx4chKNn6OQrimg18ZrbvuGV0z7H98bINp6suuWSS+X22GcTJuk+GRAxgOmQe5ooT+8t8k1iwOmvA25caUTFOfqUEC/vll9dyXHpL9/acA9s8Gr1zSuipihqVo7A4wP9S5Lyls/gVuwFcHRAX58L1oQNX+y6cbXKX8ONoM4SzvSiuzxOwmTPwu4tIRuog4ZU+yE6pB0Jpuvkh+vlbDIr3GNTovbxHt3QnpuNqaoB8pIuUTD2tGHZZ4J8h7rUhZK0gam8gbK8LzTfkYIpEGclQVcT/lSTTfGvIk7XuLsJvzIIsFw3jCI/ooqEGuybGZB6dws4qIu6aPCQOQ0rQD1c0CJ+M413YpWCiHoucuOmwrSoXZiodi1G6jca+TaIkes0uRt0Afnz/z3i8m8BtL4n73gM+DB7xvv+Au9ZIIvx65XGBN3JjWGadpmfKb2u36DYeRK045PGkymMczRZ1pPwZODRhXB/6wC4Wd3BmEDF8QXeRhFGZhEFJJWJYMMwHmx7srLqwu+TCwTu69seR5MdLTjHB7zGm/bUOm1MabExpsSZndi1WJxnk5cAT1QG5f0FJBVMI6JIjdScuiV/4WOCb85S6ssh5ObNjY86JzQXuqFZsM/Px4zpYtON4jUFRflwyFPU8Ce1FDOrTsLBKLnY9ON104miVF8AxeoKjdVqceAzhk8mnmjxCJqbtLzklRo87+NG6E3vLlOLqsfRKg4UJlWjRZ56qMftUhzcTRqzPOrC/5Mch+90rfMJD0BxGoTsZ39RVPFPvenEhT75bLrBE/V6fuHF5ZMfJjl3sVXtrPhxvR3F1wpTjHFxEBfsLSMWrKGaaqOXHaDFqrOmqaSbZoSDC4VZQDY38EOV0H/loB6lACzE3hfwODHv/gk79C6T8TkQdNcSdLUSddYQd5LFTfFVCOlJBIckMpCoKTKNwcRydBucIaqKjD8gPJ7yoCrexj5iTMga2IqlubCHqq8FpTkGjDOHqLCCxJDyjG89jsF6RL5MVnbX/o1gp6iiJpJftTEnG+GhGvumG8OP7/wvv71/grpfCXfcRjz0uFjgvl+OiJUajmacvlD5P0myH6NaJmr4fm7lrQ4xq/LN0FFUQ85Bzw2EaUy78ONsIQ3VIFDaRILSjleU4SHMFdeSnu34cbjCFxI3Dt+yGMVPUgq1XzETVYfmZCu++vcTCVxdY+EohCtH5Z2rpri1P2vGEyQIsAPVBCMrdAC55Zt2y44IJx+vUp9iw+8Yisc5rM2ZszNqxOU/NBqO0WVBjsRSPNierblxsM46D8J4UjOo8TNdJiW2+3GcRO+TyuvuG534WuA2nK26JmT5jRs22H9zFmX15tMqEMvIziPoiRJ0Phx3bb/VYn2PrUoPFSS0WJykNYPgre+MuSas434hAuROD+iAB/UlSXCYkzJLjcb3vF5Ps1Y5foPO6iwhU515cHNtxuGXFHgOYmE1znIJRVYSLu2OogGS8gny2iQrNAQVaxbqopilD7aGeHIjoiXjjaq6LQrKFDOWmgRqi3hrChP+HXRj1/wX95pfIh93ST4+7Gog6KghZ6RrPIezKIRHIIxsda1ZiDu64UdHdsNNwtcedjxayIuy6NgL2Gxk8pXzsrDSQCjQQ9VZE6adXRaG+ZA5PHDrCj+hgv6JmOiNFzkEJeTL0gQbIbScuOlBDkVzDSg833fC4wO9e4LabxE3rDnfte9y27nDDAm9y2EMgfQutQlNQzh2SYMV0cYdB4wE3tVvc1McPQ69MHFsJMXcMNpUfKiI+GLW4Q0lEUiQRbm0JXmNFsohs6ix0F4xwiUgn62IrAMowiCpZeanB4g/XWPjmCq8/O8fUH47x8ndHmPz9MaY+pxHnGnM/GLA0ZccTw1n0Y3xGcGx82HDiZMUCnmvOGJC0wr6kHUwT3lqwYfuNHTt8kpbcOFilE8grI3ZOIS82A1DukejKbJsCbIaq2Js0Z2Gc7/Ip5E147NPkrn+05JQxLMfzV/vse7NNGML5dlCebhY8kwG0pyHoL4K4PubxwYqdd9SNbKsAACAASURBVAYp8tXXOjk6rb5iCrIZm3MO7L7lkSsC7WEKuuMUDKcJ6E9j0B6HRTag2mdYEheTBmLQn0ehPvNDceLCyb5TvIM8llDo73NUEQ3UkEpUkMvUUS60USv1UCv0JJKcklLKUKXnnezKGDubbCAVrSEWrCDiKwuSmljqbNyF0eBfMex8jXLCh4yPnY26hGzRnkWDA+kBEU9GQrIiTvbHo9LLvdrnxsEMHDJK0rCpy/BZ2oh5Bkj6qWqkQrGCuL+MsLsogH+TJioXT5288tMwniUkPsTEi/4lJcFj6YSVGGxmHBkKiLiYh9NGo8gCj+An7uAs8E4So+btuLibLPIhblo9DOrsJDWlyDuVDro1IituMGjcoV+/wy1Xg8cZgkDrqKaLiHvjcGoJFApAuU8sdhJMbnNw/P7RjkYrmlWZho7pEiTUHjPWxScq1PXXGrx5donZry/EYTbx+yM8/fd9PP33Azz/f48x8dkZJr9TYv6FCWvzLu7gYYmU4Oub525y5A7fWgUjcbpCPYBLTMkcqTPmTtayC/vLbgmvYiLY2bof5xsBKDb5kESEKKVXFmDRViUG4/o4iNNtt5yjGeUhZ/VFB87WPFDuUPZKNEFQouhUR+FxTs1eWNqGxsuEgH0cuhhMyiCYwUgJ7taCFuszGqy9ppvfgA0W+KwNO/NOnK0HxBNIAyxzb9QH452bF06aK2jT49eq2otAc8h0OUZveHB56oOGkgJTCWFvXdzexXRNlHjlXAu1IoVEPVTzXRQzLeQSDWTidVHSZZNMSWggk6gjGaUctIp4uIpEuI5kpIFS1oPbm3/Dbf8bNLMBlMIt5LjremuIE53gKiLqYsJCBmEXw3cTMCuJoyPMyCv3BYZB2VSEXlLw1UE+OkAu3pavM8m/L1hGxFuEz5aBVRuD4SoKnYIu+DhULKb9oADnSaMycYIoKwrbdUqMvUE71X8t1PJ9jDpRKfAP9+MdfCQ7OI8nj7jr0NxMNnkHnWoLnXIL3WoXfQL2GzeCihvUbnDbuMGNUAbaaBeqkqVD1LLbwOCqCNTH3HhScFxl4FRm4CDUiWZmvv3P43Ky0ByFoDoKgieA43UL1mdVmPvhHFOUc//5GE9/d4hv/+99fP8fh5j4wxmmvrnC3KQOKwtOHGwE8UTHfuIxd15qwu04WuLt04Zjip9W3KIDYCHyUnayOr6cna675Yy8t8RbrR+nq36csx34/1d1Xl1yWNeVxvs8zA+YJceHscc5LCdZEpU8lmiRtAJJEyQCERqdc87V1d2Vc84555xz6ACQomV71vyaPWvfAmXPw10gSIkkwFO3zj1n728v2kTfS6jixWEI12dxXBx4cLJlFZmRW3N60dLsvDRib94kCu1ik+IqFxRkZh+TF+0WhU12tOzILxjeVjWXHuSEuAVFifry1adSLH4mEUW+/EiGFYKJHmuw/pQTEr6ujThcNojJyeEy3xOch7/VoDM9+KURh/NWnK5Ycb5lgWTfKvjdWnkULisVczOmSCGZQoZrZoFDqyKfqIlRWDSYF8Uc8KUR8GcQpAYlkJ8dymVpFggWEA2VEA+XkU1Z0e18E93Ge6gmHMj5K0h6SkLvHnXQpJATGUcEATl0zKH0QnrkxOmODcebdoEaVp3FYFVm4LfQrV9FIdZAJtlEMlZFNFRA0JsRRW7TMYLEi+sjJy527QLncLA4+z05WzeLKRbVncTd8eHKtoULI7s2A5+jgHSkhmbZg9HgbzDofCR68Faxi155iF55hG61jWa5ilqB8KACiukiKhyZsh3JNQVEiWPHVrYhHpjlRA75SAIpf0Rgli0KD1RnHlzt+3BFxeaRD6pDLxT7HhHMRewy2eJfv52k/DXscCKnwuLTczz62T4+encXP/vhLj54ZwfvfXsbP31nD//yv0/w9MMrLLzQYZsP14MgHkh3rKJojpnryMffMxXWiT3+XI+9ORMOFyw4Yh+8PJu2sHD4x1sv2YcbsMmXLUNL5yzYYzzeIiPB+ahk5EgIZztsT8j6NmGHLY248cnPoO7AKcypXIlrrwj18QnTqnTfBekeBU/kgvA/eBROPYM9vZBsW7GzoMLS4wu8eniGBeLlHsux/hbsuPmc/07a2SP2hUJMgbZeqbA5p8LGC5Vgtaw+5eNYg50XRPqywG1ibqy5Doi0i4hvFhfC26mcTgtgD9fyhLCT95dLVJEIFxEJZBAKpBEKZRCJ5BCLFhGPlZCMl5FiK5OqIZuuI5+poVy0o9/7Jgbt99HMusT0pRCaQXwo2kr7i4jR7cMUOA37f8a1EMDjxNku2SQh6K+ScOs59eBqvIFWroNauY9yoYNcuoFktISQNw2nMQotg18FhUqP3Xm+oxRg0htHstT4sLi1Fz7opH4YrhjlkoRDS7cR0xVqaFVmBT7sUZQVRLfWw7A2wqg2mU1SSjU08mVUMiVR3DUucjI0XjdQzTRQoQk7SZMzbXxZZENJJH1R+K2z8CoW+OW+FxdEKHNxs27F+apVLGd46fFbnUV+zXQ2glT5a9lUY/XFBZ5+eIh/+ckefv4Pu/jgu7t4/50dfPjDIzz6iRTzT9TYWbdBchyC6jqFBxzZcRGyO6+bPSY/JRlWg5VPddh6RiWXEWerZkg2rDhf51e7CQcLemw8Z0+uxjKd9KRYUY9NZ84i0V4OnG16INn24WybBW7F/op1Fkm9zmRlH443GFvog+I0CqM8I1whJnUQaqkb0gObGCPxq5TeTIJxTFeM03Bgb92E5RcKfP6JBE8+PMOLTy6xzLW8GCfO2qBNvhmeacRiaOm5GmsLBqwtGrH8SouFFwosvlBifVGPnVUbTnaY4BaCWZ2E355Dwk/6Uwk5nnARWcJygtXZrDjG9fwM4UskGqP80pEkcokMCpki8vkKCkLP0UCl3ECt0kSz1ka71kS74cBw8PcYdN5Dq+gUpt9KjCtsEmAJ9kwg4aM/kYljQREhfk7OyAEDuCgEC8Ioiwq9SdJXFpzDXmmAfr2PXr2HdqUtYD/pSBZucwhqKUm7amzMXWLh0RlefniC+X+5EtLisw03VOfMKgrDqqOhwg+9KgC7NoaobcZr7DVcGI/+GpPJRxgPAxj3Opi0e5g2B5iUuhhmm+inG+ikGmhn2mhwPJpsglErfKPwwc1vKCEPCNI3WkLCR0cUeZIeQSA73jRjf8mIkzkzDp4ZhGZof96C01UnLraoLHTiatuG622yM4043+IeQ42lzy5BychH/7CPf35nR5xPfkxvrVKME8/2XdCLNjNP0zEXO+ytVVh5fI3Fh3IsP9Ri/TFJskYcL5lFgVPCeLJixiHdP3OMnNYKU8Ps4UmnPMd/M7g5t5bsF68PAyLglMnEe8uMhmY/yVGXF4wQvzoKQnuZgF2Xh8+VgcuahFEVEpxB9p7sjeVCusrHlg0nm0aszmkw9/gaTz46x5MPJZijNe6ZDtuMO1nkI1SP7TkdNl/ohKNonWnCzMdZt2Fz1YS1JT02FvXYXbPi/IDbP9rCSFTKIeYvIhksipVzJsSxFgu8hJSPxlwWPIE5VM99HdOXQ45x0pkiqoUqKuUmqpUW6tU2GrUO2o0uus0ees02+i0XxsO/x7D7Htplp8jLqTE5It1CNc3tKANew+L2JsVVeuiG5NCNy2OvAO0wJ8esjMNvySET4OKkLVqGQb2Pfo19cUs4ihL+FJjzLjviWvsSi4+O8ewXe3j600MhqqOk+HDZAflxUCyFbDpa4iIiJdrGlDNjBjRw9BtuTMd/g7vbT/D6Nor7yRC3vSHGjR4GuQ7a8SZqkRrKISKNq0KHkg+Xhcs/GSoiFS7NCpym6GAZXNHHPRm4jSHorly4OLDgYE0v5CA7T1UiNGHjqRrbLwziTXe65sD5hh3SLRtkLPJdKyTM4VyldEQpJmgPf3KCn//DAX72g308/MkZXnykEBcdsz21sjisugwLXCvcx8xyXHlyieVH11h/ohX/IDrfT2kAWGP2OOPvjNid0834c8/0WP3cgLXPDYJzwpHe4Qrnmy7x1cOIP+VpEOe7DhG/vbOkx+6SAVyznu96cHVEaWoEVnUaXmsB4UAOPncGVmMMyksC8C043DSCn3ISY/eWNVh/qcDcYzmePbzCU44IP+HIUI3NOdNsE7bG9oi3ggm7r5jxYwKjqU/2vDg79OP0wIsTjp0YrXEUgIGZPqa0SDFOhqrIRolbKCEVIkI5h2yIOgvePAVBouVokElfZc56U1WhgS6nmHRWQbPYQKvWRavaQavSQbvWFTfroNHHoNHBsO3GhAXe+wnaVTpxCKPvopZtCR5iKkS3fRhGOcOf+PvDdTuhorM0OUoF7Jq0mHdngjWxUOqWhuiXu+iVOmjmqNhjm5OATemCdJcy5HO8/GgXj9/fwqP3DvDkA5qrleLddLnvE9tPKwlSmrj4kPPvH7LkBXF33PHjZvq3eHP/EF/cx3A37mHUbKFdqKIaraPgrSHjKiLpzCHpIW2rgJSPZuW8sOxRP57ylsUYlRiNmZ0uCbuOSRx2nO4YsLOkxvoLBTY+u8Iaz2M5Np5psD3HRSCHATM9CZNF5BzzHtpwusPL0oCVZyo8//gSD98/xcf/dIxH/yzBy0+U2F4w4WLfLcIN9NcxPDhdJx2UDzA1Nl/IsPFcIVbZNBRwlHax5RSfJBKwdl8ZxMiQPe7GM4MYyW08N2Frzixm11y183FIXp3ixA/laQCSXfvbAtdiZ0mHow0LpAduKCUBkIrk5rTCXUQklEPQn4XTloBW6Yfk2Ib9TSO2V3RYn1dh6ZkMrx5f4cWnMjx/KMOLTxWYf8yRoR47i8xiZO7LbFvKZK/DZav4c6f8MJ2FobyMQ3WdgOaaiRBJWNVZBPkfJ5hBPp5AORNFJRtBMelHLk4GoRfFuA+lRAC5GP+cH4VkEOVMBNVcdAafp7Y6F0IjH0a7FEO3lkSnkkC7HEOnEkevmkC/lsSgHsewqcJk+FcY9n+ITlOBdi2GdjWJWiGGfDKAmN8Bj8UIk0oDjVQDvUwPo9IIk9IEi9oCu84Or8WJqJtg/ZjQYDfzPbTzHMUR4sM2im6jGCxyF6Q7Gmw8P8eLD/fw6L1tfPbekaAH8JbbeGECv2XVF7zFw0LkZZClYFfnEHOw/Wli2g/gdvp3eH3/CV7fhDHqNtEslFGIZcQEKGwqImjIImBMI2LLihz5hJfxI7OT9BeQ9lVEgfN9EfdyVh+DVcNpGPnjOmwuKIVCdO2zC6x+JsXKE5l4I1EBuj3HoYYRZys2yLaoGWeYgRtXJ26c7zmxt2rGynMNXjy8xpNfXOBzTk4eqbDNlnqbY2Wv4LM8oLuGZmCag+l853LnaIUxb5yuuHG564FkyyUmHrvzBjEmZI+7yTn4S4vYGu7M08c405JQEchJyDVvoCP22XaB4t1b0WFvRS8mKjJmZsrCcBiSosjYGsQiOUTDOfi9aVhNESivPTg9sGJ33YDVeRXmP5fh5eNrzD1W4NVjFRaearDyjFoZasV5y3PBxABWO86pLd7gy9sp0GNMCzZqMrAZ8nCbSwg6qoh7mijEi6jljWhVttGpL6DTWECrOodG+aU4zfIcWpVXaPJUX6FVm0db/O8W0W0soFuff3sW0GssYtBcQq++iF59Hr3GAvpN/rlFDFoLGHY+xmT0OxiN/hCD3scY9BYx6C6j3VhApfgC2eQTxEOfIux7iJDnIWKBx4iHnv76JCNPkYl9jkL6OSq5VVTzcgHsr/NRl6S+u4S0j2Fi5B26cbnDtpMI40M8/mAPn75/gs8+uMDzj5TiYuLSSMGR6CWz4yNitm5V0j/K9qf16wK/u/kY06Ef7WoF+VgWMU8c1JnbFRmha3FrUwi9pQuQw5h6e1jUGRa4r4ykNy9Y6AQemZQEBJlxvKkVBb7yjHpvCVYeX2DlKdtNlWgtWeTk55yu2CDf9kJzSiZLCJrrMJTSEC6OvDjYsGJ9nrJsFRbI1nzOVtWI4zULznnZbdnx4GKHqbNU9s0em4SaU4fNtfDVgU8cyY5bJGNxnS7W5guzx+TeIreONqEp4Ir9iCCfDbYpfCTOblNhWCAcfc2Eow2zWNtTHGTVxAQ+IerLI0UCU7KAdJJ66qLgZthMMSiv2Vo4sLNGz6QaS3wnvNRg5aUWqy91WJ/TY2veIFqfw3V+cs2QHsx6d36w2MfKJQEYyM4w5xBwlpHwN5CPMhpwiHYxiUH7IcbD38R4+A2Mhr8tQp3Go9/Bfz2jtz/nj1//8WT0u/j6jEe/i/HwdzHq/w6G/d/GsP9b/+XMfj4a/A9MJ/8N08l/x2TM8Cr+M2Z/rdv5DbSb30Cr8Q20mr+BTus30Wv/Fnqd30K3/fZ0flP8vN/7Bob9b6Db/hbyaa+Q6zJ1LBssIO6mbiUstp+XbAFeyrDwyakwqnz6wTke/ZSmFA043j3ddIqJleqcisMQVKcJmGRko5CH3sBNL4Dbyd/hdvwRRm26fwoztJs5DpM8Af0lc0ZT8BjIYCGfpYJsgC1J8ddw0IyPasoS4kSz2TnnD8Aod0B2YsLxlhZbi/QdyLD42TkWHkmw9OQaK6QSP+ebjiNdI87XHFDt+WGUxmDRpmDVp2HRpqGVxXB95hcEXK7zmcq3vWTBnkCHmMBNNXceDyRbRmECFrLSFRNOWP3bzBXnTJoZ6tRAeIWclU4bGhGON2Zg9JN1F47WuHmkvJW5K4xs/s/D9fsR3TlcMxPOc+CBkjNX0ZpkEHbnwQcJzbpMGuAppMpIRYsIeNKwGsNQXLHI7djbNGF7VY/dVYM4OytG7K4YsbdiwP6qQXxLnO2YIGUMy6EV15zzSrzQK8Owm5LwUaFH5DDxZekOOvkhehUvht0fCxNuq7KIel6KZlGGdkWBdlUpTquqQLOmQKvOH+VoVuRolhXoVNXoV3XoVXXolDVo5VWopuQoxqTIRSTIRSUoxC5QjEtRSEhQyy9j0PsDDPvfRK+1jU5DhnpZikzsBH7HHmzaLVjU23Aa9xBwHiHqORUn4jpB2HWKiOccMb8E2fgWGrUfoNf9IxTSGpQFbKgqetywPQGnjlYuFy52DNiek2P+kzM8/ekxPvtnIvZkWHqix96SDZJdWvGYUcl4xgBUR3EYr9II2Asopxq47QVwN/07TAa/QKtEXHQaLkMcRnkMusskDNdpOHR5hF0VZMNkoTdQiFRnxFtvCRkvYf2c9RdnNC9LBA6tF7prG66OjDjanBX48jMZXn5yghcPz/DqMykWn8gFAYE7E27HBULkOAwHP0zmAnzWkvjRpk3BII+KVvf6mCt9t1CtkpZ8sszBiA0ny1Y8OFplvLJGsFEEaWqFkw4LjjfosGFQENsMLyS7ZEK7ID1w4PKIYnM+ZNw433KILRuLm7azfU5LlmaHctcD/oM2+f8LQCWJwaTgS7qIkKssBEkcKxVTNdSyVVQzFXDlm42R40HZKF/CjDPx4vrcPQtHOrbj4sgGyaEDF/x3EJJQpqo5RYgVcx41Ujf0Mr+whbmsKeGEiYeZ2V4VD8RmtoFOvoUu9RbdH6Hf+SbqOSXKiRQqqQzq2RwahTyapTya5TxqlSyq5SyqxQwquQyqmSya+RK6xTq6hTra2SoqsaIIrYrYIwiagwhagwg7Ioi6ogi7QkhHlei0uPp+F/W8HoVECDGfA3adAaozLaS7OlzuGqE6s8CssMKmcsCudsGp8Yibz2/l3yeFdMSORuVj9Lp/jHxaI7J2srEKYj5qX+KwagNQU623a8LWvBLzn0nx+UcSPGWP+liD7QV+sxKB7IfqnBEvDsiZf3oQhema4B9yw1uYdHy4Gf8Nuo0PkIvo4TGGYZTFoblIwUyZgKWOqK+NUnKIZmGEZq4vsixzwQqy3gry3gYyXpoquMRKijxNq8oFjZTfsjocrKmwMa/A0ucUz0mEgG6OqSG8wV/OjA0ccCgOvDCfR+BWMl25KA51+XZtAiZlGPqrEFSS2VqfUo8zztJXbZAwxW3Fjgd7i3S+KAVliiv3gyUrmDK8x2IleXZ9VuRSajpO6BbxCOA4mcyyYy+4lJkR/2c3OMVRLGxOMIRYatmKk00CGTn/zMGpryDoaCARaCEXawnmRiU38/Y1clVU0iUUk3lkBXogBcZjO7l+1sVgUIWglc+QYBompTHKjo4YGSGQEZgYQU5pq5pUVhJM04gSuxavopCpoUIdc56C/Rra2Qq6RTuGnR9h0PkOGjmzoFMRLVzhBy5XR6PURKvSRK1aR7VcR6VQRSkzi5duZNpguGonO0Qz2UMx2ETUVoZXlxbJy04thUXpWVithWwQA1qNv0Wn/h4KcRMiLgI2TVCeanC2oRWb15MVyhbsUJ1aRBiv4dIDizwoPJYBG+lUdeTiYTSrjwTygQWeS5WQilYQ9mXhtsVg1vqhunKJKdT2khaLn8vxkhDUxwqszTFol8UdgfYyDM3FTOvCjeH1Ll3qKQSdJRQTNXSrDowHf4V68ccIO+UwKwIwXGVguK7CY+0iER6jlL1Ft/4Fxp0v0K9OUE+3USAn0VdDyd8WBR53UXceh0vPpZ0DSokRkj0N9lYUWHt5jcWn11h4LMOrRzLMP1Fg+bkGm/MU3tHS6ITm2A+bNAKPKgWK09gS8ffW8tbqR+8qXWLXBx6cvl0WXXLYse7C2bITD3bnVdieI0qNIiuTEJRz7EbTwhbVfMtWHFMXwvUpHSKk85NTImEwkRdX+zNr18kaZagUo/PBSa0vTQsWHG3xxmVaWgxWLW+ZCqJexvU1BTSmnKGTpIUmi483YbqCUpK5M8xoJ7OanD+ukFNwW+NwmKJvD0d8CbiYlGB+eywzgZPHSlBlRqj6xK1NbnexgWaJIqEamtkymukiOkWrKPBR9x20C1aBEibbu5ysopKtgCbcVrWOWplOl5oocObZMN+GY8J6bhbRx+iTtK8Enz4DhzIBmzwGmzIhNNeUxboNCUQ8NB3/NZrld5HwamBX0eysxtGyTCSTbT3TCW7L8bIF5xtGyPZtUJ8QdDQr8LCD8/k6iukw2o1Hgl1SzGqRTxWQiZURC+ThczKSmzGJXlweO7C/YcDaKxWWGBo2p8P+qk3kUqolhMeHRXsi2TaDmvmrHbLKkwi78sKM3MqaMOz8BYrpH8FpkIv4dKOKctwu0pEhmuVbjLu/xJvpr/Bm/CVGjfGvCzzjrSHrbiJhryAswE1R2JQUWVkhO9bhdEuN3SUuZdiDq7HyXI3lZzz0AXOfYsLxqk0senSnftivwvAok/BqcnCrM7ArEjDT4HHFsADKgGe4iVO2Xvw1Utqw4cQxtShkE/LMOIFckHAFb8EKATnPDaLI91csONlk38aHiQ9qCQmefigotd3myt2M01X27xQF8QNhF+dw3Y6rMy9UTE/TxeGyMpOS8JgiUsSNJSoiNKmSqaOcmQUokXNdSDSRjTWQjlQRD1DUxJiLBEJuZsinhGaacEtxPBmhwWDPzgkMD1FinMxQuspQJhZqu1xDu1RFk2L+bBG1dBHtkhWj7j9i1PsuuhXHbPWdpq6bBV5CrVBEo1xEJV9CtVBBOVdGPsWAqjTSsSyKmRIKDHCKk4WSgF0eguUqDMtlDLarJBzyDFzKNFzqCML2azQrf4lq7h/gM8qgPKRmne7+Wf4RLX+EEW09N2Obj8BVJ2S7XpDR6FTHESWENFxBORtEp/kZBv0/QSWvQymVFUFTDJlim+K1JISaUHlBPrcFO6tabC6qwfcQhwdXfAedBYU/luO0PU4dVu243iMwJ4mkJ4tquIBGRIdB88+Rjf8TzBodFLI0LJYyEtEhWuUR7vs3+PfXv8T//eWv8NXkDoNqV1wQ2UAVcWcFYUsFfk0BbnkK1qsg9BInVMcmSHe0OFpVYXeBZnOaWaxCorzJEAaOoTkVe2USKtPLTQd0xz7YSBqWxeGRZeCS5WCTZWDhZIy3t8QB+aEF0jUrTufsOF+x4ULo/q1iq/6ATh6erwud88f151zi6LD2TCsMB3uLM38ksQ6cNUu/FsKQXUK0w7oZDCESqAeOZ3ZdYtjONTPHOiZNAg4Tb2GS/MuI+0vCGcMb+utAJKYRENpOYlIh3hCPQarauBFLhHKiJ4/5U4i4M4h6soj6WMQE7RDoWBCHcMdIMI94qCxQY0XqIahoKzfQLtfRYZEXyfSYnT6/hns/wrj/XfSqTnQKPbTy3beRgrRuFVAt5FDM5lDO5VHM5pFNZJCMJJCMpMB8yVQ0g2ggDq81BDPz7qntkITFq9/MnHdmy1wH4DVdoF76c+ST34VZdoSzNRXWn0rx4hdk0vAhSH27AouPqXmnnc8G6ZZbKOtob4vYC0gT8pn+/wu8limIrB1C8IlKDtjT4PKG2h7e4odbJuyu6HCwYsDJhhmSHeo6qLG2Y3eZqDod9pZ5s4dh06TBWXYxkEHRr0C3/qfIxN6FRaOHTlmAz9VGOfsao9Y9fjl5g//44l/xf774Cq+HE7RLDRRjHAkWEbYVRCoc2d1EqhGmqTi04Yo+3A290PXv0DrIy5Xf+JtW7G/YsCf8txbsUf+0aIFkzQblngeGkwAs5yFYzsMgG9xyyWjFKEwyH3QXNigYXkzU2wsDTgmP4iW7asXughkP2Mif8CG4SiUgpa8UT+mw8ZyuG7WYe3MeySUPb3l+EMgUpz5XFPR/4Zec7dgg2XdCyvXyeRAqKTlxCTi1aYE8C7GPdJUQ5S3OhUAgi2SItNO8gLbnmURG3l28gWKiKYqd9rBcvIgcE8+iWbFRTHJLxnVwpCSkq5SvJv/LyTItLdNCla1PsYVWuYU2i5yGWYE7mCEPhg0vJoN/wrj/PfSrLlDb0S0N0OFmsNhArVBGJZdDKZtGOZdBOZtBPplGOppAiuq4CN03cfgdAdh1bhikHhBCwwg73VlIAER15yFoz71waM5RKfwZMtFvQ3exi6MlGr0lePbzE3z2/gk+JXjpoyvMsrdlKgAAFqtJREFUPVZh+aUOB0tcU3uFEcChyiDmLCMXYTsXQa/1GMPBn6Be1qORK4vseYqbsuGKQMY59BHo5T7IThkkZcQh8083DMI0ws0ws3O2loxYfqHBIqXRG05cnyfhMBeRCHGWnUTMfoFm5Y+QCP0j9HI1tLIcAo4uGtkvMGm/wZvxG/zy9kt8cXOHYauDam6WF0Rsnc+aFi4lpleoz1yzbM3NWbYm4wd3Fjna1eOA5potK04OHTje44fRhr0VM7bnDWIGfjBnwvmSFVfrTih2nFAfOKE/9sEkicAqC8MqZ+SLQ3wzXKzrcTSnw8kSU9+cOF5ziizOB9dcW+8wPIi5Ki4xPzykVmNOI+hCW8/JD3xLgeUa9QUTj+mhNOGANzfdzftOEf18+TW6QELDQBBagsxlcTjZP+kyCJpzoDWKGZERVwZRJv0Gs0iGZ7y7HOEwySYqGTpCmDXTRoMpYLkqqtkiyqki8jHmPRJCwzRf8vCqyL892SQd3RUUM3XUCi00Sm20yjwttPhgpFA/VxMsj0a2ioEo8J+IAh/UXOiWeuiI08HMQU5WSBmNYg7NIicrOVSzbAnSyEaJIyOGjGgHr3hAaU7tUB3z8Ob1QUMXjRjBuWFVnKOc+3NkYt+GXrqHkxXF7Ab/6AxPfk5djRTPP5Vj4bkGqwsGHK44Id2i0yUKh5K4uCpyEf6+xH5d4M2yAbVMWTji+XYgJzHoSIEFbpD5ID+3Q8Ls+B0dzncNONlisRuwvaTH6pxWFPfyKx1ODvzQqgvweepCkRjzME/0GLXSHyDk/QFkp1JcHkVg15RQDA/RLY0x7kxw059i0huiXW2gnOW4N494gB8EupgS0MvckJ3aZlLXFRO254n/MIt1+gENHFSyciomceHizIXTAwcONjnP1mOD9OGnGuw8m8GbGCVPFIRs1w3NcRhGplczclHqgvKYK33GzBtxssIFj0d4PA+3PHigk1BgHoTiMIDrfS+koqc24HBRI4I9ic6iCIbZhzy0De3NGbDPGfcWBUtOXJ0yt4XRFgEoL/mK94mUYg1HdZcR2K/jcJHrp0sjQO2HlVjhFCJeFngOqUgBqQh78vrMCVLqo1cbYFgfYkBNR7kpWotGji6S+n8eFn++gSqzHvN1lHI1caqFBhos6mob3VoXnWpHiJGa+YZ4yNZSXEeX0a16MO7PbnC2KLRjiZMn3KaFfqWDQa2Nfq2CXrWMTqmEeq6AUoI6lQzi7gR8piCsShe0EqvoBWUH/NEp0pspA1Yd+6E88sCiuEA59xfIxd+B6fpQtCgbzER6KBUhXq8eKbH0XIv1RRO2VjmRmhFuZQe0ljG4qoS4p45iPIhO7VMMe3+Mak6NYiwvzM+FSAUpfwEBYtF0IZgIoL90Qn5mxeWxEZdHRpztGrG/rsfmok4sy1aoK1q3QH4Vg9NRQzTSQjJWRtgdhcdwiErhf8HnfAcn20fYW3VAfRZBzFIWEJ9upY9Rc4BRu49uvYlGuYpKnpdNBbFAER5bCgY1v8mpO7Fgd5nFbRWHc/jTbTuuThwieFZDFakyCMWVDxcnThxucsSpEQl9jIsnUFXU3bxeyKwvtgKQ74fE7y117Zd7VtFRHCzQbc+IcC8kBwGcnwTwgBgBZg8y7lp95hf/cWb5JjrszlEfrv51mOv6U9rMdDhcNOGY3sYDB64IqGQgkTwGgyIKnTwELb+arnxQXbpFpITlipETCbhJZzWk4LekxE0TIRqBuIFoEVnqrTN0ivQwbI5x05vivj/FbWeIcb2DfrkhcGFEF9DZzdOrdtFl8VLgRBF+pSVOq9pEp95Ct9FFv0E5aR/dShetQksAaKpJAutLaBVdGHbfxaj/XXQqdiHWr6UpZKoKq1W/3MG43seo0cSgyramgipDYoNZEQblM4RhkRHSacP1ngnSXQsud60Cvj6zhs28kOQyWpVSlPN/iXzye7DIT3C+ocEW41UeMdqFWnUDdqmf2XDiaMsh9ge07p1ve6A4CcEk55gsj4TXhXrxY/Q7f4hCXI6MPyUSKJiilmDepI3JFKFZkKrKB6PCA+21A7Jzk7jNDzaZWTnDMeysWiA59sJiSCMabiCdbCERKSLkYDbnAcr534fb/h3sru1h9YVe6JLc8gTy/gra+Q5G9QFuOiNMun2M2l30m13xrUmpbNCTgdUQhPrSjYt9Bw7XbNhbdGB/2Sn2IleHbmikHpjVAThsSTisSVhNMZEIcXXmxMGGHmvk1T8lKYFvEyWWaG5/YcHuggfHqz6cbbrFiPp4k8pEmmoYXejE6YEHl+dByOURPPCb6OzOwE6gzDVfpR7Ij+wCWC+Sa9mPP9Ni43OtEFoRlk/8wsWBA9dnbqiY66iMwKpJgHJLAm2YOc8gUy4S9NIITNek8Sfh0qXgNTJJK42gMyNc3Kkw++uKKO5GqYN+Y4jb/hRfju/wy/Et3vTHuOFNUelgWO1g2h7MTmeIaWeICT8A3QFGnQEG7T767R4G7Q4GnQ6GnR5G7RGGrRH6NfbW3VkRp2ogr6NRcKHf+TGGvXfQKllRTVUFY4+qPEJquBCiUq9XagiaUzlG/BkVd3G41Ewa8EF54IB0g5szanponrDictcFOV0qpGRRdHbihU19iUqBBf59WBVnuNjmBaLExucKbD8nhIh6ey7PiIZw4XCNrBBOpbhV9ghlplmWQMBiRSnzIXqtP0Q2JEPCnUDKO1PzscDDjiT8FoZXReB5e+x6PxTXtOOZcbRjwh4xaTQFHHiEopJIuHyKPJMqYgHqWfywq/dQzrHA38HO6j4Wn+lwvGqB9SKIjLOAdqqNSXWIL/o3+HI0wRejKW77E3GZFFNVRITxIgaDnBGEJAFwnOzBxY5POLV0FwGBqHPpoyI9IuTPv02RSImczotTG7bXtVh+pcD8MzlePuVRYuGZEWtzDuyQiCXYNXykmrC/ZcP+lhvH1NCfe6FURWCypvAg4iiKqDuvkY/BiIiv00r9AtBzuunAwQo/eVaBzOK28nTDikt6+s5d0Fx5oJf7YVIxTImx1CkBfbQSScbUqzMvtFe82VMwa9JwEA5pzsFvzyPinU0FChT8Z2mB6qLb6GHcHeF+dINfTm/x1eQGbwZj3DaHGJd7GFd7uOsOcd/jmGqM+8EYd8Mx7kYTcW6HY9wMx5iOBpgOe5gOhph0Jxi16EIZoVPso0mcQaaFBnMlCy70Oj9Gv/sOankzSokiCozGDuVE4FUxXEApQohkHilPCiFzBC51AOZLn4A9ymlkXnPgZNGGIzqZVmemaQrOqKiUH/tBTylX4la1FOXCXyCX4A1+iostA/bn2fIpsf25RkBCzxatkK7acM0xK6OxV9kzUzdiF5ognYRJE2YUUyzwP0I2rETKk0bWVxbJx9SBMAMoRBKWPY6wI4GwMwmvLQqt2gnZpR3nh3acMW340CuQ0HTk5zkWFG+cPGKMEjS4YZJvo5j7PXgc38P+5jFWaANcNcN45kHclEIjXMOk0MeX3Rv8ajjFV6MJ7vsj9KsdFOPcVMfFat+kCAlPrcixPPPDQF07UdTyCFyqKHyGOGI+vsOKSDEuJVKE15OCXufHucSK3V0D1jd0WF7VYmFJi9UVC3bW3DjY9OCYGI1DO85PbZBIPLi4DEGmiECrj8PhyiKSqOABpxqzPMckfGZaw6IwKWKgwP7qMADJjk8YFE423TjdIi3JAfmZG1qmm8m9ImaDabx2dRRubVK0IVx2WK4iMEiCQp6qU6Vg1mXhMOXhtRcQdJeQCFbFvLueoxtlhB5107yd+2O8Hk/x5YS3+ARvehPcNkaYlPuYVPu47Qz+s8gHYzGiej2a4vXkBvfjtz9ORrgd9zEdDjDpjTBojtCrjNAu9NHMdtDkByrbQqPoRq/zLvqd76CSMwn8AeE0bEHSvjSS7gRijhhCphA8ai8sV07oCHfcs0FGA++aCxfLbpwvenC66MbBMslcRDtQx8ObihY8bnxdMKsuUM7/BTLxd2C4OsTZOg0lCqw/usbqJ1dY/0SGnc8UOPpchdOXaiGf2CNDfUUvbvNzIqiPmDRhQj7+i1mBh1TIBwsCBEpqbD5E7Qdv8a8LnEUeh98egdHohVpBp70LV8c+aCSEd2aQ9hZRTxbQzWdRT5GmRfKVA8bLTRQz/xMe5/dxsH2KlXkK5szQnjgRVIdRdOXQSzRwXxvgy+4Ab7oDTJs0JRM8mobfGoRdG4dZHoZBhNsSKhqGSxWDWx2DRx2DVx1HQJ9AwpsF5/ilTAOlXAOpVAVeXxo6YwiXci9OpW7sn9qxfWjG/rEbZ6dhXF5EILsKQqHwQaX1QWOKQG9Nw+zIweUvIZpqoFjv4QFB7UF7GgELV8uRWUahKi5gkCxy+VkIslN+zdBeRquTA1qpHdorN7TXFM0zSyYoSKl2TUwUukVBYqp/hgWWJ2Dm9kmfh8daQthdRSrUQCnZQbMwECveUfMGw84I494I07c38uvxBPfDMW67E0ya9AIOMaqNMGlPcNuZ4nXvBl8O7/Cv43v8anqPf725xS+nU3w5neD1dIzb8VAU+Lg3wKA1QLfWR7PURS33dVAqlzkOdFs/Qr/9HVQyJuTCeWT8WSSJTLPxNz8El9ILM0VbJy4o9+242rbgYs2MMy5ORH6MDWfLDmG23l934HjLLTyUF0RV0G5GReOxCxalBOX8nyMdfQcayREOlzgHv8Tix2eY+9kJ5v75FIs/k2DtYxl2HnF6oBI4ssNFnViinfObc8cJ46UK6fBP0W3+CdJBI3L+KgqhpnDU5KgoZN47Ywh54ahiAtTp0kahU4egVQahkQeglzO6MCayewjG7BYq6BbyqCRTiLrCsCmt0Em3UMj8PryO7+No8wQbtJUtE25pg+nMg6A6hry7iF66g2l5gHGxh3a6gVKoiARDpwxROLQp8c1OLIZTHYJbE0XAkIFfn4Fby01vGG5DBBFXCZlwVaQ1c2hQTNPzWgJJATZbFCZzEDpDAGpNGFpNDHpdEiZDEjZLEi5HCl4Pjd95hIIlpOIcNLTQrHcx6g/wwG+PI2BPwm9OwGOIigIniMaijIrgTu11SIR+aq790DMo6NoJ47Ud2mv3r6cleoaZ0vmuiQodCG90kzIAiyoImzoDh74Ar7mMsLOOVKCFcqKHVmGEQXWKSfMW0/Ytxr0JJv0JbthujN+e0dtRVIdtxhij1hTT3h1ue3d4M7jHv47e4N+nX+A/bt/g327v8NV0ii8mI9xPRrgZDTEZ9DHo0DZGh00b9VIL5WxdvPT5sC3S6d78R/Ra30Y5aUDKl0XCmUHEyolPBHaZF4YzOxQ7Dsi27ZCyx1414XhRL5gx9KbShE23EzFwhzsOnO57ITn0CiYgH1KyIzrXXbAqZ2PCVPgdqE4PsUeK6mfnePGLQzx5b0/kHj1+9wjPP5Bi8UMV1h7KsfVUjv2Xahwv6nCybBBQJuXJJWK+99Bu/IkA3Wd8deSDTQi7mJ8xhMz5DMB47of+NAgj1ZvUnchjMKrjsOppMkmIMS0XM71yC4NKHe1CQfhCQ86AEHtppTuiwH327+Fk7UgkaVC+SsP51ZYNhlMffJokcp4qqpEWKqE6sp4SYtxW65Pir7n0s7AunzkFvzEGvyGOkCkPnyEHh4aw0QBs+iD8tpLIIKVEgmnRFWb9RCticRUNZhAKxhHwp+D3lOB3F+H3MIqwiGiwhGS0imySESrNt0OKDobNHm56A7yZDPEg6EyIyDtG3QUssyBSMjrsOsbYRWBQhkTgp/7romWeoZLtiQ9aBoLK/DAwU10TgV0XF19LvMkd2jiIBfMYi/BbK4i4GkgH2J+xD6bVaopR/QbT5g1u2jeY9qe4GU5xN57ifjrF/Q3PDW7Ht5gObzHu32IyuMPd+B53o3t8MXqNr8av8avpG/zq5jW+urnDF5Mp7kYj3I6GosBHvR66zTY4VamXOEqsidshl+CCqIhi0opu4x/RbX4LhahOcABD5iR8jOyjuEjihHLfgksCPN/e2izu/VccoXKipBYoDSHRpPqSD5xjH67PAsJqpjgj28QrcNFW5RnKuT9DIvRtKE72sPeKGGeGDxzg4bvb+PCHm/j5DxiuS/zYJeY+mtkHN54pBAZ695UaO6/UuNw7Q8j9T2jV/ghhpx6zAm8gF+QUhePEoMin4aiSNC+CnVRnfugUSVj1GXitzMEsIhch9L6FUb0rCryZzSIXiSFoD8Ikt0Jz8Z8Ffrx6iDUBViWkVYWDeT0uNmzQnPjhVCYQEM6eDHwM6dIk4FLzEc6sT44tiyLKhalvAWMSQWMObm0aFiXNDz6hfvRYZtGFxXhJzPVJ7i0lqsIemE2WkU7lkEryduYYsyFOOtFALt1COd9BvdxHuzpApzZEv8W2dIC78Rhf3o3xIOZLIu7PIMGlC7+aqfFwJOC1RgV+wKqfmVLN2ghoULXrwnDqyCmhly8ibm6rlr17Am5jGh5jBj5mSJKXZykg5Kgi5mkgHWyjGO+hnh2JRcGwNsG4PsGkMca0NcZdf4K74QT3Y7YYU7y+vcH93Q1ub+9wc/Mak+k9ptN73N/e4/X0Hl9M7vHl28M/vh/fiQ/IqD/GZMhWZ4Bht4dOgzPaujAFl7JlIS9lgTN2pJSyiQLvNL6FTEiLINs0HYubiwQvlAd2XGwYcUL67SITvyiI4nhPifWnMmw8m6kwaec7Z3AVH5R8d1xyVU7FHqdJTLXwwPZ1gQe/BcXRDvZfyURI7fNfHOHjd7fx/vfW8O531vD+9/fw0Y/PhA1r7lOq7eRYfanA6ku5SLg43T6C3/kjNCp/CL9ZjbS7jJy/hgxlC64YnDofVBIHJCT4bnPJYsfVsRd6RQouYwERTw05wkKzHLX2MWn20S1WUE4kkPSFBDtQd2mCSrKFPFsU23dxuLIvwEoLD68w/8kFlj7lr53xkzTLzNI7ODHSnvPDFYFFnoBDlYXXXBTy26iQzHJEzN/fjAhxNVyHxCVp1QaF4TsRKKCYLApaVj1bFvReYuDK3G8UKygWayjkOshn28hnWyjmW6iW2mgSCNoaYtgZiy5gOhzhbjLCm7sJvvpiigfpSBrZWA4MEMozYyWSR5pzXl8SQVcSbnsMDmsUDksMTjPVe4zSY4hpSnDwZj9PiVDUgC0vTLEErUcdFcRdDSS8daSCDeSiTdF3N7I9Mc3olXsYVHoYVnsY1Xvi8XjbG+B2OMDteIBburhvxpje3mBye4fxzT0mN3e4u53ibjL7INwPp+C5Hd5gOrjBqD9BvzfGaDAGf6GjHseGbE94g1MuS1MFY/FmIilyr3utd9FpfFsUuM/E5NyIyFrUnjJew46TZRa2HofzehzM68Stvf5UIebX5CsyxJYYZskOzRxBaK/CMLAd4KGM94pZNFz0nKCU/VPEA9+E/HAbB/NybD67xquHEjx8fx8f/HAT7353E+//8EDkdz75Fzlefa7GCtF5y+Ql6kD5q2T/FAHXj1Gv/IGIGaRaL+4oIOlOI+KMwWUMQCfz4urEA8mhR3yjyCTEwFGTTQN1A6VEB638DKQ5IAGAW8hQBEGbD1YVeTR6KE43kE//Hnz27+JodQ9Ln8rx8kOJwKY9/blUpGm8ekiUnxHb83RzkWVDjTmh/mnYNHl4LSzwEiLuHPxW0hMisChi0PMCkAZhkAcFai7mqwqphjBvF8qCe0hlKXVElWId5VIFpVIVpUJbFHap0ES11EKz2kGv2Rdvt1t++4+meHMzxZevp6K4/+2rG/w/VxXNHsnA9M8AAAAASUVORK5CYII=;" vertex="1" parent="1">
          <mxGeometry x="104" y="65" width="84.7" height="87" as="geometry" />
        </mxCell>
        <mxCell id="Af-LLxnNtBrIs2X7w0Ru-127" value="" style="shape=image;verticalLabelPosition=bottom;labelBackgroundColor=#ffffff;verticalAlign=top;aspect=fixed;imageAspect=0;image=data:image/png,iVBORw0KGgoAAAANSUhEUgAAAFAAAABQCAYAAACOEfKtAAAABHNCSVQICAgIfAhkiAAAAAlwSFlzAAAPYQAAD2EBqD+naQAAIABJREFUeJytvHeQZdd93/k554aX8+vcPT15gJlBIkiQBEQQBAEGkJJIMchLSeZS3pJEyrak2qDSWuXi1treql1bUpXspSQHeS2uaEkUTTGKBEEQIBGIMBhgBhhMns7hvX453XfD2T/OfaF7GqBKtbeqq7tfuOfc3/mdX/j+vr8j3hf7RaX8AOX77L2EFLv+V4Ha9zMqUPqzhoExUaT00AEq7+uyMFGl9L055r9XR15eQfk+MpUkKObwUxGMtoMs1QjqDVS/P7z/cFwhkYkYIpWi9o451j/oMzdbYX0zR+b5CPkLDn5EEr9RQy2t6XuMP4eQCCkQsRjq6AFWPpjh0Puus9VK4X+jwPQTZdTyOvg+IpmAyQLOTIrIRhNRqRM0mshCnu6JKTbujeAUAmZ+pEhfasCVZUQ0gqn8AFRwk2B+ksD2/UygUE6fzPUerQtx1q/HyC8HyE4fpRQiGsG5ZY71+6JwV4PgtRzz349jn+uj+v2b7ilkgOo5iGSSwBLcdmSVfzz3GJ8t/SLJdR97p0P9lgx2PoHVyhOUyvr7vg9Cjubl+xilGrmLSa6JQxguTFxxoFJHeZ7+TKuNACLbO+B5BH1X3ytqUztm845HznEgVuGvtt9N+hIIwwDXw0QF+wpqjyTH/pRv8BGFMADHwSq1mXsS3KRJdLMDlboWiGVRPR5h5j2r/OnxP+fXCp+k9toBIpej0GgBvh5L7B5D9XpEKz6vPXeIP3jrw8TOx4httgEo3yXYuT3G3ONTxIBgpwJuKBQpIFAI0wTTILrjkrkmsDoBke02OM5QwApQtfpobCkQQoBp4NuCg7Ed8mab7kEXNx8jUknjzhcwDotTnx+frAi/OPhBAUKg/yD8rfRrKtj1v34pQHR6GPUudqmDqDVRnS74PkiJu1Bgc8HEyng8dv0EuWcl5noV1emEQ4zfH0AgpMQKTEw3Su1ajsIFl8jSDkE8SvXDHtnFBhWRJurEsJsuIggQlglBAAKEbaGmi9RuSVA7IfBiBrGawKh2UJ0eKgiGw6IUKKWfXYDwfKIqyY/rR3myfpjkVYtIA6QwcSajGEfM2z6PCgUnDYRtIWNRRDwOgRrdFDUu5fC30IIzZDigREipP9/vo7o9VLerNSIIQAhsK0nQSfDs9mHSZ2wyFxuwXQHPGxMgY0JU4AfQ6hDb6pJa7mEulaDbQ0Qj1B40+cjhVzAP9LjEJBEnCbkMFDIYHuB5CMskmMhQemuEw/cvsVMwUDtxktebqHYHAl+PF+40YUiEaSAjEUQ8juH4RJwIgbJwCormAYnAxotKzPHtK2wLMTOJs5gnsCSx5TpidZOg20P5Y1t5zzbT29fQBj+XJUjEkM02qtEKNSsIt6KDcXGFqc0Uk7EIotNDVesEY/Zv30sFqL5LUK1BFW1PTRPh+QTXksgTin+98DU+cOuvUmpl6E4bRLclM89aRF7uQd9FOh52A8qdBL1KlCSAHDMVSo2UwzCQM1P0DhfpTFnEytok9CYUB96xCsBKf4HZp/oYR6w7Pi9MQwsgk6Zy/zyrH4buO3u4/SyJUoBqtrQG7dLCkYcWhoGIRhALM5TvnaR6W5wgnSLaUNBoQhDaWaW0pnU6UGsQtNqoUDtHCzluj0PNV0p/xvf154JAb7MgIEKOZxuH+a/qJN2rabyU4uF7X+aO265ztnSIzLIPrQ6i0yPei+HdSJO9JMhcaiE2S3r8wS4Ld5NMxOmdnmf5EYuZR1a5kcwiXQM/JsgdqnGjlCd9xiJ1tY0psxlUr4cQApVL0zgo+Z2f+hrH7U1+5eqvMvFCDGEYeqA3uWQyQf2WLOrjO/zu8e/w2z/6BLFylshmaeTp0B5yv5DpZq0b28K7fg92gUB1e8RXWhyo2LRfzZDtBzQWTLrvsKj24wSWvo/yPOj3MV+7QW4zp51GPIqIxZCB0jtsPBIxTXpFi9nTW/zBkb/ks/6nqF+dJf+az2ZtkVxNkX+pitgsYbbuO4R0FfErVZRtEi0rvnDpfuYydWKbAtFxtJF9U+lpbXTjkoV0lffHN/n9mSpuskDEMsMHDu8h9vfiN11jGj7cXsNtJvQi9PuI169hGAaZV02IREhcy3PWOo2XgMSWQrheqGDalgrfJ8ilaC8mUTJPYqWNuLgE3bFYuO+S2HC49uoUn/H/IaXXiyxcd0m8tknGD1C9HqrbI/A8zI1P9pHXYkyLPPGVJlPP1mmWM1RllpmrddgscVOsGAphGPAGCtVzyFzpcPHbx7jz6D8he8Yme6OKandG23Pv99g/1rxJkErd/P9AiKCdjFKIQCG8gEhVvy89UKah/45FYXaK1pEs7UmD2kmFEjDxYpLCVga/54BQqEAROA721W0OfW2K/hN5DjZdole3CcoVrb1KaQcLmFP5BmstC2VqbaO0Q3rN1g/X6RD03ZuiewgDyXFBOA7WcokD33Tw0lGsahPWtwn8keYJKbTxt22UUqh+H0Fo1/YL5ofefvyl3cLXC6DnJxIJarflKd/f58TiJpfOLZC5ksas1hG2TetwlsoJk+5MgJpyUFUbLzZ4HjlyjoEiKO9gVWvYto3q9wl8f5cpGlxm9clpCluK+GoT0ekR9BzoOVrr9CzD7GO09YRhIJMJnf4YEtVsaZWu1qBWx2Rg64Lh9wFELIaYnsCdziBdH3Ojir+5rYW41yyGAscwtH0OtVBGIqMFdZyRBkuBSMSoHZV87m0/4OfTL/Oe9X+CFzcxpQGGgZuU9HMKP+UjyxFSS5LMNUc7NsvSShHOW3ke+AFqEGyHC7YrvTUMzMUvbyH6rt4GQaDzxm53GMVjGKHQ0P9LgUwl8Y7PUzsex+wp0ldayKtrBJ2ODpj3G9AwEDOTlN85SeV2hdEVTP84SqLdIag3QezeysOwKJ/DL6SQbQclJa2jaXoZg/Syg332OkGrrTUnUOD0iZUUf/zy/XwxcQ/xszGi62UtaM8jtu2SWLGRrkXmckByrYe9WtUDLs6BKZG1FsFOFdXt6oXax3RhGAjbRibimGpjGzFRoHNikua8Rbzsk3y1hNjeAcuEYh4MiWi0tYYB5DKsvTvBrY9cot6PUfrLeaZqWYTjEOzx1gMhCsPAm0hRvRU+9uCznK3Ms7V1gOT5JDRbCDUGSgiJsC2CQ/NUT6dpHBJEyymitYDNd/scPrLG0gtzHFvNIRxH59EqIGi1mXyuTryUQgQW8bUGbJWHeXb0whrTGyn8TAyj0UN0etBzCCZzbLw7j5OH/IU0mTMGamUdgn0iD8NAZjOoqTydmSSmiNh0jhVZ+pDB7Xdc45XzBznUzBN1PbypLNv3pHATkLucI/28QDWbqHiEflbxKzNPUPLT/Mviz2thj3vOfS6j2cNqx/n+2nFa3QiZamj8DQNME2mHtrffRyQTdOYSlN7b57fe9j3+05V3Ujmf445blvnikb/hnc1fxs8lkJvGaBv3HMTVFVKrNnieDr5dD+X7CCnwK1VEq41ZjaNcV3+vmKN2Ksv9n36eXy78iI/+4HPESjmsje0wRhx5/kGaSzFH5c4cpbcFmABOziSzWOPzB77GvzIeYeOxo9ipBJVTSRY+cY1PzzzNb3/9U8RXcxjNJrLWovBKhl+b+ocoXzB9PUB0nTeM71SgwPWQGzvMPJ2gvlEg7UDmUgtVbyLiMZgq0p9IIJTCXtHbyosJlC+43J2k2Y6SKAteOXuIT/ER+q9mMJrl0Zgq0Ha056B6zij7CYWrAqVtbc8hcN1hNiN7fYy+oubGAEjlOriJFLZlIhyxawcPMq4gbtNcEGQXa5goRWK1R/VMno+Wfh17w+LgagvRd/EjkLZ6pGQXPxYgBpOp1sk/b5PYzCKCAHutRFDaGTme8IF2CdGHoFYn8vxlJs9qbVWdLsowYG6OjQfz1O9yEA2b+ccnSb28ReZ8Bd8u8PjFt5HfVmSudJh8QVB++iAHl9qo1c1RgB/ap3GB7roG9msgaCmGGU58o8eZr57mo8eOk7xoE9tqjp5Fhj5gYMt9H9noMvlSlFJQwFTdHvb1bRa/lsNP2hg9B7m8BZ7HxJk452In+ae5W5k9F2BsVgl6jl691Q0ildpwq2h1f5OAO5x40OnsCqaFEHjZKPWTHl9897/nbG+R/3vzp0leisBOjcJTDvlB3tzpgdsndz2JajT1XMYN/cBzMwa7haHJLu8ZhlMym8GfzCG8gImzfSI1C6sV4CUsLNAwWGhiRCQS2loF2zsk2l2iW1lM5Xr45R1ErY4Z7vfA9xFCYC5vM9fuE0RNjOqYExnIpNvT7n6/OG6/jEMF+sGUO4onsTB6HlYtxldrd/Pj0kHimwrR7hLUGwQ1jSUOIgB8H7o9HW4Mxh2LTYUhNUjg++FnRuHQIPgVQiDmpqnfVmTrHkmkIph80aFwrkM/a2Ov1xGJOKrXQ6ZS9A9P4OQs4mtd5I1NHR93OohqDeOIPPV55Qca0gkHBTHCxXoOolTVsZ7nIQwDo1iAfBYZjyM8L9w2IWY4TDp244pCCIYR8TgQIQWGD4lGnFe2DyKeTZK72EasbIWx2CCeHIAIjH4PNU+E88oTHFvAOzSFaUah54xAEClHc7NM1PwENz5q86WP/iEr80mWV2dIXWsjA3DzcfxiCkPa9A/kWP5AlNo9Ln07QbJhI2tNVBj6mSPlGK2msIRW78UpvJSNVXcw1soE9QZyokD71DTVExZ2XVE8E0deWyXo9oYCGW6naET/aZp6xYRigIAPt5rnadv4ssPCtaQOK1ptDXENtGyPFu/VdCF1quacmGXj3ijdGZ/CmQkmn/Dw1zZ0ojIWcAN4SRsU2ASkTYdoVaFMSeNQjPpRSWAq8q/ZuElB/vYSt+a3+GHpFH7cREYi0O6CGhPg+GSEbRMsTLL8gRT9Y13sq2kWvmNgLUv6B4osPyL5Hx/8On+1ejfN+hSZrbiGx8ezFdtC5rOoZFyndqs7qFaboNVGyJGHFFKgHEevaLM12q6MbNDARLxp3myZtGdtjr3/Kr85/yifsf4HchczGFul3dlKmEtHrm4z9/gcn2z/JpEdwfRaF6SkOyH5mY88zaFIif8z82EKZwWVVyb4QTpPZklidDyduYTyMm+aiJCIaJT60STz717hT45+iV+f/yTVSwfIr0oCW6KiPrdFV3gmeYSL6ZlhtrKrduJ5WniZKE4hguxlMFwXWu2bhtSCDFDuSDNlJo1IJfGLaUTfQ2xVtD0c18pxhEcIpKu4slPku+nTCEcivACk1AhzNILIpLX3rzdRnQ7pF9cxutN0J0y6UzZ2wwAFTmDSUxYYkLnukLkGwlcYvS7GaoghhvO8WYBK569202dpO883pk9xvVxgsqFTPXurTeGZHL9c/SzRsmD+XAPVao22yGARhEA02himxJYC2ezsm4yroXaNOR3DQKRTNO6cpnbMwIvD9LMp4meX8cs7N2ufCgiaLbIvbmF1Jvhe8T6O3OhhXN9Eua4GLw7OsXN7BicrKJx3iF7eAilpz5i0H2kSsTxqz+TJXfR59Mv3ENgwd84ncmMH1WjqcQKFMkKHJQYCFFKv/ljAqTpd4leqTH65wH966kMU130SF0sEtTqi3Waq1WHihQSi50K5ou3fri2mQwt/u4RstbFsC7o9Asf5yVtxIJOoTbco6d7ZIZ9pU25PML+eg2ptZEuHIZ9CCEVQ2iHheiTQ5QPV1A8uMmlKb8lgfmKbX1g4y3/46vs4VM8gmz3ac4J/evJx7o1f5ecu/ybxH3RJ3PB1XlxtoXaqo5KrZSGjCV1nMwww9tvCgHI9xMY2mXqTTDSCandR7bZGWPououfAZugIQ8RlX6H4vk72Qy0ZPOxe7dn9vkQIhag2iNQL2K/FKR02mV7T78tIBGwLNbivkMNdo3oO/nZpl80UIaDr5ATvn7nEg4kL/HH0Ye25210yVwL+9dmHyWfuJXVNYm43UJWqzliUGoEjQiJwUZ6PsCyISIJiBvGB2X+sgmpN26xxTxwm9UNU5g2EtLfQvt/7NwnujdDpsZhO2hZyoog/ncNN2URWqohWB2yLzi1T2PU+8uylXeDm8DZjwfUAenPvOMz6vTG60wHTT0P2bBnRd3Fnc/SKNiKAxNUaamVDa5y/B6cUclj7kcU83WMTVE7YmM4ts0QuSR1Mj+FyQ6DyJ5QvftJ2HA9ZhsIWu7HFgfDG7aDyPIJSGVEqE4nFNC4XiUA6Sbdo4iUM0ktZ/bDSQERsDbWHmjmoIqqw5mG9tsriRpogFcUoNwgyCSpvLdJPCbLXXGJXyqiqdlJCiFFpa4iGB6D0c/iFFI1FC+89dczy6SgzlQyMG+d92AF/32sIT1mhEMV4vGkiJ4t6kn1Xc2TClFAFahQudLvD5B9D6jhfAhEbVcjSOp7BjQtSKw7Wq8uoenP3JHxf28N2Wy9YMkH7UBr3H1Q4Xdzkxa+fZr6R1vYsYqFsE3FtVde2+8EwqVCBQrgusutitRTVjo3p5CCIWUjT/LtVy8avPYLeS0YKX9TodTqJsi2oNVHttg47clkad83QT0piZY/41Qosr6F8hrHiICAXkYi2R+tbFDo98HzwPBpvm6H2D1rcPbvCsz84xdFyEdFqozx3NAfDQE4UUfEo1BoQjdCZNPjgwgXuSVzlqcmT9LMRehOTlO4wkR7MP2YiLy7hu55W59DrKqWQOzVSyzH4VhTjDnX/563lMkGjGVbfRvjXGwttrLw4oHUMbOYgFw1/ZCqJe3KR0r0F6qdSWGYKu+mCaeIenWH9foveO9pUpyNYboJYPYBeT9u1cA5ibhq1U0XGYwT1pq5Th4l97Z5JPvb+Z/m14pP8WeltFJ/3oNrQIVNoy42pSRr3zNM4nsQWcYxmD0NEeMo4yLe2T5F7ycBuBmzcZ/Kbn/ga6pDL8tI8iQ1H01LG/YKU4LoY9TbxbQfTurA8gsUHKz4QRiiwm4o+e2DuQfYiUknIpDRy0u6gHAeRTlE5GSP98XUemLzMl776AIe2soiNMma9i/BiTOcaWMUqS+15UtfSyHpzBFNJAVtlRDKBX6mO5uR6YBikVn3+y2P388Xpe8i+YCNrW/jjkJawUOkElVsMvITC7EbIL/tEl6osfitHYEmi61WUYWD0MtT9OI5v6pry3mc0TV0HCmUT7FQxB2jHOMdPxqKIaFQXV9ptzW0JIfd9hWeayKkJ2icnqdxiYdcUxTMN5Oo2yjTopwWnspucjq3iZgKUKRGOg2z1SF9XNO6K8K9OfpX/S72f6oU5iqWkZi8EOowIHEf/H4Ysw8yl55B8dYtjW2n8qIm9ukawVdJbfbwQrxSppYD6UUmk5qEsE7VZ0nCc72sGVyTC/OM2f958GLummHi+SlCpMiiKiYj2vrW3z2G1faLbPeTylmZnDVhYwjSRyQTeyYO0ThVx57JEegIG7Kpd5B+9zYUQyEQC98g0N37O4tc/+m2WD8VorhSJr7Wh2yMaJHi1tsDfrp1m6scQv1TS27DnEBEJtgsZxJyHELB1cYLkjY7Oi4dCGJkUYRoj8xCPQSqB2KxgbJRRtbrm9Q0JUQAC0WwRbxtE2zamEyB9EO2uDrb7fa3NrotRbZO57pC4XIXSDsrpo4IAITXtpXvbPKsPC2q3gvCixLom5jDEMDQ/Ri1Mc+PDMT7w8As8XzpA4z9Okuk6+Ntl3jCmUQFBxMDM9/h46lXqfoyvZObBNFD1BtHXN1goZwgiJma5SVCuaIcVBJirO0w/G+XRuk6fZi45iFZH15PHzIqMRRHpFCoRQ+xUEZaFPz+Bm7IxJtOY564NS583ITZSoqIWpTttujMBhZciFHsu6sbKyOv7EuF5Olffa7aUNlHdosEvveuHHLB3+D/aHyFaTepUjrBqhmHgZqN4M33++dQP+EPrHr6duH83i2k/+bke9lab+NN53i0+h1pOsPi6ozHEfh9/u4zYqSClJICht1dKEdQbJF+NECmn8RIm0RsVgmZrtFUHIOnMJI2TBWpHDNJLBRKrPSqn4jh5QWo5ILeWhY2t3RMbODfDoLOYZu59y/yzQ9/gV2Z/ifRyGnsjogvmgRxLDceURI0cGa6L1VY8X1nEzerYtZ+UGMcm3vV5WcgTLE4j0kntRXtR/p28i/PPH2XqRb3XVb8fgpO7JzjYLtJ1SW1D+hWbwstdrGtbepv6vvbuoXYIy8LIpJHJpIZXHQdabeR2DXNlB2p1lBd+BxBSs6Uab19g7UM+v/rhR3kssYhsR6m8JeDe977KebtIei2KWWmD29ccRcTQxAjLgmKO5ZMRREJy4YXDFM92YUvHvtI0hgDIEBgePJ/+A3yfiGNQrsxxfmmRyRd9Ujc6mKSTNE5P0DhggIBYOaB4tkV6KYJdaSJXtjV7aQghja3KcKV0TVZ0exgrBrgu/ngeOZiGYSAWZmgdyeKkJZmrHcyVskZYBl53n+0zuJL5Dg8lX+ObC6fZSc5j5B0eyr3GDyInRmC3aWoIKwhGnB7XJXK9zNSXpnls5h3M3fAwNioEgEwlIZ9FVBsEjQYCHxgrlQ7ybNeDjW2KT6OzmYq24aY7lWbnpMHbf/octvT4/uN3kr0QEH3xGqqtbdFNFXqtGrvDnUChAi/02PsE2ELqwPlEjtX3KRAB3Ykkc9UOYqeCUvugz4ToUL9PfKNH/eksH1n7DdIXDQqvOVitGJ9f/STF18He2gEVIIsFneR3+4itknYUSqHqTVIv+KSUQvV6BH0XOTVB/e5pGgcM0stFMk8t6ZLoOHo0lhOrbhdWNxBAEGqoadZ6WK04VSfOI5Pn+G7hlNawkEyzi1kVBtEipDaIVFJjbf0+qtXWqPIedGV4SQFBgG8LsHzsVB9UEhW1RgtijAluwIhVmp9iXt1grjtBvxDFrrUxNqtEr5kUziYx6m1UtY5IpWi+ZZattxnYNcHc4xHk1VVdjrUt7VU7Y7hkz8FqBSjTwHAUwWSOfjFOc97W1JFzS5p2EhKgxmkqMhFH+QGmrDWZ/rHNjeAIv58/wuyFAKNU1yXDcTUer3yZJmJ2is6JIs15k9SKR/xKBVY33ri8GShUt0v6Wpv+s0nchE3mhoesNAkMAxmNIBIJjRi3WhpjHEOfVb2BDBTRZT9kHOjiOOvgB0o7mskCW281+J2P/zXfr97Cxa1TFBoFVCJK63AKq+UTfXlZh2UAShHdbDNbM5GdPv1igqVHLN593zkef+EUxxvTiFfboxRXSGQ6Rf/oDM3FKNIHU3W7GNc3mduKEaRiyGqLoFbfXSQf0sxCIaZStG+ZYP1TfT516mn+7OW3c+g/Z4mUKsOGmb00NCEDgnYXeWWVqVJK8/aabYJmC2GaQ8TYi0H+1S7WxbWwpDny2GLAlHJdBs1BwjDCBZNgGphdwaXuNMvNPKajUBGb6uk0W+/ySV61mWnNYLQclGWgOn3ERhnD80AaqMkE9mKLz019n2emD94UfQhD4s8V2bgvTvG965SaCUyRSRNslTQMtI0GEQcecDi5kSAGYU8/Jbltfo3fLb7C03OH6eZmiRh7wp2h1o62Y9Bs7q6LSIGcLLJ9d4bcp1aZidc58zenWWgUEM2mzgRsG5lJ488WEK6P2KpAvTH8PoR7f7PE7FNxvlu6D7OjyJ+vIDo9zG4Gu2xi9KCfs6nflaB+wid92WD2e+huJaWIrjexnyzy8eZnSb8cwdhZ185w1zMJ3LSiGGvRcS1MFYvoALrf13YtndLbqNPRjIMBnB1qEQB9l+S6w4XHjvGWnQn8F7IcWGqgnH4otzA3jkURyYTuxWi3x4LWkXcWaAapHxW8vXCD96Re46npkwRxGxkugrAt+sdn2HxbDGXA7JMRzNdd6HY1UhOLoVwX+i7W62tMXTG1/W61wTBIv2xg1/OYbY9+3iZ4uMqzd/8Hfubcp+lezhHb0JGGWN9i9jHB5AtRzHKNYHN7ZJKERPmanXHgby0ubx8nsNDcGL2SElHM0751Ai8msRs+VqOvIe5qPeT+MfRG1utrHKzm8X4QwyrvaDZqzxnZikKe7q3TVI/ZRGoB+edLsLGtPdlIpXWO3WyRvery5a/9FP/vxDuZfg7MrTq+UsMgeu2nYvzvn/4iF3sz/Ff3vSxsZcA0ab/jEM15DSokz20SbJc1xW68/rzUI7KxrevUJxZo7CR4tHOAcjXF4UY/LJL7BO0u4sYqhlI6vB3j3QxMUlCpYnW7zF0yEZaFKaqNsCFIoCyT6nGLXl6hLInZssm/HiP9soTlzmgbex6qVkfUG1jRyChUCGlkwpC48wVW32PxgYef55sXTmN1iqTqTd37NihiCanDlFab2EtLHNos6rWstwm2dd8blqXDhS4kpMOsXcWPgoraqHiU9XcZvP89Z/jmmds5tpPDbLZQbmtPtc8HR7NOretbHPzLeX7vuU8yu+ljrawThE1ChP0oQ9Mghd4hA5bFAInxPJ1lAaZKJXTk3m5DEBDbDmgtwAP3nudUcp0//OFD2I080a2y1sLBpALNfqc/BlyGAh64Dz+qOBwrkU53EYF1U+1isN2VH2iSZben0zvX1WBBOo1/aJreZIzojuLXv/4Z7Kpk6mUXdmowU8Q81OJ/mXqMp2cO4qZSmKY55DvvKhGE9Da/UiX2okvsRk6jMvEoIjaN2C5rRfADbZfjcUQmpelynodIJekem8CLSyLlPtbldVSrjVm9e4LYjkd0qYZod8leatNPJfnhzBE4BLInEfsh1W8C+yulMEsNpp6N8UfND5JYg8RSfVfX0kB4g9UWqaS2ma6meoh4HPfEHMsfiNGfdck9bzD9tCJW6mFvt3T30VaF2PcP8Z61/4nkdUlsJaTzDtLG/RByAM/DyyfYfmuC7qTCbghmnkpiXl5HNRrIdJr+qQW2745ithW5y316BYute0DM9rDPxZn3pjEur2Juvd/F3LDJny9SeHoDY2WbKdcntpPipeJtzK/4RJYqu2KhXb8HWjTe6+v7qI1F7TxlAAATXklEQVRtck90yJ7VAGuwU0G53u7PDeoiUxO0Tk3RnjKwW4rs2TJBKsrW2+P8zse/TEr2+F/XfoHUiiIwBW4+jl2PETSazHxjheknExqeCsMvGYnosMeQI563oVu4cBxELEbjSIzm27v89K3nSBoOX06+i4POJPKyg0jEKN8e5W2feIUbrTzlb8xjdhV+xuPuhVVebBymPRcj1ZrENKMu7oTA6Bu6narXQ27ukGn3yFgmotFG9XphDry7CD++yjeVLx0Hv+9CtTbMicfLpsP2WMPAm8pQvs1EvK3OTjVGdCeD2fYwevCVrbcQN/tYLUH1uEnzVIC1FePg1ycwzjf1wmyX9JghBU5EIsh8Fr+Y1lCWIehnbLyEQXy9i7lVJ321S/1Sgh8XFplJNJCDVDzs1DTbinM7M7R7NqlyQKQeEJy1eG3pOJkGxLY6yJ0aZurxBMKHxFpH54GmiUolQI04ejKdQqRCUmOjpcOZUHsQAhGL6qBXhAZ7DBoShrFL4MPYcIhDSgLL0FG94WOWLKTnYDQd8q+b3PjaYcy2orjssvwByV88+AWe7x7mv7z+YQqXbVSYsQxvb0YQxTw7905TPyxx0wFGV5C7u8S7Z67wtf92L4tf97FubHHwK1k6ZwqsZyeYqHkYWzUC1yUoV5h8NkqtVSAjIH21jay1SVwU+PkERqMHpSpBp4M5/TfXIGITVGoa+J2dovzOCaSrSGy6RM6GOW7f3cWaErY9JBWpVntUR95TiJaJmI4nfX9Xmqd8QCiCdhf7+jbF+Az1Zo5sD+yNBtQa2EBiw0J6EN3uEttI89tXPs5mLc3ciqMJno4zzEhUoLS9dj2kB9IDqyVRUhGzXObtKv1sAIYgqDeg3iCxESUhDYRpEFRr2on4DlxfIbtZ0nGxUijTQHQdjEG2FXIXTb9a04VkP9Dhx3QK3wYnK0muaXI4RsgOVbqRWcxOIdpdXZet1HQMuYdaKywTYRh07j1OtNTD2K7hr22EIMGoWK188EtlYs80ib+W1gF8t6fLnpZF5oJBEDORNzZY/Osu3TMTzHqKyOVNgrBWSxhC6YUJUK028c0+sZJAGQKr5tB/epL/Z+4RTvxwG7UxilnFGNOKsUZI5fvIMCPr33aQ7qSNGxfkX24gLl4f5ukjbkwYTlgvXWV6JY+KWIhWl6DfH3Uc2TYikWDtQzPkLrlEqg6ytLOrk1NYpo6ZMmma9x6i+kstgkAQ++48U3/dxq/W0VV+FQoyGBWOtks6fRQCsThH81gWJ2MQK3uYgGi2ESrHxjsjxA8eYOqbnnZMYxGBUcjROznP9Y+ZyJzD1FejRJdqxF5fIur7BKHmDC7ljejGe0EQ5WtivZsyKX20y0NHL/LEV97CwXJeHy3g+5hyYRa/mEJ2+sjtKsRjBOk47cUkZjdDtN+HAVRl6I72woW+NvL1bujhfEAiYjEoZFHJGIEpSV5r0H40ixKCiTONIeNdT3i01QfsKv1/gCzk2XlLnq33uvzCXc/w50/cx5HGAvZ6DS8m8U63qEzHyL8+g1Gro/yx/r1YlPasxYFjmwRK0JyMkxksUDDS1L38nF3tbHtbX7MGx2e2+Vj+eb4zcScqFkFOTei3u0eL7JyyQMH83wa64h8EyL7CcHztICo17RjCHovoWgpR11UzP6T2IgUynaRx+yS1owbCg8kzPSafbyJrbahrlGfvKt9EYgJU36WfEtx1ZJl/MXmOH5w4hjKzqHaHxFKLzHczxHZ8zNeXtacPQuaAEqhag+zrKdYenQUFM2f02D+pi2AXYX2c1e955M43uP6dQ3w29StMnlO4M2naMxFqRyTmxjstHnzkDJcbE3jP5rFWdqDaINHqoaTA39gawewDD3vp+lBog0kJwyZIJSifNvgXv/hFHquf5MzWnRSe2CIo74xAzL1ItWEMKWvD5j7Po3i2w8XcMQ4tHCL3ikF6o4TqdJGbOxTOGQypvzAsMahAEXQ6yKUtFv6mq2O/zTCDemPJjea1i0ygI4qg00FcusHiekKXCyyT+t0zbH7A5dN3PYOZWFc8evkWvLrNCSeEmdw+qhLavr3UsbH20l1VTt9HOn0iNXiufZj1TobAErqlahzZ3jNhmUrinjpAZ9LGagUkLmwRlHYwr22wWE4SpGOaTVWpDdtO5XUPNTtxs2BUaE9rdWg0hvPaNe5o9W7+7j5JwsBZqJCAIGybWLlA4nyMv0rfhTn54zr51yOAi7y8op3GeIv+34FNCmhB15pMPp/i2+a9SBfy6/2bCkvjNkcYEjU3yeoDMabuW2f50hRH6zmMnapO5+oNBOCH+enwhKGJPLXTWXJrCc3oGq9EDmC3XTS9NxDaXsHts8WHYIQX6FCp52C9vsZcYwL3TBRTLG1gRyO6gBQa2tFE3rx5cO/gqtnEvLLOXLtAfyKBkzWJJeIQ1hV2fzXsO4uYeCc6/LvjX+J/tj5GLzmLGXajB+MZjwqbZQo53Mkk/aSAQk4f2DNOmduP0Plm16DW80bvMXIwQ2S9Vkc0W9iGgQxabfxyhaDT0SHBeBVqPzruHm7Mrrd9LUS5XUX2A6yWj59Pv/HkfR/peBiX4/zB1kNcuDGD0dk9h/Etb+RztE4WWH0ghgjQC7PP+V77Cu+N+I5v8jz6pVGqOt4vp/p9VM9BDitff9cV2+caAgOG1FW6Thd7ZYfYahN5deUNV1gphVjb5sB3O7z0J7ez+FcS+0Z4ysc+Vb1gMsfqw4Lf/dRf0P1gAwrZIVv+/5drH+LUsLk6GTqRQfYVhkT7kszfsDQ5fuNQYMPLshDz0wSJCML1Yb2M2tzWWrmXHz1Yad/XmNprS0ytJsHpD3tB9r2EAE9w3Zmg17ER7QY3Lfvg/uO/w3n/fS5h24iZSbqHckQ328jlzWGzkAoUxhHj9Of1wHsmevPUhu8J08TI52BmEpFJI00TJgtsvHeC9YdNnGyc9IoHzTb43p5bqbEf3TWk+n3d+hqCujcxZUOKhiEkiXqCl24cZfJJMC+uhgf3+MPPjVgTavdzDKhuN2nsmz+nPDjP0kcnmf7MEpfTM+TWLNiphpnUWKPNvkeR7D1uBB3tG/kcrbceYONeA8MRTD2vUenWvR3+/dv/jN8690mcl8NDd/Ye67THaA/HCkbUjvHPjh8BoDJJ7KrD9I86iI2y7qd7I2B3vzDlJ1373CeI23QOufzV0a/z0eBncb81qZ1c+P7+W/jNLikgGqF82uRzP/MtbvSKPF69h9xlF3k1xj/P/yzumRyRzZ3hOX7C2tMqMdbbsW8IMQBaIxGIRfVr+QzrDxWpn/TIvWww/WgXBq2wf5/rTeLCXZS/WpvcSyluMT5L5mWb2Z2SLv2G1y4B6qZiV+/vfY4hGQ2usNrwldW7cANJfDsgfqPOYjVG5+UJDiw3EbUm2DaymEdZJtQamm8cevpdmrhPeidTSbp3H6KXN0ktdfGSFslHNvneqT/j/XOfwX8xiVwVb7QB95/3m7y+q9c4CLSDSyRQ8Qi5S32Kr/iYlbquIY95+l0CHJyRsjv4FDcNplptJl7q0ipPoQTkLujTMYwlh/QFU+N/kQhqcYbNd2RwcoKJV4okLpQI1jdv1sRwUXaNl02zcZ+FF4NeLkHmhsv6dpY/mX0L1eUcE35rH5mMTv4Y/z3+3v6yFLqBZqKgD7KodxC1BsGBSRrHUjgZQeGVjj46yjBQuGExzB9RfHXcxZhNHaexjZj4MhaD6QmcqTh2wyd1uY5Y39akcs8fnsYmU0kq75hm4b+/ym+869t8OXMr8c0kkXp/yLAf8vHGDxcDpGUhMmkax1MEUUiuQPpKg+T1COfOH2XqWVdXxTqdMRBgvLEbhAyPfLLMISVYjDWE7xKeaSLmZ1j+2AwbH5AEdoZ4y8Kotth5a4buFFROWzhTSVKbStOPQ86juUvj3ojCFp4ehGHoIvf7J2jf08G6FGfhUR+rEdOu3ZAE/cHqBFhtxWozy5XcFNJU9NMG8WwK4fk6t5Qi5OOBYkQjUZ6HWl5j8W9MRK+vt32nQ7wcJXYjrinA43lwuEPGifJCCEQqBRM5XWbdqekMgn1odFLi5xPY9+3w1Fv+M3dHP0fucgSjVKPwWp+lD5r86c/+EX9bv50nNu8ls11GtbTTMw7LQRizJyIf0NhiUWQqqesikQjOoSLln+7z/Z/6t1yYyLF5aZroxW1dU3X7DMIT4XtEWwp/c5KXXjtC/LJJ+kYPo+vqB3I9ZCKhT0sKNXDALBVmaFmaba3ZnS4ynaJ3YobGLSlkJI5Z7aCcvlbaYBSeCCGG/Snduw9y/WNJKnfESXRSWJt1TQEZl58CzYJNsjmd51w+zdZTc+TPNqBUwXQl3bkUqVubnGvM0nohT/SqrlKKXQIcHXYwVG0Zj8HiHOUHZqndnsWScf1cuSg/ii9w9txhpp5zMVbLofAGcVeYT7c7RNcaJC/XSV6tI1a2oFoHz0MWcgSzBUQuowPv8MGkZSLjcWQuq+fiuiAE/rE5rn48yvt+/jmeSSyQX47oHmTXv1kgQh99XHpgkp/7+I84fXSZ85cPkbwc8nf2EoYQiE6P3HqEyoszFF+sI26s6wXqe2Q2BM9vn6T3wxzpKy2ENBBhI7e5t5YxDipiWzROZkl+ap2Pz53h97/9IRa+63Hguw7Nl+Y5suFgX93EdxyGFbkBRSLsvwjCnt3hwhgSkctSun+W0rtcZNNk4dEE8WeuQLeLLOSpv3OB2lGD+IZi4ok1VL2JF7coHt3hf5t6mu8vHsePRJG7kv2b8/ZIVfHYxnEc1yRWU6OAm1GoMrChQbeHuLxEbMlGOQ7B4NSPVhtxw2G6VEUk43hTGbYenCbSUGQu1DEHx4GM81UGUJNIJmjNSD49c44H4pf4PeND2FUHY2mLyEWJ6nY1kSfMHIZH4o3FfEO7NGQhSFQsws6dii89+Mec7R3gC0s/S+L1DPg+7sFJ1h5SfOl9f8hvXfwk3Y1JomfaRDYa7HxngjuqnyX5fAxre0sTlfbroFIC1WpTeGaT/mqOZKCwr67gh7S6QQ+x3vIDcpUYssnoWtAc49e44bGlxSylOxP8/K9/j29vnGLrKzOYxuSETqWard385rC4k7/o8oVvvJ9/O/MAEy8KZE+XOJVpIqJRMPX5UsLUJ0gKU6PFQaOp7xeeqCGyGT1RRx/Knbou+c3Xf55WL0JmTZcRMAyMdh8Cmz4Gfc8gOhD8xjZzX+8T/CCGrJZ0QX0/oHagVZ4HqxvYO7qwH4QYp0xrUjlKIbqOvo9S2ma+9TC1IxaxckD2zDZqeW3ESPM8sAz8qGDGqjKdaNDyZxB3f+bfqMyVLvZaFX99U2ujZcLxg+zckaE9K8hcD4hv9bFXa7rbcqZA5c4cvbwgsRGQfWUHZRg0T2RoLBokNgJyZ8qwsQ22Rf/0IqW7ongxmHhJH6UZZJO0jqTxorpVwuwpoiUHs+nQWUhRudUkuRqQf3ZDE0AHWh6WYIEhG2w/sGLQniViUW33BuXKE4dYfzBD60DAxAuC4veX9GIfmuPiP8ryRx/6j/z2qx+j+HsxzDNX9DF4oUxkNoN3ZIbNdyaw64r8ax3M2i3Qy8eZOGtgb5c1RpdOsX1XBu8jVeJGQLdZJPdcRR++YBi0D6cpPeTwyK2v8s0X7yBWSqMkrL0v4IE7XuOHV48SK2WItbuoqM3WW6Pc+pGL3J5e40vqQeKXTcTyJql2j/atE5TuMOkuuGTPxSmclySuVonfMBC+r88sGJ5CpOvTe1FmYemIYWB3B1tSFvN4MznMpe1hmNWdiXP65y7wz+a+xYet36DwXBzRbIGvv1cL4vQ9QxcNx/tiAoVqtjDPX2dhI6dDq3YH064JojsKq6mTfqUUSincpOD2yXWOxMv8ReYBnY71XYgZ9BOS04vr/HeFZ3hy+jD9TJrAEiwc3OJPD/yQf4Ti1anTxC6Htdo+TEcbJI0egQ0IoRmxhkG3YBB7e5kPzl7hK/ZdpFZNIEVzIUJyvU+kXINBn8oeytrgwB11cBZnMkHswkbILvCR2QzdY5M0DtqkMvPEX91AtTsYvYBnLhzhD8yHiK2ZI03eLHH4vyX4Ny98iomKh3VpiWCPiRgAzmKrNPyecWTh4c+bjsLs+Mh1/YawI3gzOV5XE5zrTDH5hCR6JVxFBZadZMmb4i9ad5B4MkHhuTJ2J6DSKfKFyFGuPbvI1HNd5OoWuD5RN8b5xkFefPUYcz/sYlxZQ7ku0rJxp9NsFyJc2J4mfS5CYtOnM21R/XCHVjJO7lqAqjV0FsEYOhymfHJ6gspbJ6ictIh1olh9hcykweljGBaWI4neqEClps957SlS6wnWXp1h6scNxMpmeEZCgFltk1jrYF3fHnZZjdCwQcaEjolNA5nJYGbPVfGyMayVHV3qDnQjSmKjz+yTFu2pGInVlgYCwqYX89Iqi7WCbo1vVWCnhtyRTPc83PNxWnMKP2ZixWIE9QbWq0scuK7P51Pt9rCBJajWyLwUIb6R0WlRq4MyBI3FNBPZFhu5mD4eb+AYxpzEwLMr26I7KenO+nQnLKxKQseVbYHcqhBZ3dK5eUjlCEpl7EqViGXqOvegkWjA3RkcF/AGKL2IRhDxKP5EBtl1+f8ALhlUSLpoktwAAAAASUVORK5CYII=;" vertex="1" parent="1">
          <mxGeometry x="103" y="211" width="89" height="89" as="geometry" />
        </mxCell>
      </root>
    </mxGraphModel>
  </diagram>
</mxfile>
